<svg width="1005" height="1050" viewBox="0 0 1005 1050" fill="none" xmlns="http://www.w3.org/2000/svg">
<path d="M615.145 814.438C726.54 703.043 726.541 522.436 615.146 411.042C503.752 299.648 323.146 299.649 211.751 411.044C100.355 522.439 100.355 703.045 211.749 814.44C323.143 925.834 503.75 925.833 615.145 814.438Z" fill="#C6DAFA"/>
<path d="M615.145 814.438C726.54 703.043 726.541 522.436 615.146 411.042C503.752 299.648 323.146 299.649 211.751 411.044C100.355 522.439 100.355 703.045 211.749 814.44C323.143 925.834 503.75 925.833 615.145 814.438Z" fill="#C6DAFA"/>
<path d="M964.748 202.443H754.967V534.771H964.748V202.443Z" fill="#C6DAFA"/>
<path d="M947.702 219.061H772.011V518.156H947.702V219.061Z" fill="white"/>
<path d="M972.595 194.597H743.658V206.76H972.595V194.597Z" fill="#91BDFF"/>
<path d="M972.595 213.472H743.658V225.636H972.595V213.472Z" fill="#91BDFF"/>
<path d="M972.595 232.348H743.658V244.511H972.595V232.348Z" fill="#91BDFF"/>
<path d="M972.595 251.223H743.658V263.387H972.595V251.223Z" fill="#91BDFF"/>
<path d="M972.595 270.098H743.658V282.262H972.595V270.098Z" fill="#91BDFF"/>
<path d="M972.595 288.971H743.658V301.135H972.595V288.971Z" fill="#91BDFF"/>
<path d="M972.595 307.847H743.658V320.01H972.595V307.847Z" fill="#91BDFF"/>
<path d="M972.595 326.722H743.658V338.886H972.595V326.722Z" fill="#91BDFF"/>
<path d="M972.595 345.598H743.658V357.761H972.595V345.598Z" fill="#91BDFF"/>
<path d="M972.595 194.597V414.997" stroke="#91BDFF" stroke-miterlimit="10"/>
<path d="M976.852 412.227H968.336V433.689H976.852V412.227Z" fill="#91BDFF"/>
<path d="M801.767 444.653H781.289V518.249H801.767V444.653Z" fill="#C6DAFA"/>
<path d="M873.433 456.333H855.035V518.249H873.433V456.333Z" fill="#C6DAFA"/>
<path d="M898.39 468.714H879.992V518.249H898.39V468.714Z" fill="#C6DAFA"/>
<path d="M843.642 427.081H810.567V518.249H843.642V427.081Z" fill="#C6DAFA"/>
<path d="M937.741 427.081H904.667V518.249H937.741V427.081Z" fill="#C6DAFA"/>
<path d="M1003.82 1019.4H0.891479L61.3692 985.353H943.339L1003.82 1019.4Z" fill="#C6DAFA"/>
<path d="M1002.14 1019.4H0.891479V1049.19H1002.14V1019.4Z" fill="#91BDFF"/>
<path d="M882.401 879.658C927.991 879.658 955.943 888.366 957.675 888.922C960.614 889.865 962.228 893.007 961.29 895.944C960.348 898.883 957.191 900.49 954.268 899.559C953.393 899.284 891.516 880.232 801.973 899.698C798.957 900.342 795.986 898.441 795.328 895.428C794.673 892.412 796.588 889.441 799.599 888.783C831.055 881.944 859.044 879.658 882.401 879.658Z" fill="#3763A6"/>
<path d="M849.891 843.716C850.692 842.178 866.209 786.948 858.008 786.189C849.805 785.429 853.439 790.45 848.958 794.172C844.476 797.894 835.038 742.546 830.684 752.391C826.33 762.237 834.42 774.081 828.188 771.415C821.955 768.749 810.741 717.556 802.753 722.381C794.765 727.205 806.315 745.152 799.562 745.733C792.808 746.314 755.588 729.245 750.773 752.338C745.96 775.431 796.973 779.174 802.056 785.538C807.14 791.905 776.708 794.793 791.877 800.555C807.047 806.317 832.741 813.742 823.234 816.13C821.209 816.637 793.714 805.514 795.136 825.22C795.826 834.767 849.891 843.716 849.891 843.716Z" fill="#2BA167"/>
<path d="M850.018 849.839C850.018 849.839 840.696 776.473 800.268 765.549" stroke="#1D402F" stroke-miterlimit="10" stroke-linecap="round"/>
<path d="M878.651 903.45C921.539 903.45 956.306 898.718 956.306 892.88C956.306 887.042 921.539 882.31 878.651 882.31C835.763 882.31 800.995 887.042 800.995 892.88C800.995 898.718 835.763 903.45 878.651 903.45Z" fill="#1D402F"/>
<path d="M876.365 889.99C877.838 889.075 919.334 849.462 912.661 844.626C905.991 839.793 906.559 845.965 900.806 846.884C895.053 847.801 915.135 795.369 906.371 801.623C897.607 807.876 898.534 822.189 894.529 816.721C890.525 811.253 906.962 761.489 897.631 761.57C888.299 761.651 889.094 782.979 882.986 780.038C876.879 777.096 853.55 743.442 837.642 760.859C821.733 778.275 863.72 807.489 864.852 815.558C865.982 823.625 838.325 810.604 848.441 823.293C858.557 835.983 876.882 855.465 867.486 852.672C865.485 852.077 847.496 828.495 838.677 846.176C834.408 854.742 876.365 889.99 876.365 889.99Z" fill="#2BA167"/>
<path d="M873.287 906.968C873.287 906.968 902.719 827.448 873.5 797.447" stroke="#1D402F" stroke-miterlimit="10" stroke-linecap="round"/>
<path d="M890.073 913.796C889.575 912.135 884.686 854.976 892.887 855.766C901.088 856.556 896.577 860.81 900.28 865.306C903.983 869.801 923.632 817.205 926.064 827.692C928.494 838.181 918.329 848.295 924.95 846.847C931.571 845.397 952.186 797.215 959.127 803.452C966.071 809.689 951.359 825.151 957.884 826.99C964.408 828.826 1004.17 819.039 1004.57 842.625C1004.97 866.211 954.155 860.322 947.966 865.621C941.778 870.92 971.131 879.463 955.148 882.28C939.166 885.096 912.536 887.572 921.427 891.699C923.32 892.577 952.415 886.807 947.323 905.896C944.856 915.144 890.073 913.796 890.073 913.796Z" fill="#2BA167"/>
<path d="M881.143 928.563C881.143 928.563 911.712 849.474 953.472 846.321" stroke="#1D402F" stroke-miterlimit="10" stroke-linecap="round"/>
<path d="M895.875 846.926C895.118 845.367 881.143 789.728 889.365 789.195C897.587 788.662 893.814 793.584 898.189 797.428C902.566 801.273 913.542 746.21 917.62 756.173C921.698 766.137 913.28 777.749 919.584 775.26C925.888 772.77 938.524 721.908 946.375 726.955C954.227 731.999 942.181 749.617 948.914 750.388C955.649 751.157 993.33 735.13 997.499 758.348C1001.67 781.566 950.57 783.884 945.31 790.108C940.05 796.328 970.392 800.064 955.065 805.402C939.74 810.741 913.85 817.448 923.287 820.097C925.295 820.662 953.092 810.308 951.121 829.968C950.167 839.487 895.875 846.926 895.875 846.926Z" fill="#2BA167"/>
<path d="M889.425 862.932C889.425 862.932 906.941 779.968 947.656 770.174" stroke="#1D402F" stroke-miterlimit="10" stroke-linecap="round"/>
<path d="M864.792 904.777C865.341 903.133 871.916 846.143 863.696 846.69C855.477 847.239 859.861 851.621 856.024 856.005C852.188 860.389 834.105 807.234 831.365 817.645C828.625 828.055 838.489 838.468 831.914 836.824C825.339 835.179 806.158 786.409 799.034 792.437C791.91 798.466 806.158 814.356 799.583 816C793.008 817.645 753.552 806.685 752.457 830.248C751.361 853.811 802.322 849.427 808.351 854.907C814.38 860.387 784.788 868.059 800.678 871.346C816.57 874.635 843.116 877.896 834.105 881.759C832.187 882.581 803.277 875.952 807.802 895.184C809.993 904.504 864.792 904.777 864.792 904.777Z" fill="#2BA167"/>
<path d="M865.89 910.806C865.89 910.806 845.067 839.841 803.42 835.457" stroke="#1D402F" stroke-miterlimit="10" stroke-linecap="round"/>
<path d="M928.135 1001.15L924.739 1001.95C893.672 1009.28 859.958 1009.56 828.637 1002.76L800.889 893.165C849.583 904.101 902.061 904.479 951.086 894.249L956.279 893.165L928.135 1001.15Z" fill="#3763A6"/>
<path d="M804.497 907.415C814.854 910.055 839.416 915.167 874.355 915.167C896.588 915.167 923.06 913.045 952.686 906.947L955.797 895.015C955.461 895.025 955.123 895.055 954.785 895.129C865.241 914.595 803.362 895.543 802.489 895.268C802.116 895.15 801.739 895.073 801.364 895.036L804.497 907.415Z" fill="#24416E"/>
<path d="M874.355 910.343C828.764 910.343 800.812 901.632 799.08 901.079C796.141 900.136 794.527 896.993 795.467 894.057C796.41 891.118 799.566 889.51 802.489 890.441C803.365 890.717 865.241 909.768 954.785 890.302C957.8 889.658 960.772 891.56 961.429 894.573C962.085 897.588 960.172 900.56 957.159 901.218C925.7 908.057 897.712 910.343 874.355 910.343Z" fill="#3763A6"/>
<path d="M593.005 963.407L125.692 975.436L10.5122 656.768L477.825 644.737L593.005 963.407Z" fill="#424242"/>
<path d="M811.362 988.753L344.049 1000.78L125.673 974.73L592.986 962.7L811.362 988.753Z" fill="#333333"/>
<path d="M570.322 945.05L140.565 956.111L38.1305 672.496L467.887 661.433L570.322 945.05Z" fill="#3763A6"/>
<path d="M125.673 974.73L344.049 1000.78L344.725 1027.04L127.197 997.45L125.673 974.73Z" fill="#1A1A1A"/>
<path d="M344.049 1000.78L811.362 988.753L811.869 1008.45L344.725 1027.04L344.049 1000.78Z" fill="black"/>
<path d="M457.549 671.165L556.597 945.402L570.322 945.05L467.887 661.433L38.1305 672.496L41.5165 681.874L457.549 671.165Z" fill="#122138"/>
<path d="M10.5122 656.768L7.67505 660.513L127.197 997.45L125.673 974.73L10.5122 656.768Z" fill="black"/>
<path d="M573.161 985.749L463.218 988.579L411.843 982.451L521.785 979.621L573.161 985.749Z" fill="#424242"/>
<path d="M593 1V210.994" stroke="#424242" stroke-miterlimit="10" stroke-linecap="round"/>
<path d="M514.759 321.169H675.512L593.646 231.067L514.759 321.169Z" fill="#C6DAFA"/>
<path d="M614.187 197.327H574.495V256.07H614.187V197.327Z" fill="#C6DAFA"/>
<path d="M574.495 252.997L614.138 253.293L568.393 259.991L574.495 252.997Z" fill="#3763A6"/>
<path d="M406.958 285.157C406.958 285.157 423.596 360.478 397.222 352.428C370.847 344.375 368.512 284.038 368.512 284.038L406.958 285.157Z" fill="#1A1A1A"/>
<path d="M441.089 694.621C451.031 726.936 462.266 757.091 472.619 774.255C487.045 818.425 505.627 826.52 505.627 826.52L538.671 814.52C543.88 812.376 544.332 803.142 543.055 798.054L513.35 645.849L512.864 646.029" fill="#FCBC76"/>
<path d="M512.864 646.027L468.673 508.797C383.837 495.116 414.457 586.566 414.457 586.566C418.804 612.769 428.99 655.293 441.089 694.619" fill="white"/>
<path d="M528.268 642.069C528.268 642.069 469.427 631.218 441.95 674.127L454.309 706.546L458.158 706.678C486.452 707.653 514.286 699.327 537.4 682.976L528.268 642.069Z" fill="white"/>
<path d="M522.253 653.799C522.253 653.799 510.96 664.835 490.327 671.16C469.694 677.487 447.203 677.545 448.792 672.564C450.381 667.582 451.421 669.321 451.421 669.321L454.54 674.544C454.54 674.544 498.697 670.539 518.212 654.462L517.07 646.953C517.07 646.953 520.78 647.247 522.253 653.799Z" fill="#ADADAD"/>
<path d="M203.215 506.108L345.718 467.403L468.677 509.042L203.215 506.108Z" fill="white"/>
<path d="M478.242 947.42L477.686 865.123L482.003 731.117C485.609 680.609 475.604 549.704 447.738 507.424L377.89 483.027L370.747 495.188L359.318 502.296L307.229 478.112L210.316 504.679L234.175 953.698L478.242 947.42Z" fill="white"/>
<path d="M365.321 511.56C368.953 530.185 372.339 548.861 375.528 567.575C378.515 586.316 381.25 605.096 383.875 623.897C389.007 661.514 392.837 699.295 396.346 737.108C399.13 774.982 401.448 812.909 402.233 850.891C402.238 869.894 402.625 888.88 401.981 907.871C401.562 926.86 401.597 930.513 400.425 949.437L399.195 949.465C400.751 911.577 399.894 888.901 398.741 851.004C397.291 813.117 394.998 775.264 391.862 737.479C388.692 699.696 384.875 661.968 380.391 624.314C375.875 586.67 370.842 549.077 364.879 511.632L365.321 511.56Z" fill="#ADADAD"/>
<path d="M351.307 527.186C350.135 527.207 348.956 526.732 348.127 525.891C347.256 525.097 346.74 523.934 346.719 522.765C346.696 521.549 347.17 520.414 348.011 519.541C349.649 517.843 352.666 517.788 354.364 519.423C355.235 520.263 355.707 521.38 355.73 522.596C355.751 523.765 355.323 524.946 354.482 525.771C353.641 526.646 352.523 527.165 351.307 527.186Z" fill="#ADADAD"/>
<path d="M386.126 904.532C383.648 904.578 381.582 902.542 381.582 900.064C381.535 897.588 383.527 895.569 386.003 895.523C388.525 895.476 390.547 897.512 390.591 899.988C390.593 902.468 388.645 904.486 386.167 904.532C386.126 904.532 386.126 904.532 386.126 904.532ZM379.103 824.452C378.967 821.973 380.864 819.822 383.386 819.729C385.864 819.593 387.971 821.492 388.106 823.967C388.242 826.446 386.343 828.597 383.821 828.69C383.78 828.734 383.733 828.736 383.687 828.736C381.257 828.78 379.24 826.879 379.103 824.452ZM373.969 748.929C373.786 746.456 375.595 744.258 378.115 744.031C380.588 743.848 382.742 745.701 382.969 748.176C383.147 750.65 381.297 752.804 378.823 753.031C378.733 753.033 378.643 753.033 378.552 753.035C376.209 753.079 374.194 751.315 373.969 748.929ZM366.718 673.539C366.447 671.063 368.253 668.823 370.727 668.552C373.2 668.281 375.442 670.09 375.667 672.561C375.938 675.035 374.175 677.23 371.702 677.501C371.565 677.548 371.431 677.55 371.296 677.552C369.001 677.594 366.986 675.875 366.718 673.539ZM357.669 598.315C357.352 595.841 359.112 593.556 361.583 593.238C364.01 592.923 366.296 594.639 366.611 597.113C366.928 599.584 365.212 601.87 362.739 602.185C362.558 602.187 362.377 602.192 362.197 602.194C359.948 602.238 357.982 600.605 357.669 598.315Z" fill="#ADADAD"/>
<path d="M324.724 505.719L308.556 478.925L298.275 391.54L352.701 376.09L381.118 494.799C383.733 514.703 339.97 518.777 324.724 505.719Z" fill="#FCBC76"/>
<path d="M361.168 464.193C365.314 463.589 369.17 462.134 372.693 460.098L352.699 376.092L298.273 391.542L303.129 432.816L304.327 434.701L336.779 458.033C344.021 463.237 352.697 465.427 361.168 464.193Z" fill="#E3923C"/>
<path d="M372.084 457.662C387.182 456.302 399.619 444.505 402.917 428.413L412.778 380.314C414.156 373.596 414.323 366.699 413.258 359.924C409.307 334.821 403.873 307.949 398.164 293.719L397.3 286.822C386.844 260.763 361.745 260.57 335.938 262.896C307.609 265.446 298.75 286.968 295.753 317.787L279.87 333.675C278.515 347.606 281.445 361.703 288.201 373.763L311.863 419.531C313.128 421.979 314.906 424.129 317.074 425.831L348.067 450.17C355.015 455.763 363.556 458.431 372.084 457.662Z" fill="#FCBC76"/>
<path d="M294.627 383.823C294.627 383.823 305.464 333.858 301.888 313.132C301.888 313.132 400.858 339.53 410.108 290.588C410.108 290.588 420.463 256.851 385.595 257.15C349.838 257.455 273.41 247.235 274.77 308.706C276.512 387.406 294.627 383.823 294.627 383.823Z" fill="#1A1A1A"/>
<path d="M307.435 369.341C314.293 379.011 313.836 391.114 306.418 396.376C299 401.636 287.427 398.06 280.569 388.39C273.712 378.721 274.168 366.618 281.586 361.356C289.004 356.096 300.577 359.672 307.435 369.341Z" fill="#FCBC76"/>
<path opacity="0.67" d="M286.6 483.557L335.12 538.824L365.099 511.597L286.6 483.557Z" fill="#707070"/>
<path opacity="0.67" d="M397.377 486.867L383.279 525.06L390.343 525.22L397.377 486.867Z" fill="#707070"/>
<path opacity="0.67" d="M365.099 511.597L348.227 536.223L366.859 517.89L384.833 528.358L365.099 511.597Z" fill="#707070"/>
<path d="M373.818 464.77L384.646 465.011L377.538 483.434L373.818 464.77Z" fill="#ADADAD"/>
<path d="M384.646 465.011L397.377 486.867L385.371 528.731L365.099 511.597L384.646 465.011Z" fill="white"/>
<path d="M306.458 460.031L295.431 460.193C296.682 460.946 307.273 468.482 307.273 468.482L306.458 460.031Z" fill="#ADADAD"/>
<path d="M295.431 460.193L286.137 483.999L348.227 536.223L365.099 511.597L306.571 467.95" fill="white"/>
<path opacity="0.42" d="M434.674 794.232L235.782 789.628C234.949 740.198 236.825 624.495 224.346 572.656C224.346 572.656 216.74 512.232 195.218 518.038L168.681 691.571L168.086 878.954L189.02 846.122C204.815 866.92 249.614 894.119 275.388 891.574C411.266 878.148 477.997 831.355 477.997 831.355L434.674 794.232Z" fill="#707070"/>
<path d="M203.838 513.063C206.559 514.645 207.333 517.572 208.345 520.085C209.211 522.702 209.929 525.37 210.478 528.05C211.462 533.435 211.958 538.84 212.405 544.246C212.868 549.644 212.775 555.061 212.692 560.441C212.636 565.835 212.481 571.215 212.199 576.584C211.786 581.95 211.196 587.286 210.626 592.625C210.04 597.963 209.584 603.306 208.563 608.589C207.657 613.883 206.819 619.18 205.767 624.446C204.51 629.687 203.509 634.956 202.022 640.156L201.575 640.1C202.77 629.481 204.107 618.876 205.084 608.234C206.172 597.606 207.055 586.955 207.706 576.294C208.516 565.643 208.882 554.964 208.894 544.29C208.824 538.956 208.678 533.613 208.106 528.314C207.859 525.66 207.444 523.026 206.888 520.43C206.541 519.152 206.272 517.843 205.749 516.632C205.327 515.435 204.635 514.11 203.727 513.503L203.838 513.063Z" fill="#ADADAD"/>
<path d="M232.582 686.531L233.284 675.776C232.992 679.264 232.772 682.874 232.582 686.531Z" fill="#ADADAD"/>
<path d="M224.777 706.25C222.09 679.857 238.749 620.518 224.108 559.684C224.108 559.684 243.613 491.923 188.163 508.767C172.194 513.619 149.692 591.353 147.017 622.228L141.449 703.466C138.77 724.553 143.552 733.064 145.632 754.219" fill="white"/>
<path d="M145.632 754.216L157.937 866.705C158.975 872.879 163.66 882.917 169.92 883.09L261.37 878.854C261.37 878.854 230.382 761.271 224.779 706.25" fill="#FCBC76"/>
<path d="M195.855 845.184L226.581 776.448L434.435 781.258L436.16 849.703C436.16 849.703 181.211 919.516 195.855 845.184Z" fill="#FCBC76"/>
<path d="M290.137 777.918L269.448 775.318C269.448 775.318 427.126 854.298 437.274 849.68C458.45 840.047 479.284 827.817 479.284 827.817L434.433 781.258L290.137 777.918Z" fill="#E3923C"/>
<path d="M289.122 743.32C289.122 743.32 271 743.656 264.005 744.955C257.011 746.254 236.827 776.733 236.827 776.733L277.403 777.81L289.122 743.32Z" fill="#FCBC76"/>
<path d="M517.408 805.178L505.501 739.445L289.125 743.322L270.738 776.848C270.738 776.848 530.484 875.364 517.408 805.178Z" fill="#FCBC76"/>
<path d="M238.61 696.342C238.61 696.342 166.221 670.579 122.63 719.375L131.683 763.001L136.537 763.955C172.213 770.966 209.202 766.091 241.841 750.075L238.61 696.342Z" fill="white"/>
<path d="M228.594 709.985C228.594 709.985 212.023 721.672 184.573 725.482C157.122 729.292 128.593 724.778 131.625 718.786C134.654 712.795 135.618 715.213 135.618 715.213L138.506 722.471C138.506 722.471 195.31 726.404 223.332 710.002L223.417 700.249C223.417 700.249 228.063 701.382 228.594 709.985Z" fill="#ADADAD"/>
<path d="M467.262 593.792C470.053 602.817 472.144 612.167 473.988 621.63C474.979 626.332 475.704 631.153 476.563 635.915C477.327 640.721 478.017 645.561 478.738 650.386C479.333 655.27 479.984 660.127 480.533 665.032C481.005 669.974 481.596 674.859 481.934 679.861C482.742 689.806 483.307 699.865 483.178 710.247L482.763 710.439L474.599 652.306L466.847 593.979L467.262 593.792Z" fill="#ADADAD"/>
<path d="M425.498 740.937C425.498 740.937 470.602 709.01 498.982 708.485L530.519 732.506L526.656 779.049L493.291 743.975L425.498 740.937Z" fill="#FCBC76"/>
<path d="M210.318 504.684C215.101 511.203 218.866 518.374 221.91 525.782C225.034 533.175 227.426 540.841 229.427 548.595C231.187 556.405 232.841 564.254 233.411 572.258C233.795 576.241 233.948 580.248 234.152 584.231C234.059 588.254 234.062 592.249 233.663 596.263L233.214 596.305C232.348 588.453 231.364 580.614 229.967 572.841C228.684 565.048 226.921 557.345 225.057 549.679C223.183 542.011 221.02 534.414 218.544 526.917C216.046 519.437 213.294 512.009 209.917 504.887L210.318 504.684Z" fill="#ADADAD"/>
<path d="M187.702 523.605L186.118 572.114C185.662 588.254 185.078 604.371 185.208 620.484C184.939 636.585 185.321 652.69 186.412 668.663C186.947 676.649 187.76 684.616 189.224 692.382C190.59 700.147 192.661 707.866 196.83 714.064L196.633 714.337C191.952 708.533 189.52 700.638 187.73 692.898C185.977 685.065 184.93 677.029 184.143 668.981C182.598 652.864 182.23 636.626 182.264 620.43C182.355 604.228 182.947 588.043 183.828 571.894C184.719 555.745 185.877 539.623 187.408 523.554L187.702 523.605Z" fill="#ADADAD"/>
<path d="M283.545 372.748C283.545 372.748 294.699 369.425 298.736 381.767" stroke="#E3923C" stroke-miterlimit="10" stroke-linecap="round"/>
<path d="M289.122 381.174L293.632 374.527" stroke="#E3923C" stroke-miterlimit="10" stroke-linecap="round"/>
<path d="M449.35 551.733C437.055 498.727 395.739 483.474 395.313 483.316L393.122 479.539C393.718 479.652 439.322 496.744 451.937 551.133L449.35 551.733Z" fill="#3763A6"/>
<path d="M448.834 598.635C442.722 597.833 437.224 594.797 433.27 590.026C429.124 585.016 427.174 578.689 427.784 572.214C428.585 563.702 433.907 556.141 441.677 552.479C442.27 552.201 442.981 552.396 443.345 552.94C443.711 553.484 443.625 554.216 443.141 554.661C439.169 558.308 436.707 563.251 436.202 568.582C435.084 580.493 443.875 591.075 455.768 592.21H455.77C459.608 592.571 463.496 591.886 467.017 590.225C467.612 589.947 468.32 590.142 468.684 590.686C469.05 591.23 468.964 591.962 468.48 592.404C463.397 597.071 456.569 599.378 449.742 598.736C449.438 598.709 449.135 598.674 448.834 598.635Z" fill="#C9C9C9"/>
<path d="M448.834 598.635C442.722 597.833 437.224 594.797 433.27 590.026C429.124 585.016 427.174 578.689 427.784 572.214C428.585 563.702 433.907 556.141 441.677 552.479C442.27 552.201 442.981 552.396 443.345 552.94C443.711 553.484 443.625 554.216 443.141 554.661C439.169 558.308 436.707 563.251 436.202 568.582C435.084 580.493 443.875 591.075 455.768 592.21H455.77C459.608 592.571 463.496 591.886 467.017 590.225C467.612 589.947 468.32 590.142 468.684 590.686C469.05 591.23 468.964 591.962 468.48 592.404C463.397 597.071 456.569 599.378 449.742 598.736C449.438 598.709 449.135 598.674 448.834 598.635Z" fill="#264473"/>
<path d="M452.118 596.673C439.211 594.98 429.829 583.319 431.056 570.252C432.316 556.884 444.213 547.034 457.579 548.289C470.951 549.514 480.797 561.447 479.541 574.812V574.814C478.282 588.18 466.384 598.032 453.019 596.772C452.718 596.747 452.416 596.712 452.118 596.673Z" fill="#3763A6"/>
<path d="M452.965 590.246C443.495 589.002 436.61 580.447 437.511 570.861C438.435 561.053 447.164 553.825 456.972 554.746C466.785 555.645 474.009 564.399 473.087 574.208V574.21C472.163 584.018 463.434 591.246 453.625 590.322C453.405 590.299 453.183 590.274 452.965 590.246Z" fill="#264473"/>
<path d="M222.593 736.112L208.746 734.788C203.338 734.271 198.469 731.668 195.035 727.457C191.6 723.252 190.03 717.957 190.609 712.559L202.803 598.954C204.692 588.567 212.597 580.994 222.956 579.562C233.309 578.133 242.981 583.275 247.578 592.671L291.119 699.64C293.314 705.029 293.073 711.104 290.456 716.304C287.842 721.505 283.108 725.32 277.47 726.772L267.486 729.345L266.824 726.772L276.808 724.199C281.702 722.939 285.813 719.625 288.082 715.111C290.352 710.597 290.563 705.323 288.659 700.64L245.155 593.755C241.109 585.494 232.524 580.922 223.32 582.193C214.116 583.465 207.094 590.195 205.429 599.334L193.249 712.841C192.747 717.529 194.108 722.124 197.091 725.778C200.074 729.433 204.301 731.693 208.996 732.14L222.843 733.465L222.593 736.112Z" fill="#3763A6"/>
<path d="M261.599 728.9C261.337 725.429 263.938 722.404 267.407 722.14C270.879 721.878 273.904 724.479 274.168 727.951C274.43 731.422 271.829 734.447 268.359 734.711C264.888 734.97 261.863 732.37 261.599 728.9Z" fill="#3763A6"/>
<path d="M216.652 734.896C216.391 731.425 218.991 728.398 222.461 728.136C225.932 727.874 228.957 730.475 229.221 733.944C229.483 737.416 226.882 740.441 223.413 740.705C219.939 740.969 216.914 738.368 216.652 734.896Z" fill="#3763A6"/>
<path d="M202.863 620.183L200.563 618.856C208.134 605.747 216.97 598.736 226.827 598.018C242.624 596.893 255.11 612.352 255.628 613.012L253.544 614.661C253.426 614.511 241.417 599.6 227.005 600.668C218.088 601.321 209.964 607.887 202.863 620.183Z" fill="#3763A6"/>
<path d="M219.473 580.875C219.371 580.005 210.733 493.669 289.106 476.387L287.853 479.606C211.798 496.376 222.014 579.722 222.111 580.57L219.473 580.875Z" fill="#3763A6"/>
<path d="M342.105 361.701C342.05 364.51 340.693 366.761 339.074 366.729C337.455 366.696 336.19 364.392 336.246 361.585C336.301 358.776 337.659 356.525 339.278 356.557C340.896 356.589 342.161 358.894 342.105 361.701Z" fill="#1A1A1A"/>
<path d="M396.087 358.329C396.031 361.138 394.674 363.387 393.055 363.354C391.436 363.322 390.172 361.02 390.227 358.211C390.283 355.401 391.64 353.152 393.259 353.185C394.878 353.217 396.145 355.519 396.087 358.329Z" fill="#1A1A1A"/>
<path d="M371.771 350.357C371.771 350.357 378.017 368.598 381.517 381.093C385.014 393.587 363.524 391.339 363.524 391.339" stroke="#E3923C" stroke-miterlimit="10" stroke-linecap="round"/>
<path d="M339.083 397.668C339.083 397.668 347.152 417.604 367.09 411.909" stroke="#E3923C" stroke-miterlimit="10" stroke-linecap="round"/>
<path d="M236.081 776.61C236.081 776.61 221.196 775.804 212.62 794.617C212.62 794.617 230.745 780.494 236.081 776.61Z" fill="#E3923C"/>
<path d="M425.498 740.937L495.313 743.973L528.425 780.132L482.978 749.608L425.498 740.937Z" fill="#E3923C"/>
<path d="M482.812 711.218L501.11 706.553L529.704 732.252L501.171 709.798L482.812 711.218Z" fill="#E3923C"/>
<path d="M505.742 723.173C508.364 724.22 510.56 725.764 512.862 727.21C515.129 728.69 517.29 730.315 519.497 731.874C521.607 733.562 523.773 735.179 525.827 736.939C527.883 738.697 529.919 740.48 531.821 742.442L531.751 742.535L518.805 732.8L512.329 727.937C510.157 726.364 508.001 724.646 505.747 723.291L505.742 723.173Z" fill="#E3923C"/>
<path d="M507.32 735.311C509.941 736.358 512.137 737.903 514.439 739.348C516.706 740.828 518.867 742.451 521.074 744.012C523.184 745.7 525.35 747.317 527.404 749.077C529.461 750.833 531.496 752.618 533.398 754.58L533.328 754.673L520.382 744.939L513.906 740.075C511.734 738.502 509.575 736.784 507.324 735.429L507.32 735.311Z" fill="#E3923C"/>
<path d="M508.114 749.087C510.736 750.133 512.931 751.678 515.233 753.123C517.501 754.603 519.662 756.229 521.869 757.788C523.979 759.476 526.144 761.093 528.198 762.853C530.255 764.608 532.291 766.394 534.192 768.356L534.123 768.448L521.176 758.714L514.701 753.851C512.528 752.278 510.372 750.559 508.119 749.205L508.114 749.087Z" fill="#E3923C"/>
<path d="M322.51 366.659C322.482 366.275 322.468 365.888 322.466 365.497C322.398 355.464 330.474 347.277 340.507 347.207C350.54 347.14 358.727 355.216 358.797 365.249C358.864 375.282 350.786 383.471 340.755 383.538C331.111 383.606 323.172 376.146 322.51 366.659Z" stroke="white" stroke-miterlimit="10" stroke-linecap="round"/>
<path d="M417.262 359.927C417.329 369.96 409.253 378.149 399.22 378.216C389.187 378.283 380.998 370.207 380.931 360.175C380.864 350.142 388.942 341.955 398.972 341.885C409.005 341.816 417.195 349.894 417.262 359.927Z" stroke="white" stroke-miterlimit="10" stroke-linecap="round"/>
<path d="M358.665 361.414C358.665 361.414 370.293 350.186 380.931 360.172" stroke="white" stroke-miterlimit="10" stroke-linecap="round"/>
<path d="M297.895 359.711L322.463 365.497" stroke="white" stroke-miterlimit="10" stroke-linecap="round"/>
<path d="M389.085 334.921C389.085 334.921 395.174 327.769 404.663 335.456" stroke="#1A1A1A" stroke-miterlimit="10" stroke-linecap="round"/>
<path d="M326.401 341.007C326.401 341.007 333.562 333.068 348.419 339.338" stroke="#1A1A1A" stroke-miterlimit="10" stroke-linecap="round"/>
<path d="M328.214 647.576L281.737 651.926L281.764 634.567L328.24 630.218L328.214 647.576Z" fill="#3763A6"/>
<path d="M242.409 139.703H29.7998V270.01H242.409V139.703Z" fill="#91BDFF"/>
<path d="M164.681 256.686L208.009 309.637V251.723L164.681 256.686Z" fill="#91BDFF"/>
<path d="M58.1477 170.893H141.524" stroke="white" stroke-miterlimit="10"/>
<path d="M58.1477 190.625H214.061" stroke="white" stroke-miterlimit="10"/>
<path d="M58.1477 210.357H214.061" stroke="white" stroke-miterlimit="10"/>
<path d="M58.1477 230.089H214.061" stroke="white" stroke-miterlimit="10"/>
</svg>
