<svg width="1086" height="716" viewBox="0 0 1086 716" fill="none" xmlns="http://www.w3.org/2000/svg">
<g clip-path="url(#clip0_78_2)">
<path d="M124.499 120.762H101.973V221.738H124.499V120.762Z" fill="#FFB167"/>
<path d="M163.722 159.984H62.7461V182.51H163.722V159.984Z" fill="#FFB167"/>
<path d="M197.089 171.496C196.994 171.049 196.946 170.602 196.93 170.139C196.93 169.149 196.77 167.824 196.642 166.148C196.642 165.254 196.515 164.28 196.451 163.21C196.387 162.141 196.1 160.959 195.908 159.698C195.509 156.776 194.918 153.871 194.12 151.029C192.14 143.175 188.995 135.655 184.765 128.743C164.202 94.3869 122.136 79.476 84.5392 93.2215C76.956 95.8717 69.8358 99.7032 63.45 104.572C60.1294 107.015 56.9843 109.681 54.0149 112.555C51.0775 115.556 48.3635 118.765 45.857 122.133C40.6686 129.094 36.6615 136.837 33.9475 145.074C28.2162 162.125 28.2162 180.596 33.9475 197.646C36.6615 205.883 40.6686 213.626 45.8411 220.587C48.3475 223.987 51.0615 227.228 53.999 230.261C56.9843 233.119 60.1294 235.785 63.45 238.244C66.7068 240.67 70.1232 242.857 73.6673 244.821C77.1795 246.657 80.8194 248.253 84.5392 249.61C122.152 263.244 164.154 248.349 184.765 214.057C188.979 207.161 192.14 199.657 194.12 191.803C194.918 188.961 195.509 186.055 195.908 183.134C196.1 181.873 196.323 180.707 196.451 179.622C196.578 178.536 196.578 177.578 196.642 176.684C196.77 175.088 196.866 173.683 196.93 172.693C196.946 172.23 196.994 171.783 197.089 171.336C197.121 171.783 197.121 172.246 197.089 172.693C197.089 173.683 197.089 175.024 196.978 176.716C196.978 177.594 196.978 178.584 196.882 179.67C196.786 180.755 196.579 181.921 196.403 183.214C196.1 186.167 195.557 189.089 194.806 191.962C192.923 199.929 189.841 207.544 185.643 214.568C165.001 249.658 122.263 265.048 83.9964 251.159C80.1968 249.818 76.493 248.222 72.901 246.37C69.2771 244.39 65.7808 242.155 62.4602 239.696C59.0917 237.174 55.8828 234.444 52.8815 231.507C49.8801 228.409 47.0863 225.121 44.532 221.656C39.2477 214.552 35.1289 206.65 32.351 198.236C26.508 180.819 26.508 161.965 32.351 144.548C35.1289 136.134 39.2317 128.232 44.532 121.128C47.0863 117.663 49.8801 114.391 52.8655 111.293C55.8828 108.356 59.0757 105.626 62.4442 103.104C68.9737 98.1546 76.2376 94.2752 83.9804 91.5772C98.3006 86.4047 113.722 85.1754 128.681 88.0011C152.58 92.583 173.35 107.206 185.707 128.168C189.905 135.176 192.986 142.807 194.87 150.758C195.621 153.631 196.163 156.569 196.467 159.522C196.642 160.8 196.85 161.981 196.946 163.067C197.041 164.152 196.946 165.126 197.041 166.02C197.041 167.712 197.137 169.053 197.153 170.043C197.169 170.538 197.153 171.017 197.089 171.496Z" fill="#EDF1FA"/>
<path d="M8.30734 358.281C8.30734 358.281 -10.6266 364.811 8.67452 405.265C27.9757 445.719 41.5296 465.93 41.5296 465.93C41.5296 465.93 44.8981 475.302 37.0595 476.531C29.2209 477.76 12.1229 474.551 8.3233 484.002C4.44391 493.805 11.3885 503.335 25.7407 511.924C40.0928 520.513 70.8725 540.469 73.6343 542.257C76.3962 544.045 79.0144 548.419 73.81 550.112C68.6055 551.804 29.8595 554.789 32.3819 573.101C34.9043 591.412 78.8388 608.733 83.5962 610.713C88.3537 612.693 89.4552 614.784 88.9922 617.418C88.5293 620.052 75.4224 619.829 64.4388 621.122C53.4551 622.415 40.9389 625.911 43.2857 636.304C45.6325 646.697 71.3195 669.207 134.954 677.189L164.68 678.946L181.555 654.248C214.442 599.171 212.526 565.086 205.741 556.865C198.956 548.643 188.547 556.338 180.757 564.192C172.966 572.047 165.079 582.52 162.717 581.274C160.354 580.029 159.396 577.874 160.769 572.893C162.142 567.912 175.504 522.621 162.637 509.37C149.769 496.119 123.556 524.824 119.022 527.873C114.488 530.922 112.636 526.149 112.939 522.892C113.242 519.635 116.419 482.981 118.479 466.457C120.538 449.934 117.393 438.455 107.288 435.486C97.5333 432.612 89.535 448.05 83.7399 453.478C77.9448 458.906 72.5647 450.493 72.5647 450.493C72.5647 450.493 65.1252 427.392 45.1057 387.369C25.0861 347.346 7.92419 358.521 7.92419 358.521" fill="#E1E8F8"/>
<path d="M166.116 685.905C151.524 656.403 126.476 603.512 104.748 558.189C83.02 512.866 63.2399 471.98 48.8718 442.35C41.6558 427.599 35.8128 415.641 31.7418 407.34C29.7462 403.237 28.1817 400.028 27.0961 397.761L25.8828 395.35C25.6274 394.792 25.5156 394.488 25.5156 394.488L25.9786 395.302L27.2398 397.745C28.3573 399.948 29.9857 403.125 32.0292 407.196C36.1959 415.402 42.1507 427.327 49.4305 442.079C64.0381 471.661 83.8661 512.594 105.578 557.87C127.29 603.145 152.258 656.084 166.706 685.666" fill="#B8C9EB"/>
<path d="M32.125 489.383C32.8274 489.511 33.5299 489.734 34.1844 490.021C35.4935 490.468 37.3773 491.187 39.6603 492.097C44.2581 493.933 50.5481 496.615 57.4288 499.712L74.9899 507.694L80.338 510.073C81.0085 510.312 81.663 510.648 82.2697 511.031C81.5673 510.903 80.8648 510.695 80.2103 510.408C78.9012 509.945 77.0174 509.227 74.7344 508.285C70.1526 506.417 63.9104 503.655 57.0138 500.558L39.4048 492.735L34.0567 490.389C33.3862 490.133 32.7317 489.782 32.125 489.383Z" fill="#B8C9EB"/>
<path d="M84.3949 509.178C84.1555 509.082 89.1843 495.879 95.5701 479.691C101.956 463.503 107.288 450.444 107.528 450.524C107.767 450.604 102.738 463.822 96.3524 480.026C89.9666 496.23 84.6184 509.273 84.3949 509.178Z" fill="#B8C9EB"/>
<path d="M114.633 580.222C114.984 579.583 115.415 578.977 115.894 578.418L119.55 573.629C122.615 569.638 126.846 564.05 131.3 557.824C135.754 551.598 139.585 545.723 142.331 541.492C143.624 539.512 144.726 537.836 145.524 536.479C145.875 535.841 146.322 535.25 146.817 534.707C146.562 535.394 146.227 536.048 145.844 536.671C145.157 537.916 144.135 539.688 142.826 541.843C140.224 546.17 136.44 552.061 131.986 558.351C127.532 564.641 123.206 570.148 119.997 574.044C118.4 575.975 117.043 577.54 116.102 578.594C115.671 579.2 115.192 579.743 114.633 580.222Z" fill="#B8C9EB"/>
<path d="M63.418 572.717C64.0885 572.669 64.775 572.701 65.4455 572.813L70.9532 573.403C75.583 573.93 81.9688 574.728 89.0251 575.67C96.0815 576.612 102.467 577.522 107.081 578.225L112.541 579.103C113.211 579.167 113.882 579.326 114.521 579.55C113.85 579.598 113.164 579.566 112.493 579.454L107.001 578.863C102.356 578.336 95.9697 577.538 88.9134 576.596C81.857 575.654 75.4712 574.744 70.8575 574.042L65.3976 573.164C64.7271 573.1 64.0566 572.94 63.418 572.717Z" fill="#B8C9EB"/>
<path d="M82.1445 638.842C83.0066 638.81 83.8847 638.842 84.7468 638.969L91.7871 639.704C97.7419 640.358 105.932 641.3 114.984 642.434C124.036 643.567 132.241 644.621 138.164 645.435L145.173 646.457C146.035 646.536 146.897 646.712 147.727 646.952C146.865 646.984 145.987 646.936 145.125 646.808L138.084 646.09C132.13 645.435 123.94 644.493 114.872 643.36C105.804 642.226 97.6302 641.172 91.7073 640.342L84.6989 639.336C83.8368 639.257 82.9747 639.081 82.1445 638.842Z" fill="#B8C9EB"/>
<path d="M146.211 646.314C146.674 645.5 147.217 644.717 147.807 643.983C148.957 642.386 150.442 640.327 152.23 637.821C155.949 632.616 161.074 625.416 166.486 617.29C171.898 609.164 176.655 601.709 180.04 596.265L184.063 589.879C184.526 589.065 185.069 588.298 185.659 587.58C185.324 588.442 184.909 589.288 184.414 590.071C183.552 591.667 182.275 593.902 180.646 596.664C177.454 602.188 172.76 609.723 167.316 617.849C161.872 625.975 156.668 633.143 152.804 638.268C150.873 640.822 149.276 642.865 148.143 644.254C147.568 645.005 146.913 645.691 146.211 646.314Z" fill="#E0E0E0"/>
<path d="M898.968 672.624C855.097 645.772 842.261 591.748 840.952 542.593C840.745 534.387 839.356 525.798 842.788 518.375C846.221 510.951 855.033 505.491 862.584 508.509C868.842 510.999 871.908 517.912 875.675 523.563C880.688 531.099 887.729 537.053 895.982 540.757C901.362 543.152 907.924 544.413 912.889 541.252C919.721 536.942 919.961 527.123 919.418 518.981C918.412 503.799 917.391 488.633 916.385 473.451C915.858 465.309 915.331 456.991 917.391 449.105C919.45 441.218 924.623 433.699 932.238 431.065C939.853 428.43 949.799 432.326 951.826 440.196C952.704 443.469 952.241 446.949 952.672 450.318C953.103 453.686 954.907 457.342 958.18 458.093C961.453 458.843 964.566 456.337 966.897 453.798C974.879 445.081 979.876 434.13 984.57 423.274C989.263 412.418 993.781 401.323 1000.87 391.888C1007.96 382.453 1018.08 374.71 1029.72 373.337C1041.36 371.964 1054.21 378.429 1057.85 389.7C1061.49 400.971 1055.5 413.073 1048.76 422.795C1038.79 437.227 1026.76 450.126 1013.08 461.11C1010.62 463.089 1007.96 465.229 1007.16 468.31C1005.72 473.834 1011.2 478.926 1016.66 480.379C1022.85 481.976 1029.43 481.018 1035.82 481.369C1042.2 481.72 1049.26 484.131 1052.04 489.99C1055.87 498.116 1049.43 507.263 1042.92 513.394C1029.88 525.671 1014.84 535.601 998.427 542.785C992.568 545.339 986.389 547.574 981.808 552.14C977.226 556.706 974.751 564.145 978.024 569.701C981.297 575.257 988.896 576.645 995.09 575.113C1001.28 573.58 1006.71 569.813 1012.56 567.131C1023.49 562.229 1038 562.134 1045.76 571.377C1050.85 577.46 1051.8 586.288 1049.88 594.015C1047.96 601.742 1043.49 608.559 1038.71 614.881C1022.04 637.023 1000.09 655.351 974.672 665.967C949.256 676.584 925.325 680.431 898.952 672.545" fill="#E1E8F8"/>
<path d="M909.781 640.99C915.513 615.782 924.07 588.69 934.015 560.656L941.439 539.903C943.898 533.102 946.34 526.365 949.118 519.915C954.498 507.542 960.565 495.489 967.27 483.787C973.655 472.612 980.041 462.171 986.076 452.481C992.111 442.79 998.017 433.882 1003.64 425.979C1012.53 413.463 1022.41 401.681 1033.17 390.73C1036.97 386.866 1040 383.945 1042.1 382.013L1044.49 379.81C1044.75 379.554 1045.03 379.315 1045.34 379.107C1045.13 379.411 1044.87 379.682 1044.6 379.922L1042.3 382.236C1040.29 384.248 1037.31 387.217 1033.59 391.145C1023.02 402.224 1013.3 414.07 1004.5 426.602C998.895 434.584 993.1 443.445 987.066 453.151C981.031 462.858 974.693 473.298 968.467 484.505C961.826 496.176 955.823 508.197 950.475 520.522C947.713 526.907 945.302 533.628 942.844 540.445L935.42 561.199C925.49 589.217 916.917 616.229 911.122 641.341" fill="#B8C9EB"/>
<path d="M949.548 519.852C949.101 518.75 948.766 517.601 948.542 516.42C947.983 514.2 947.265 510.96 946.451 506.937C944.854 498.954 942.922 487.699 940.895 475.375C938.867 463.05 936.808 451.907 935.052 443.909C934.19 439.917 933.455 436.677 932.913 434.457C932.561 433.308 932.338 432.143 932.242 430.945C932.769 432.015 933.184 433.132 933.471 434.298C934.19 436.485 935.068 439.678 936.09 443.669C938.117 451.651 940.336 462.827 942.364 475.119C944.391 487.412 946.131 498.316 947.488 506.729C948.143 510.529 948.686 513.738 949.085 516.308C949.356 517.473 949.516 518.655 949.548 519.852Z" fill="#B8C9EB"/>
<path d="M1053.09 493.957C1051.74 494.34 1050.35 494.579 1048.94 494.707C1046.28 495.106 1042.41 495.665 1037.64 496.511C1028.06 498.108 1015.03 500.822 1000.73 504.414C986.425 508.006 973.59 511.885 964.426 514.918C959.828 516.403 956.124 517.712 953.57 518.606C952.277 519.149 950.92 519.564 949.547 519.851C950.76 519.133 952.037 518.526 953.362 518.047C955.869 516.994 959.509 515.525 964.091 513.897C973.206 510.592 986.01 506.585 1000.36 502.945C1012.59 499.816 1024.98 497.309 1037.48 495.458C1042.27 494.739 1046.18 494.34 1048.88 494.116C1050.27 493.925 1051.69 493.877 1053.09 493.957Z" fill="#B8C9EB"/>
<path d="M910.945 639.097C910.626 638.73 910.355 638.315 910.147 637.868L908.136 634.18C906.396 630.987 904.001 626.198 901.111 620.435C895.332 608.733 887.861 592.337 879.862 574.137C871.864 555.938 864.552 539.478 859.029 527.681L852.451 513.728L850.679 509.912C850.44 509.481 850.264 509.018 850.152 508.539C850.472 508.906 850.743 509.321 850.951 509.768C851.493 510.774 852.148 511.987 852.962 513.456C854.702 516.649 857.097 521.359 859.986 527.202C865.766 538.904 873.237 555.299 881.235 573.499C889.234 591.698 896.545 608.174 901.989 619.972C904.703 625.703 906.922 630.413 908.567 633.925C909.285 635.441 909.86 636.703 910.339 637.724C910.61 638.155 910.818 638.618 910.945 639.097Z" fill="#E0E0E0"/>
<path d="M1047.41 585.855C1047 586.127 1046.55 586.35 1046.07 586.494L1042.11 588.09L1027.5 593.806C1015.16 598.595 998.192 605.54 979.465 613.155C960.739 620.77 943.689 627.523 931.236 632.105C925.026 634.404 919.965 636.208 916.453 637.389L912.398 638.714C911.935 638.906 911.44 639.017 910.945 639.081C911.36 638.81 911.823 638.586 912.302 638.427L916.261 636.83L930.869 631.099C943.21 626.31 960.164 619.381 978.906 611.75C997.649 604.119 1014.68 597.382 1027.12 592.8C1033.35 590.517 1038.39 588.713 1041.9 587.532L1045.96 586.191C1046.42 586.015 1046.92 585.903 1047.41 585.855Z" fill="#B8C9EB"/>
<path d="M166.835 177.777H915.589C928.44 177.777 938.849 188.186 938.849 201.038V680.422C938.849 693.273 928.44 703.682 915.589 703.682H166.835C153.983 703.682 143.574 693.273 143.574 680.422V201.038C143.574 188.186 153.983 177.777 166.835 177.777Z" fill="#04B8AD"/>
<path d="M112.492 669.725H974.116V687.286C974.116 702.979 961.392 715.703 945.699 715.703H140.909C125.216 715.703 112.492 702.979 112.492 687.286V669.725Z" fill="#04B8AD"/>
<path d="M905.284 198.674H174.918C169.395 198.674 164.918 203.151 164.918 208.674V632.792C164.918 638.315 169.395 642.792 174.918 642.792H905.284C910.807 642.792 915.284 638.315 915.284 632.792V208.674C915.284 203.151 910.807 198.674 905.284 198.674Z" fill="#2A6557"/>
<path d="M462.82 664.793L473.517 681.795H623.967L633.897 664.793H462.82Z" fill="#2A6557"/>
<path d="M185.595 213.715H896.146C899.036 213.715 901.367 216.046 901.367 218.935V636.169C901.367 639.059 899.036 641.39 896.146 641.39H185.595C182.706 641.39 180.375 639.059 180.375 636.169V218.935C180.375 216.062 182.706 213.715 185.595 213.715Z" fill="#EBEBEB"/>
<path d="M880.936 643.543H180.07L181.358 247.207H880.936V643.543Z" fill="#3F9282"/>
<path d="M240.784 230.222C240.784 233.399 238.198 235.985 235.021 235.985C231.844 235.985 229.258 233.399 229.258 230.222C229.258 227.045 231.844 224.459 235.021 224.459C238.198 224.459 240.784 227.045 240.784 230.222Z" fill="#FB6E67"/>
<path d="M205.886 230.222C205.886 233.399 203.3 235.985 200.123 235.985C196.946 235.985 194.359 233.399 194.359 230.222C194.359 227.045 196.946 224.459 200.123 224.459C203.3 224.459 205.886 227.045 205.886 230.222Z" fill="#207FA8"/>
<path d="M223.335 230.222C223.335 233.399 220.749 235.985 217.572 235.985C214.395 235.985 211.809 233.399 211.809 230.222C211.809 227.045 214.395 224.459 217.572 224.459H217.588C220.765 224.475 223.335 227.045 223.335 230.222Z" fill="#FFCB67"/>
<path d="M906.249 664.919C906.249 665.207 741.814 665.43 539.064 665.43C336.314 665.43 171.879 665.207 171.879 664.919C171.879 664.632 336.314 664.393 539.144 664.393C741.974 664.393 906.249 664.632 906.249 664.919Z" fill="#2D5CC9"/>
<path d="M901.494 571.59H180.375V643.319H901.494V571.59Z" fill="#D9D9E8"/>
<path opacity="0.8" d="M901.494 571.59H180.375V643.319H901.494V571.59Z" fill="white"/>
<path d="M617.594 634.443C632.3 634.443 644.223 622.521 644.223 607.814C644.223 593.108 632.3 581.186 617.594 581.186C602.887 581.186 590.965 593.108 590.965 607.814C590.965 622.521 602.887 634.443 617.594 634.443Z" fill="#4B7FFB"/>
<path d="M617.563 613.739C614.913 613.739 612.773 611.599 612.773 608.949V598.492C612.773 595.842 614.913 593.703 617.563 593.703C620.213 593.703 622.352 595.842 622.352 598.492V608.949C622.352 611.599 620.213 613.739 617.563 613.739ZM617.563 594.677C615.471 594.693 613.779 596.385 613.763 598.477V608.933C613.763 611.025 615.471 612.733 617.563 612.733C619.654 612.733 621.362 611.025 621.362 608.933V598.477C621.346 596.385 619.654 594.693 617.563 594.677Z" fill="white"/>
<path d="M617.564 617.137C615.042 617.281 612.568 616.307 610.827 614.471C607.762 611.087 608.257 605.787 608.273 605.563C608.257 605.276 608.481 605.036 608.752 605.02C609.039 605.004 609.279 605.228 609.295 605.499C609.295 605.547 609.295 605.595 609.279 605.643C609.279 605.643 608.816 610.736 611.578 613.785C613.142 615.397 615.329 616.243 617.564 616.116C619.831 616.227 622.034 615.381 623.631 613.785C626.584 610.72 626.409 605.659 626.409 605.611C626.393 605.34 626.6 605.1 626.872 605.084H626.888C627.159 605.084 627.383 605.308 627.415 605.579C627.415 605.803 627.59 611.119 624.365 614.487C622.561 616.291 620.103 617.249 617.564 617.137Z" fill="white"/>
<path d="M617.562 624.465C617.29 624.465 617.067 624.242 617.051 623.97V616.61C617.051 616.323 617.274 616.1 617.562 616.1C617.833 616.1 618.057 616.323 618.057 616.595V616.61V623.97C618.057 624.242 617.833 624.465 617.562 624.465Z" fill="white"/>
<path d="M476.164 634.428C490.871 634.428 502.793 622.506 502.793 607.799C502.793 593.092 490.871 581.17 476.164 581.17C461.457 581.17 449.535 593.092 449.535 607.799C449.535 622.506 461.457 634.428 476.164 634.428Z" fill="#FFB167"/>
<path d="M467.673 610.386C466.22 610.386 465.039 609.204 465.039 607.751C465.039 606.299 466.22 605.117 467.673 605.117C469.126 605.117 470.307 606.299 470.307 607.751C470.323 609.204 469.158 610.37 467.705 610.386C467.689 610.386 467.689 610.386 467.673 610.386Z" fill="white"/>
<path d="M475.845 610.385C474.393 610.497 473.131 609.412 473.02 607.959C472.908 606.506 473.993 605.245 475.446 605.133C475.59 605.117 475.718 605.117 475.861 605.133C477.314 605.245 478.4 606.506 478.288 607.959C478.16 609.252 477.139 610.29 475.845 610.385Z" fill="white"/>
<path d="M484.58 610.386C483.127 610.386 481.945 609.204 481.945 607.751C481.945 606.299 483.127 605.117 484.58 605.117C486.032 605.117 487.214 606.299 487.214 607.751C487.214 609.204 486.032 610.386 484.58 610.386Z" fill="white"/>
<path d="M546.838 633.932C561.298 633.932 573.02 622.21 573.02 607.75C573.02 593.29 561.298 581.568 546.838 581.568C532.378 581.568 520.656 593.29 520.656 607.75C520.656 622.21 532.378 633.932 546.838 633.932Z" fill="#F57E71"/>
<path d="M544.508 600.517C542.544 598.969 539.702 599.304 538.154 601.252C537.994 601.459 537.85 601.667 537.739 601.89C537.1 603.024 537.371 604.461 538.377 605.291C540.772 607.654 545.833 612.395 547.956 614.439C549.153 615.588 550.798 616.115 552.442 615.891C553.735 615.716 554.885 614.997 555.635 613.928C558.109 610.527 552.171 607.877 552.171 607.877L549.584 610.607L543.646 604.764L546.296 601.842L544.508 600.517Z" fill="white"/>
<path d="M833.991 316.399C819.001 316.399 806.852 304.25 806.852 289.259C806.852 274.268 819.001 262.119 833.991 262.119C848.982 262.119 861.131 274.268 861.131 289.259C861.131 304.25 848.982 316.399 833.991 316.399Z" fill="#DCE6FF"/>
<path d="M832.985 289.479C835.268 288.745 836.529 286.303 835.811 284.02C835.076 281.737 832.634 280.475 830.351 281.194C828.068 281.912 826.807 284.371 827.525 286.654C827.956 287.995 829.01 289.048 830.351 289.479C826.679 290.038 823.965 293.199 823.965 296.919H839.067C839.083 293.295 836.529 290.182 832.985 289.479Z" fill="#0038B2"/>
<path d="M841.509 290.758C841.174 290.774 840.903 290.503 840.887 290.167C840.887 290.152 840.887 290.152 840.887 290.136V283.191C840.887 282.84 841.158 282.568 841.509 282.568C841.86 282.568 842.132 282.84 842.132 283.191V290.136C842.148 290.471 841.876 290.742 841.541 290.758C841.525 290.758 841.525 290.758 841.509 290.758Z" fill="#0038B2"/>
<path d="M844.993 287.294H838.033C837.698 287.278 837.426 287.007 837.41 286.671C837.41 286.32 837.682 286.049 838.033 286.049H844.993C845.345 286.049 845.616 286.32 845.616 286.671C845.6 287.007 845.329 287.294 844.993 287.294Z" fill="#0038B2"/>
<path d="M354.197 643.448L180.375 642.617V247.111H354.197V643.448Z" fill="#FAFAFA"/>
<path d="M354.196 640.239C353.957 640.239 353.781 552.226 353.781 443.683C353.781 335.14 353.957 247.111 354.196 247.111C354.436 247.111 354.611 335.108 354.611 443.683C354.611 552.258 354.42 640.239 354.196 640.239Z" fill="#D1D9EE"/>
<path d="M348.878 567.394C348.878 567.617 311.888 567.809 266.277 567.809C220.666 567.809 183.645 567.617 183.645 567.394C183.645 567.17 220.634 566.963 266.277 566.963C311.92 566.963 348.878 567.154 348.878 567.394Z" fill="#D1D9EE"/>
<path d="M289.94 341.669H212.416L212.192 307.952C212.064 289.209 227.151 273.899 245.893 273.771C245.973 273.771 246.053 273.771 246.133 273.771H289.94C308.698 273.771 323.896 288.97 323.896 307.728C323.88 326.471 308.682 341.669 289.94 341.669Z" fill="#FAF2EA"/>
<path d="M326.208 625.79H203.281C194.979 625.774 188.258 619.053 188.242 610.752V610.097C188.258 601.796 194.979 595.075 203.281 595.059H326.208C334.51 595.075 341.231 601.796 341.247 610.097V610.752C341.231 619.053 334.51 625.79 326.208 625.79ZM203.281 596C195.506 596.016 189.2 602.322 189.184 610.097V610.752C189.2 618.527 195.506 624.833 203.281 624.848H326.208C333.983 624.833 340.289 618.527 340.305 610.752V610.097C340.289 602.322 333.983 596.016 326.208 596H203.281Z" fill="#D1D9EE"/>
<path d="M334.591 609.953C334.607 614.184 331.191 617.6 326.96 617.616C322.729 617.632 319.313 614.216 319.297 609.985C319.281 605.755 322.697 602.338 326.928 602.322H326.944C331.159 602.306 334.575 605.723 334.591 609.937V609.953Z" fill="#F57E71"/>
<path d="M326.753 614.679C326.657 614.663 326.578 614.599 326.546 614.503L325.556 610.879L322.171 609.682C322.076 609.65 322.012 609.554 322.012 609.459C322.012 609.363 322.076 609.283 322.171 609.251L330.154 606.393C330.233 606.345 330.329 606.345 330.409 606.393C330.473 606.473 330.473 606.569 330.409 606.649L326.945 614.471C326.945 614.583 326.865 614.663 326.753 614.679ZM322.938 609.459L325.827 610.48C325.891 610.512 325.939 610.576 325.971 610.64L326.801 613.737L329.77 607.016L322.938 609.459Z" fill="white"/>
<path d="M325.747 610.945C325.684 610.945 325.62 610.913 325.572 610.865C325.476 610.769 325.476 610.625 325.572 610.53L330.042 606.443C330.154 606.363 330.297 606.395 330.377 606.507C330.441 606.602 330.425 606.714 330.361 606.794L325.891 610.881C325.859 610.929 325.795 610.945 325.747 610.945Z" fill="white"/>
<path d="M203.17 613.051C202.58 613.754 201.526 613.849 200.823 613.259C200.121 612.668 200.025 611.614 200.616 610.912L204.064 606.793C204.415 606.314 205.086 606.218 205.565 606.57C205.597 606.602 205.629 606.618 205.661 606.649C206.108 607.033 206.172 607.703 205.788 608.166L202.867 611.662C202.643 611.838 202.324 611.838 202.101 611.662C201.877 611.471 201.829 611.151 201.957 610.896L204.192 608.198L203.889 607.943L201.733 610.529L201.638 610.641C201.382 611.072 201.462 611.614 201.845 611.934C202.212 612.253 202.771 612.253 203.138 611.934L205.996 608.517C206.491 607.895 206.395 606.985 205.788 606.474C205.182 605.963 204.272 606.027 203.729 606.617L200.137 610.928C199.419 611.806 199.546 613.115 200.424 613.834C201.302 614.552 202.611 614.424 203.33 613.546L206.219 610.066L205.916 609.81L203.17 613.051Z" fill="#D1D9EE"/>
<path d="M299.564 292.402C299.564 292.546 284.909 292.657 266.837 292.657C248.765 292.657 234.109 292.546 234.109 292.402C234.109 292.258 248.749 292.146 266.837 292.146C284.925 292.146 299.564 292.258 299.564 292.402Z" fill="#FFCB67"/>
<path d="M299.564 300.496C299.564 300.639 284.909 300.751 266.837 300.751C248.765 300.751 234.109 300.639 234.109 300.496C234.109 300.352 248.749 300.24 266.837 300.24C284.925 300.24 299.564 300.352 299.564 300.496Z" fill="#FFCB67"/>
<path d="M299.564 308.589C299.564 308.733 284.909 308.845 266.837 308.845C248.765 308.845 234.109 308.733 234.109 308.589C234.109 308.446 248.749 308.334 266.837 308.334C284.925 308.334 299.564 308.446 299.564 308.589Z" fill="#FFCB67"/>
<path d="M299.564 316.683C299.564 316.827 284.909 316.939 266.837 316.939C248.765 316.939 234.109 316.827 234.109 316.683C234.109 316.539 248.749 316.428 266.837 316.428C284.925 316.428 299.564 316.539 299.564 316.683Z" fill="#FFCB67"/>
<path d="M266.948 324.779C266.517 324.859 266.086 324.891 265.655 324.875L262.143 324.971C259.158 324.971 255.055 324.971 250.521 324.971C245.987 324.971 241.884 324.971 238.915 324.971L235.387 324.875C234.956 324.891 234.524 324.859 234.109 324.779C234.524 324.699 234.956 324.667 235.387 324.683L238.915 324.604C241.884 324.604 245.987 324.604 250.521 324.604C255.055 324.604 259.158 324.604 262.143 324.604L265.655 324.683C266.086 324.683 266.517 324.715 266.948 324.779Z" fill="#FFCB67"/>
<path d="M229.561 366.606H277.455C287.049 366.558 294.856 374.301 294.904 383.895C294.904 383.943 294.904 384.007 294.904 384.055V386.178C294.904 395.773 287.129 403.548 277.535 403.548H212.192V384.055C212.144 374.46 219.887 366.654 229.481 366.606C229.513 366.606 229.529 366.606 229.561 366.606Z" fill="#D7F7FF"/>
<path d="M282.324 380.607C282.324 380.751 269.441 380.878 253.588 380.878C237.735 380.878 224.852 380.751 224.852 380.607C224.852 380.463 237.735 380.352 253.588 380.352C269.441 380.352 282.324 380.479 282.324 380.607Z" fill="#659AA7"/>
<path d="M259.908 389.595C259.461 389.659 258.998 389.691 258.535 389.691L254.767 389.771C251.574 389.771 247.184 389.851 242.331 389.851C237.478 389.851 233.087 389.851 229.91 389.771L226.143 389.691C225.68 389.707 225.217 389.659 224.754 389.595C225.217 389.515 225.68 389.468 226.143 389.484H229.91C233.103 389.484 237.478 389.484 242.331 389.484C247.184 389.484 251.59 389.484 254.767 389.484H258.535C258.998 389.484 259.461 389.515 259.908 389.595Z" fill="#659AA7"/>
<path d="M327.152 472.323H226.287C216.693 472.323 208.918 464.548 208.918 454.954V452.83C208.918 443.236 216.693 435.461 226.287 435.461H309.782C319.377 435.461 327.152 443.236 327.152 452.83V472.323Z" fill="#F9EDEB"/>
<path d="M307.992 449.08C307.992 449.223 289.825 449.335 267.41 449.335C244.996 449.335 226.812 449.223 226.812 449.08C226.812 448.936 244.996 448.824 267.41 448.824C289.825 448.824 307.992 448.936 307.992 449.08Z" fill="#F57E71"/>
<path d="M307.992 457.828C307.992 457.971 289.825 458.083 267.41 458.083C244.996 458.083 226.812 457.971 226.812 457.828C226.812 457.684 244.996 457.572 267.41 457.572C289.825 457.572 307.992 457.684 307.992 457.828Z" fill="#F57E71"/>
<path d="M226.541 504.303H274.435C284.03 504.303 291.804 512.077 291.804 521.672V523.796C291.804 533.39 284.03 541.165 274.435 541.165H209.172V521.688C209.156 512.093 216.931 504.319 226.541 504.303Z" fill="#EEE7FF"/>
<path d="M280.983 517.712C280.983 517.856 267.349 517.968 250.523 517.968C233.696 517.968 220.078 517.856 220.078 517.712C220.078 517.569 233.712 517.457 250.523 517.457C267.333 517.457 280.983 517.569 280.983 517.712Z" fill="#B8A3EB"/>
<path d="M259.238 526.459C258.711 526.555 258.168 526.602 257.642 526.571L253.443 526.65C249.899 526.65 244.998 526.73 239.602 526.73C234.206 526.73 229.288 526.73 225.744 526.65L221.546 526.571C221.019 526.602 220.476 526.555 219.949 526.459C220.476 526.379 221.019 526.347 221.546 526.363L225.744 526.283C229.288 526.283 234.19 526.283 239.602 526.283C245.014 526.283 249.899 526.283 253.443 526.283L257.642 526.363C258.168 526.347 258.711 526.379 259.238 526.459Z" fill="#B8A3EB"/>
<path d="M1085.63 252.691C1083.87 238.466 1071.85 225.216 1057.51 225.2C1049.07 225.2 1041.02 229.622 1035.16 235.8C1033.1 237.891 1031.22 240.127 1029.51 242.505C1028.3 239.839 1026.88 237.285 1025.28 234.826C1020.83 227.626 1013.82 221.703 1005.52 220.043C991.485 217.233 977.085 227.866 972.551 241.452C968.017 255.037 971.8 270.3 979.24 282.528C986.679 294.757 999.579 310.738 1023.19 318.72C1039.47 316.645 1061.28 302.197 1070.99 291.58C1080.69 280.964 1087.4 266.899 1085.63 252.691Z" fill="#F57E71"/>
<path d="M1080.47 278.218H1080.06L1078.68 278.123L1073.38 277.691L1053.89 275.903L1054.24 275.696L1046.13 296.849L1045.64 298.126L1045.32 296.801C1042.84 286.536 1040.08 275.025 1037.16 262.908C1036.27 259.141 1035.37 255.453 1034.51 251.845L1035.34 252.004L1020.41 272.423L1020.27 272.615H1020.03L985.865 269.055L976.175 267.969L973.605 267.65C973.301 267.618 973.014 267.57 972.727 267.506C973.03 267.474 973.317 267.474 973.621 267.506L976.191 267.698L985.913 268.544L1020.17 271.737L1019.79 271.912L1034.59 251.414L1035.18 250.6L1035.42 251.589C1036.28 255.197 1037.16 258.885 1038.07 262.637L1046.15 296.546H1045.33L1053.62 275.44L1053.71 275.201H1053.97L1073.42 277.292L1078.7 277.899L1080.07 278.091L1080.47 278.218Z" fill="#FAFAFA"/>
<path d="M122.056 302.962C118.863 293.782 108.981 286.694 99.4662 288.722C93.8307 290.158 89.0254 293.862 86.1837 298.939C85.1141 300.615 84.1881 302.371 83.3899 304.191C82.1926 302.595 80.8835 301.094 79.4786 299.689C75.5673 295.379 70.0595 292.856 64.2484 292.697C54.526 292.84 46.4639 301.956 45.3942 311.615C44.3246 321.273 49.0182 330.884 55.7073 337.956C64.5996 347.854 76.7806 354.176 89.9992 355.725C100.52 352.021 112.956 339.313 117.889 330.932C122.822 322.55 125.265 312.158 122.056 302.962Z" fill="#F57E71"/>
<path d="M122.281 320.668H121.961L121.036 320.812L117.443 321.275L104.257 322.871L104.448 322.68C103.762 327.07 102.964 332.258 102.086 337.878L101.942 338.804L101.543 337.958L91.2776 316.613L87.941 309.653H88.5157L81.5551 325.362V325.505H81.3955L58.1511 328.012L51.5577 328.682L49.8176 328.826C49.6101 328.842 49.4185 328.842 49.2109 328.826C49.4025 328.762 49.5941 328.73 49.8016 328.714L51.5418 328.475L58.1032 327.645L81.3316 324.915L81.0922 325.074L88.0048 309.349L88.2762 308.727L88.5795 309.349L91.8523 316.406C95.5082 324.053 98.9725 331.3 102.054 337.782L101.511 337.862L104.001 322.664V322.488H104.161L117.38 321.099L120.988 320.748H121.93L122.281 320.668Z" fill="#FAFAFA"/>
<path d="M694.558 46.3809H696.091C699.124 46.3809 701.583 48.8394 701.583 51.8727V112.554C701.583 115.587 699.124 118.046 696.091 118.046H694.558C691.525 118.046 689.066 115.587 689.066 112.554V51.8727C689.066 48.8394 691.525 46.3809 694.558 46.3809Z" fill="#EDF1FA"/>
<path d="M694.558 67.791H696.091C699.124 67.791 701.583 70.2496 701.583 73.2828V112.54C701.583 115.573 699.124 118.032 696.091 118.032H694.558C691.525 118.032 689.066 115.573 689.066 112.54V73.2828C689.066 70.2496 691.525 67.791 694.558 67.791Z" fill="#FFCB67"/>
<path d="M715.074 46.3809H716.606C719.64 46.3809 722.098 48.8394 722.098 51.8727V112.554C722.098 115.587 719.64 118.046 716.606 118.046H715.074C712.041 118.046 709.582 115.587 709.582 112.554V51.8727C709.582 48.8394 712.041 46.3809 715.074 46.3809Z" fill="#EDF1FA"/>
<path d="M715.074 78.9023H716.606C719.64 78.9023 722.098 81.3609 722.098 84.3942V112.556C722.098 115.589 719.64 118.047 716.606 118.047H715.074C712.041 118.047 709.582 115.589 709.582 112.556V84.3942C709.582 81.3609 712.041 78.9023 715.074 78.9023Z" fill="#FFCB67"/>
<path d="M738.269 46.3809H739.802C742.835 46.3809 745.294 48.8394 745.294 51.8727V112.554C745.294 115.587 742.835 118.046 739.802 118.046H738.269C735.236 118.046 732.777 115.587 732.777 112.554V51.8727C732.777 48.8394 735.236 46.3809 738.269 46.3809Z" fill="#EDF1FA"/>
<path d="M738.269 59.3281H739.802C742.835 59.3281 745.294 61.7867 745.294 64.8199V112.554C745.294 115.587 742.835 118.046 739.802 118.046H738.269C735.236 118.046 732.777 115.587 732.777 112.554V64.8199C732.777 61.7867 735.236 59.3281 738.269 59.3281Z" fill="#FFCB67"/>
<path d="M717.197 0.0359203C717.644 -0.0119734 718.107 -0.0119734 718.554 0.0359203L722.529 0.147672C723.407 0.147672 724.381 0.147672 725.466 0.291353L728.978 0.77029L733.065 1.36098L737.647 2.49446C745.518 4.49003 753.005 7.77873 759.822 12.2009C768.906 18.028 776.712 25.6271 782.779 34.5513C792.198 48.4405 796.844 65.0117 795.998 81.7745C795.87 83.5785 795.918 85.4304 795.646 87.2663C795.375 89.1022 795.088 90.9222 794.816 92.79C793.411 100.389 790.905 107.749 787.361 114.614C783.577 121.814 778.788 128.423 773.104 134.234C767.054 140.173 760.125 145.154 752.558 148.985C744.735 153.008 736.258 155.611 727.526 156.68C725.307 157.015 723.072 157.207 720.836 157.239C718.601 157.415 716.35 157.447 714.099 157.367C709.55 157.175 705.032 156.6 700.577 155.659C690.967 153.583 681.835 149.736 673.645 144.324H674.475L647.048 155.339L645.452 155.994L645.819 154.286C648.597 144.228 651.263 134.458 653.801 124.975L653.945 125.693C646.49 115.827 641.477 104.332 639.305 92.1674C638.252 86.516 637.901 80.7528 638.236 75.0055C638.3 72.2436 638.555 69.4977 639.018 66.7678C639.226 65.4108 639.433 64.0698 639.641 62.7447C639.896 61.4356 640.295 60.1585 640.599 58.8653C645.244 40.8413 656.148 25.0524 671.362 14.3402C676.966 10.3171 683.08 7.10822 689.562 4.76143L693.713 3.26076L697.608 2.27096L701.168 1.39291C702.302 1.1694 703.419 1.05765 704.441 0.898007C706.516 0.626609 708.336 0.275389 709.933 0.195566L713.972 0.0518848H716.43C716.702 0.0199557 716.989 0.0199557 717.26 0.0518848C716.989 0.115743 716.718 0.147672 716.43 0.163637L713.972 0.355212L709.981 0.626609C708.384 0.754326 706.58 1.15344 704.537 1.45677C674.14 6.69314 649.682 29.3788 642.179 59.2964C641.876 60.5576 641.493 61.8188 641.253 63.1119C641.014 64.405 640.87 65.7301 640.662 67.0552C640.215 69.7372 639.976 72.4352 639.944 75.1492C639.625 80.8007 639.992 86.4681 641.03 92.0237C643.185 103.917 648.118 115.14 655.398 124.783L655.653 125.118L655.541 125.517L647.559 154.844L646.394 153.807L673.805 142.775L674.236 142.599L674.619 142.855C682.633 148.139 691.557 151.891 700.945 153.918C705.303 154.828 709.725 155.355 714.163 155.515C716.366 155.595 718.569 155.547 720.757 155.387C722.944 155.355 725.131 155.164 727.286 154.844C735.827 153.807 744.113 151.268 751.776 147.357C759.183 143.621 765.968 138.768 771.907 132.989C777.463 127.305 782.188 120.856 785.908 113.831C789.404 107.11 791.879 99.9102 793.284 92.4707C793.555 90.6508 793.842 88.8468 794.114 87.0588C794.385 85.2707 794.353 83.4508 794.481 81.6787C795.375 65.2192 790.889 48.9194 781.709 35.2218C775.818 26.3934 768.219 18.8422 759.359 13.0151C752.67 8.57696 745.294 5.25633 737.535 3.16498L733.001 1.96763L728.835 1.26519L725.354 0.690467C724.285 0.578715 723.311 0.546786 722.433 0.482928L718.49 0.195566C718.059 0.179601 717.628 0.131708 717.197 0.0359203Z" fill="#EDF1FA"/>
<path d="M640.025 531.048L646.922 537.944C647.672 538.679 648.678 539.094 649.732 539.11C651.935 539.126 653.707 537.354 653.723 535.151C653.723 535.135 653.723 535.135 653.723 535.119C653.707 534.065 653.292 533.059 652.557 532.309L645.661 525.412C644.144 523.864 641.638 523.832 640.089 525.348C640.073 525.364 640.057 525.38 640.025 525.412C639.275 526.162 638.844 527.168 638.844 528.222C638.86 529.276 639.291 530.297 640.025 531.048Z" fill="#FAFAFA"/>
<path d="M665.055 427.04C659.915 427.599 654.742 427.599 649.602 427.04C654.742 426.481 659.915 426.481 665.055 427.04Z" fill="#455A64"/>
<path d="M719.015 249.13C716.285 240.845 721.219 211.135 714.721 211.087C706.419 211.007 708.798 244.612 708.782 247.678C708.766 250.743 704.424 250.647 704.583 247.933C704.807 244.038 706.18 205.643 697.814 206.313C693.201 206.681 693.791 215.062 693.791 215.062C693.791 215.062 696.362 253.473 692.434 253.664C688.507 253.856 687.102 231.442 686.783 223.555C686.464 216.004 683.287 213.003 679.806 215.573C676.326 218.143 677.029 240.845 677.22 248.428C677.412 256.011 678.306 276.781 669.541 266.675C660.777 256.57 650.384 252.02 646.68 252.738C642.976 253.457 642.849 258.805 646.6 260.545C649.633 261.95 654.008 265.845 657.169 268.91C659.611 271.561 661.767 274.466 663.555 277.595C666.013 281.522 667.801 285.849 668.839 290.367C670.595 297.567 675.352 303.649 681.914 307.098L681.499 321.178L721.969 317.666L722.751 291.037C723.166 270.682 726.726 256.985 728.866 244.884C732.298 225.583 729.807 224.992 727.493 225.104C722.448 225.279 721.697 257.208 719.015 249.13Z" fill="#FCC6AB"/>
<path d="M719.017 275.248C717.134 275.599 715.282 276.062 713.462 276.637C709.151 278.234 705.463 281.187 702.957 285.05C702.207 286.232 701.584 287.477 701.089 288.786L700.85 289.393L700.355 288.978C697.545 286.647 694.384 284.779 690.968 283.47C688.413 282.48 686.785 282.145 686.817 282.001C688.318 282.065 689.786 282.368 691.175 282.911C694.735 284.061 698.056 285.881 700.946 288.259L700.211 288.467C700.722 287.094 701.361 285.785 702.143 284.54C703.58 282.336 705.4 280.421 707.539 278.872C709.279 277.627 711.211 276.653 713.238 275.999C714.611 275.568 716.016 275.28 717.453 275.184C717.98 275.136 718.506 275.152 719.017 275.248Z" fill="#BF9382"/>
<path d="M713.383 303.713C710.318 305.246 706.981 306.188 703.565 306.459C700.18 307.034 696.716 306.954 693.363 306.22C693.363 305.933 697.913 306.22 703.437 305.501C708.961 304.783 713.303 303.442 713.383 303.713Z" fill="#BF9382"/>
<path d="M604.758 304.928C604.758 304.928 625.847 315.704 636.942 331.221C648.038 346.739 681.547 394.856 681.547 394.856L676.758 321.834L728.515 315.129C728.515 315.129 743.57 388.678 747.098 414.109C750.387 437.913 749.014 461.333 725.769 474.104C698.342 489.175 667.195 468.82 656.834 461.093C643.967 451.514 620.211 435.853 620.211 435.853L604.758 304.928Z" fill="white"/>
<path d="M582.203 295.809L566.098 281.073L498.825 274.408L491.074 287.89L514.587 429.081L503.023 571.708H591.412L582.203 295.809Z" fill="#FFCB67"/>
<g opacity="0.3">
<path opacity="0.3" d="M507.406 537.786C509.625 535.424 513.265 532.151 516.506 532.087C539.751 531.576 563.49 529.245 586.75 528.734L587.644 571.711L576.325 566.411C575.687 561.621 574.873 555.699 570.419 553.639C567.896 552.442 564.943 552.905 562.213 553.448C553.815 555.044 545.482 557.279 536.941 557.806C528.4 558.333 519.46 557.103 512.292 552.426C509.737 550.925 507.694 548.706 506.401 546.04C505.107 543.326 505.507 540.117 507.406 537.786Z" fill="black"/>
</g>
<path d="M563.984 279.318L605.333 306.075L614.081 334.779L622.447 424.277L613.219 515.865L629.152 571.709H587.612L587.532 549.678L583.094 394.598L578.752 295.81L563.984 279.318Z" fill="white"/>
<path d="M586.254 415.975C586.509 415.607 586.733 415.224 586.94 414.825C587.387 413.995 588.01 412.862 588.776 411.425C589.542 409.988 590.277 408.024 591.25 405.837C591.697 404.736 592.081 403.522 592.528 402.245C592.975 400.968 593.47 399.627 593.837 398.174C597.317 386.68 599.632 370.092 599.137 351.781C599.137 350.36 599.041 348.955 598.945 347.566V347.327L598.722 347.231L592.24 344.501L592.336 345.172L598.802 339.983L598.945 339.872V339.712C599.009 333.422 598.003 327.164 595.992 321.193C594.395 315.781 592.591 311.119 591.027 307.288C589.462 303.456 588.089 300.455 587.116 298.412C586.637 297.39 586.254 296.624 585.982 296.097C585.854 295.825 585.711 295.554 585.535 295.314C585.615 295.602 585.727 295.873 585.854 296.145L586.892 298.523C587.786 300.583 589.079 303.616 590.58 307.463C592.081 311.311 593.773 315.989 595.369 321.385C597.301 327.276 598.259 333.454 598.179 339.648L598.323 339.377L591.841 344.565L591.33 344.98L591.937 345.236L598.403 347.966L598.163 347.63C598.259 348.987 598.307 350.392 598.355 351.797C598.85 370.029 596.646 386.552 593.31 398.094C592.959 399.547 592.48 400.888 592.065 402.165C591.65 403.442 591.282 404.656 590.851 405.757C589.925 407.944 589.255 409.876 588.505 411.377C587.754 412.877 587.227 413.979 586.812 414.825C586.589 415.192 586.413 415.576 586.254 415.975Z" fill="#EDF1FA"/>
<path d="M615.294 474.247C615.438 473.848 615.55 473.449 615.645 473.034C615.869 472.172 616.156 471.006 616.523 469.554C616.891 468.101 617.338 466.169 617.769 463.998C618.2 461.827 618.758 459.352 619.205 456.59C619.652 453.828 620.211 450.811 620.626 447.554C621.041 444.298 621.456 440.801 621.84 437.13C622.51 429.77 622.957 421.644 622.957 413.103C622.957 404.562 622.446 396.452 621.76 389.156C621.345 385.484 620.993 381.988 620.483 378.731C619.972 375.474 619.541 372.457 619.046 369.695C618.551 366.933 618.024 364.475 617.577 362.304C617.13 360.132 616.699 358.265 616.316 356.748C615.933 355.231 615.645 354.13 615.422 353.268C615.342 352.853 615.214 352.453 615.055 352.07C615.103 352.485 615.166 352.9 615.262 353.3C615.454 354.178 615.693 355.359 616.013 356.828C616.332 358.296 616.747 360.212 617.146 362.399C617.545 364.587 618.072 367.045 618.487 369.807C618.902 372.569 619.429 375.57 619.828 378.827C620.227 382.084 620.642 385.548 621.025 389.22C621.664 396.564 622.127 404.658 622.159 413.167C622.191 421.676 621.728 429.77 621.105 437.114C620.738 440.785 620.435 444.266 619.956 447.522C619.477 450.779 619.094 453.797 618.647 456.542C618.2 459.288 617.721 461.779 617.338 463.95C616.954 466.121 616.555 468.005 616.22 469.538C615.885 471.07 615.677 472.172 615.486 473.05C615.374 473.449 615.31 473.848 615.294 474.247Z" fill="#EDF1FA"/>
<path d="M605.285 549.152C605.716 550.461 606.323 551.707 607.073 552.872C608.733 555.762 610.633 558.508 612.741 561.078C614.848 563.664 617.179 566.059 619.685 568.262C620.675 569.236 621.793 570.066 622.99 570.752C622.08 569.715 621.106 568.757 620.068 567.847C617.706 565.548 615.471 563.121 613.363 560.583C611.288 558.029 609.34 555.363 607.568 552.601C606.882 551.403 606.115 550.254 605.285 549.152Z" fill="#EDF1FA"/>
<g opacity="0.3">
<path opacity="0.3" d="M584.644 474.216C580.27 471.933 574.922 473.13 570.276 474.902C565.631 476.674 561.097 479.053 556.164 479.005C549.459 479.005 539.96 476.498 536.463 470.799C532.616 464.27 529.758 457.213 527.986 449.838C522.654 425.3 521.441 403.764 516.109 379.21C513.203 365.864 509.515 350.474 504.566 337.703C499.777 325.362 495.307 312.59 491.539 299.898C492.21 328.635 492.88 357.594 497.318 386.107C500.192 404.418 504.598 422.458 507.009 440.818C509.068 456.543 509.643 472.427 510.202 488.28L525.16 506.576L566.397 507.406L587.933 479.627L584.644 474.216Z" fill="black"/>
</g>
<path d="M435.181 303.697C419.376 309.827 407.642 323.397 403.891 339.937C391.789 393.322 371.067 464.317 370.748 487.226C368.794 517.991 379.68 536.428 399.74 540.052C412.911 542.958 532.246 536.428 532.246 536.428L537.897 486.619L441.168 477.727L454.402 403.763L441.296 301.318L435.181 303.697Z" fill="white"/>
<path d="M441.331 301.318L468.071 290.398L498.612 273.891L498.899 274.785C495.451 280.692 491.779 291.595 493.072 298.316L516.508 420.637L511.192 510.038L503.513 571.742H426.516L454.438 506.015L440.692 382.577L441.331 301.318Z" fill="white"/>
<path d="M455.22 396.291C455.108 396.546 455.028 396.818 454.996 397.105C454.885 397.744 454.725 398.526 454.533 399.484C454.134 401.655 453.592 404.609 452.937 408.217C451.628 415.704 449.872 425.857 447.908 437.08C445.945 448.304 444.348 458.489 443.119 465.992C442.56 469.616 442.097 472.586 441.746 474.773L441.427 477.168C441.379 477.455 441.379 477.726 441.427 478.014C441.522 477.742 441.586 477.471 441.634 477.183C441.778 476.561 441.921 475.779 442.129 474.821C442.528 472.65 443.071 469.696 443.725 466.088C445.066 458.712 446.918 448.527 448.786 437.224C450.654 425.921 452.394 415.72 453.576 408.312C454.134 404.688 454.597 401.719 454.933 399.532C455.06 398.558 455.156 397.776 455.236 397.137C455.252 396.85 455.252 396.578 455.22 396.291Z" fill="#EDF1FA"/>
<path d="M483.953 282.512C483.953 282.512 483.953 282.607 483.841 282.799C483.729 282.991 483.697 283.342 483.585 283.693C483.394 284.491 483.043 285.641 482.739 287.173C481.781 291.516 481.111 295.922 480.696 300.344C480.073 307.017 479.898 313.722 480.185 320.428C480.44 328.059 481.255 336.504 482.404 345.444V345.731H482.676L491.424 347.328L491.121 346.785C490.626 348.126 490.099 349.579 489.7 351.064C487.289 360.85 487.64 371.115 490.706 380.726C493.148 388.516 496.597 395.94 500.971 402.837C504.611 408.744 507.915 413.293 510.182 416.454L512.833 420.046L513.535 420.972C513.695 421.164 513.79 421.276 513.806 421.26C513.743 421.148 513.679 421.036 513.599 420.924C513.439 420.653 513.216 420.35 512.96 419.951L510.438 416.263C508.251 413.07 505.026 408.472 501.45 402.533C497.171 395.653 493.803 388.261 491.408 380.518C488.423 371.035 488.103 360.914 490.482 351.271C490.865 349.818 491.376 348.397 491.855 347.088L492.031 346.625L491.568 346.546L482.819 344.949L483.138 345.284C481.973 336.36 481.143 327.947 480.824 320.332C480.504 313.659 480.616 306.985 481.159 300.328C481.51 295.906 482.117 291.516 482.963 287.173C483.234 285.577 483.538 284.475 483.681 283.661C483.681 283.31 483.809 283.007 483.857 282.751C483.889 282.671 483.921 282.592 483.953 282.512Z" fill="#EDF1FA"/>
<path d="M483.956 407.976V388.467C483.956 388.467 483.701 383.678 487.756 384.668C491.811 385.658 491.045 393.273 491.045 393.273C491.045 393.273 491.811 422.935 490.039 422.68C488.267 422.424 487.58 420.141 487.58 420.141V408.742L483.956 407.976Z" fill="#F57E71"/>
<path d="M467.016 409.19C473.976 409.717 480.969 409.717 487.929 409.19C480.969 408.663 473.976 408.663 467.016 409.19Z" fill="#EDF1FA"/>
<path d="M428.461 315.287C429.163 315.606 429.898 315.862 430.648 316.085C432.628 316.804 434.575 317.65 436.459 318.592C442.637 321.785 448.018 326.367 452.136 331.97C453.302 333.551 454.34 335.227 455.218 336.983C455.984 338.643 456.606 340.383 457.069 342.155C457.868 345.173 458.41 348.27 458.666 351.383C458.889 354.033 458.937 356.172 458.953 357.769C458.889 358.551 458.889 359.317 458.953 360.1C459.129 359.333 459.209 358.551 459.209 357.769C459.32 355.646 459.32 353.506 459.209 351.383C459.049 348.222 458.586 345.077 457.804 342.012C457.357 340.192 456.734 338.404 455.952 336.696C455.042 334.892 453.972 333.167 452.759 331.539C448.576 325.808 443.053 321.194 436.683 318.097C434.767 317.171 432.771 316.405 430.728 315.798C429.994 315.558 429.227 315.383 428.461 315.287Z" fill="#EDF1FA"/>
<path d="M532.281 536.43C532.265 536.11 532.265 535.807 532.281 535.488C532.281 534.817 532.425 533.891 532.536 532.774C532.776 530.347 533.127 526.883 533.574 522.54C534.548 513.712 535.905 501.276 537.501 486.572L537.837 487.003L501.916 483.954L441.251 478.606C435.121 478.031 428.958 479.245 423.514 482.102C422.046 482.885 420.625 483.779 419.284 484.752L418.246 485.551C418.134 485.646 418.007 485.726 417.879 485.79C419.507 484.21 421.359 482.869 423.371 481.815C428.831 478.798 435.073 477.473 441.299 478.015L502.044 483.124L537.964 486.237H538.348V486.62C536.623 501.292 535.155 513.76 534.133 522.556L532.856 532.758C532.712 533.891 532.584 534.785 532.505 535.456C532.457 535.791 532.377 536.11 532.281 536.43Z" fill="#EDF1FA"/>
<path d="M506.306 537.753C506.146 537.067 506.05 536.364 506.018 535.662C505.891 534.305 505.763 532.325 505.667 529.883C505.204 517.159 506.338 504.419 509.02 491.967C509.547 489.588 510.01 487.673 510.393 486.347C510.536 485.661 510.76 484.975 511.047 484.336C510.999 485.038 510.888 485.741 510.712 486.427C510.409 487.928 510.042 489.828 509.595 492.079C508.701 496.868 507.647 503.509 506.992 510.901C506.338 518.293 506.21 525.014 506.242 529.867C506.242 532.182 506.322 534.113 506.338 535.63C506.402 536.333 506.386 537.051 506.306 537.753Z" fill="#EDF1FA"/>
<path d="M520.004 522.139C520.004 522.139 520.403 521.932 521.186 521.932C522.303 521.98 523.389 522.363 524.283 523.049C525.688 524.071 526.486 525.715 526.406 527.455C526.294 529.611 524.953 531.494 522.974 532.341C520.946 533.043 518.679 532.516 517.178 530.968C515.933 529.706 515.502 527.87 516.029 526.178C516.316 525.093 516.955 524.119 517.865 523.448C518.168 523.177 518.551 523.001 518.966 522.937C518.966 523.017 518.615 523.193 518.072 523.688C517.322 524.39 516.811 525.316 516.604 526.322C516.237 527.775 516.652 529.323 517.721 530.377C519.014 531.67 520.946 532.117 522.686 531.51C524.363 530.776 525.496 529.18 525.64 527.36C525.751 525.859 525.113 524.406 523.931 523.464C523.133 522.794 522.175 522.363 521.154 522.219C520.77 522.219 520.387 522.187 520.004 522.139Z" fill="#EDF1FA"/>
<path d="M499.473 273.891L498.986 274.193L497.415 275.068L491.618 278.394L469.214 290.95L431.509 306.96C423.7 310.143 417.055 315.697 412.514 322.874C410.016 326.709 408.005 330.831 406.513 335.175C404.879 339.711 403.748 344.437 403.166 349.228C396.191 379.464 388.272 414.173 380.59 451.077C379.019 459.034 377.448 466.864 375.877 474.614C375.484 476.555 375.17 478.497 374.824 480.423C374.478 482.348 374.117 484.258 373.881 486.183C373.347 489.971 373.143 493.806 373.3 497.642C373.567 505.105 375.264 512.442 378.296 519.253C379.773 522.547 381.658 525.618 383.921 528.403C386.151 531.093 388.807 533.4 391.776 535.214C397.557 538.716 404.25 540.387 410.975 539.989L430.079 539.591C442.396 539.288 453.881 538.922 464.36 538.556L514.006 536.726L527.501 536.201L531.021 536.09H532.215L531.021 536.185L527.517 536.392L514.022 537.061C502.301 537.618 485.349 538.381 464.391 539.161C453.912 539.559 442.396 539.957 430.095 540.291L410.975 540.737C404.109 541.15 397.29 539.448 391.383 535.883C388.335 534.021 385.617 531.666 383.308 528.928C381.014 526.08 379.082 522.945 377.573 519.603C374.494 512.696 372.75 505.264 372.483 497.689C372.326 493.806 372.514 489.923 373.064 486.088C373.3 484.131 373.677 482.221 374.007 480.295C374.337 478.37 374.667 476.412 375.06 474.487C376.505 466.721 378.076 458.859 379.773 450.934C387.455 414.045 395.405 379.321 402.444 349.084C403.025 344.262 404.14 339.504 405.774 334.937C407.282 330.544 409.341 326.375 411.886 322.508C416.52 315.235 423.276 309.618 431.21 306.419L469.01 290.505L491.508 278.14L497.447 274.957L499.018 274.145L499.473 273.891Z" fill="#EDF1FA"/>
<path d="M632.905 401.75H596.41V413.133H632.905V401.75Z" fill="#F57E71"/>
<path d="M767.868 422.681L646.458 552.185L528.032 552.92L525.223 547.54L641.956 421.068L767.868 422.681Z" fill="#294197"/>
<path d="M653.116 421.067C653.116 421.067 661.002 421.067 663.349 423.813C666.079 427.102 671.331 434.509 659.869 453.363C655.303 460.915 632.905 486.889 623.693 513.502C615.088 538.343 619.015 546.549 619.015 546.549L704.458 543.819L706.054 540.737C706.054 540.737 743.204 440.161 733.37 421.003C728.836 412.271 652.509 417.842 653.116 421.067Z" fill="#EDF1FA"/>
<path d="M718.649 541.265L626.741 542.031C625.639 518.755 633.717 501.849 645.739 481.877C650.337 474.23 656.627 467.684 661.208 460.021C666.03 451.943 668.855 442.844 669.43 433.456C669.67 429.721 669.43 425.682 667.147 422.728C664.864 419.775 656.659 419.615 653.114 421.132C657.09 418.258 661.767 416.534 666.652 416.135C674.076 415.512 734.837 415.927 746.14 416.023C748.87 416.135 751.568 416.582 754.202 417.332C762.44 421.595 764.132 432.818 762.967 440.896C761.865 448.543 757.124 455.759 751.169 463.837C749.445 466.152 747.832 468.562 746.379 471.053C740.105 481.925 722.784 512.417 719.671 522.938C718.154 528.924 717.819 535.151 718.649 541.265Z" fill="#FAFAFA"/>
<path d="M718.649 541.072L696.522 541.248L654.248 541.599L636.496 541.759H630.557C629.455 541.871 628.338 541.871 627.236 541.759C627.156 541.759 626.789 541.759 626.741 541.759C626.693 541.759 626.869 540.051 626.853 539.859C626.853 539.061 626.853 538.263 626.853 537.448C626.853 535.884 626.901 534.319 626.997 532.755C627.364 526.768 628.418 520.845 630.094 515.098C633.51 503.508 639.369 492.748 645.564 482.498C648.964 476.847 653.179 471.786 657.074 466.534C660.826 461.569 663.875 456.077 666.11 450.266C668.297 444.487 669.542 438.372 669.766 432.194C669.878 428.235 669.303 422.807 665.136 421.019C663.236 420.285 661.193 419.917 659.149 419.965C657.792 419.965 654.647 419.79 653.482 420.732C653.147 420.987 653.322 421.083 653.562 421.019C653.753 420.923 653.945 420.779 654.105 420.636C654.727 420.221 655.382 419.822 656.036 419.47C658.271 418.257 660.666 417.363 663.141 416.804C668.09 415.703 673.454 416.022 678.498 415.974C694.24 415.846 709.997 415.974 725.754 415.974L743.937 416.086C746.795 416.07 749.653 416.341 752.462 416.9C757.252 417.906 760.445 422.743 761.849 427.133C763.334 431.923 763.622 437.015 762.648 441.932C761.434 448.175 758.002 453.762 754.442 458.935C751.249 463.596 747.912 468.098 745.071 473.015C743.123 476.448 741.175 479.864 739.244 483.313C734.63 491.55 730.096 499.852 725.881 508.329C722.257 515.593 718.761 522.793 718.202 531.031C717.947 534.447 718.059 537.879 718.538 541.28C718.538 541.535 718.969 541.424 718.921 541.168C717.723 532.867 718.905 524.374 722.353 516.726C725.961 508.505 730.24 500.554 734.534 492.684C738.445 485.5 742.453 478.364 746.539 471.291C752.494 460.994 762.073 452.006 763.398 439.618C764.212 431.875 762.424 420.46 754.298 416.996C751.473 416.022 748.487 415.591 745.502 415.703H738.861C723.391 415.607 707.905 415.527 692.436 415.543C685.762 415.543 679.089 415.543 672.416 415.671C666.365 415.783 660.57 416.373 655.174 419.518C654.44 419.933 653.722 420.412 653.051 420.923C652.907 421.035 653.051 421.322 653.258 421.258C656.787 420.029 660.634 419.981 664.194 421.099C668.984 422.695 669.542 428.442 669.351 432.833C668.808 443.353 665.439 453.539 659.612 462.319C656.771 466.63 653.482 470.637 650.401 474.788C647.495 478.747 644.845 482.882 642.419 487.16C637.773 494.887 633.909 503.061 630.86 511.538C627.54 521.34 626.087 531.685 626.566 542.03C626.566 542.142 626.662 542.238 626.773 542.238L657.824 541.982L707.315 541.567L718.665 541.472C718.777 541.503 718.889 541.424 718.921 541.312C718.953 541.2 718.873 541.088 718.761 541.056C718.729 541.056 718.681 541.056 718.649 541.072Z" fill="#011917"/>
<path d="M713.22 522.077C713.22 522.317 697.016 522.492 677.012 522.492C657.009 522.492 640.805 522.317 640.805 522.077C640.805 521.838 657.025 521.662 677.012 521.662C697 521.662 713.22 521.854 713.22 522.077Z" fill="#263238"/>
<path d="M715.247 509.976C715.247 510.199 699.043 510.391 679.04 510.391C659.036 510.391 642.832 510.199 642.832 509.976C642.832 509.752 659.052 509.561 679.04 509.561C699.027 509.561 715.247 509.736 715.247 509.976Z" fill="#263238"/>
<path d="M724.986 496.981C724.986 497.205 708.766 497.397 688.778 497.397C668.79 497.397 652.57 497.205 652.57 496.981C652.57 496.758 668.774 496.566 688.778 496.566C708.782 496.566 724.986 496.742 724.986 496.981Z" fill="#263238"/>
<path d="M730.974 485.103C730.974 485.326 714.77 485.518 694.766 485.518C674.763 485.518 658.559 485.326 658.559 485.103C658.559 484.879 674.779 484.688 694.766 484.688C714.754 484.688 730.974 484.879 730.974 485.103Z" fill="#263238"/>
<path d="M734.966 474.247C734.966 474.471 718.762 474.662 698.774 474.662C678.786 474.662 662.566 474.471 662.566 474.247C662.566 474.024 678.77 473.832 698.774 473.832C718.778 473.832 734.966 474.008 734.966 474.247Z" fill="#263238"/>
<path d="M744.798 459.974C744.798 460.213 728.594 460.389 708.59 460.389C688.587 460.389 672.383 460.213 672.383 459.974C672.383 459.734 688.603 459.559 708.59 459.559C728.578 459.559 744.798 459.75 744.798 459.974Z" fill="#263238"/>
<path d="M754.06 446.325C754.06 446.549 737.856 446.74 717.852 446.74C697.849 446.74 681.645 446.549 681.645 446.325C681.645 446.102 697.865 445.91 717.852 445.91C737.84 445.91 754.06 446.102 754.06 446.325Z" fill="#263238"/>
<path d="M753.389 433.345C753.389 433.568 737.185 433.76 717.197 433.76C697.209 433.76 680.941 433.568 680.941 433.345C680.941 433.121 697.145 432.93 717.149 432.93C737.153 432.93 753.389 433.105 753.389 433.345Z" fill="#263238"/>
<path d="M641.954 421.068C642.13 421.164 642.306 421.276 642.449 421.42L643.886 422.553L649.378 427.023L649.522 427.151L649.394 427.295C639.512 438.103 618.087 461.203 593.231 487.848C576.085 506.638 559.561 522.747 547.604 534.353C541.617 540.164 536.748 544.81 533.363 548.019L529.436 551.69L528.398 552.616L528.031 552.92C528.031 552.92 528.127 552.792 528.335 552.568L529.324 551.563L533.14 547.779L547.205 533.938C559.05 522.204 575.478 506.08 592.624 487.273C617.481 460.629 639.033 437.656 649.122 427.039V427.311L643.726 422.697L642.354 421.499C642.21 421.372 642.066 421.228 641.954 421.068Z" fill="#1C2D68"/>
<path d="M537.802 492.334H555.14C555.14 492.334 566.858 482.117 569.508 481.335C575.08 479.658 589.464 477.902 589.464 477.902L579.646 488.567C577.363 491.025 573.18 493.244 575.654 493.244H593.694C593.694 493.244 612.133 484.4 614.879 486.012C617.178 487.369 617.977 489.828 615.63 493.244C613.283 496.661 597.111 504.739 595.243 505.361L589.959 506.958L594.924 508.554L618.439 500.333C619.956 500.061 622.079 499.806 622.766 500.7C623.995 501.977 623.947 503.988 622.67 505.218C622.654 505.234 622.638 505.234 622.638 505.25C619.286 508.267 615.741 511.061 612.006 513.599C612.006 513.599 615.757 519.123 612.644 521.917C609.531 524.71 600.527 533.092 600.527 533.092C600.527 533.092 599.585 537.754 596.791 539.925C593.998 542.096 563.266 542.096 561.047 542.096C558.828 542.096 546.439 534.96 546.439 534.96L532.949 533.954L537.802 492.334Z" fill="#FCC6AB"/>
<path d="M591.41 522.41C592.496 522.761 593.629 522.921 594.779 522.873C596.04 522.889 597.285 522.665 598.451 522.218C599.855 521.659 601.196 520.941 602.458 520.095C605.124 518.355 607.502 516.758 609.211 515.561C610.184 514.986 611.079 514.3 611.893 513.518C610.855 513.949 609.865 514.475 608.939 515.114C607.151 516.184 604.725 517.732 602.059 519.456C600.845 520.287 599.568 520.989 598.211 521.564C597.11 522.011 595.944 522.266 594.763 522.33C592.719 522.442 591.41 522.298 591.41 522.41Z" fill="#BF9382"/>
<path d="M589.941 533.919C590.532 534.622 591.378 535.085 592.288 535.228C594.475 535.723 596.758 535.34 598.674 534.175C600.542 533.121 602.282 531.828 603.831 530.343C605.012 529.21 605.651 528.412 605.571 528.348C603.24 530.2 600.829 531.94 598.323 533.536C596.567 534.606 594.475 535.037 592.432 534.733C591.57 534.542 590.74 534.27 589.941 533.919Z" fill="#BF9382"/>
<path d="M581.289 508.458C582.917 508.65 584.578 508.522 586.158 508.075C587.787 507.867 589.351 507.325 590.772 506.479C589.16 506.622 587.547 506.926 585.983 507.357C584.386 507.564 582.806 507.947 581.289 508.458Z" fill="#BF9382"/>
<path d="M463.663 162.715C454.212 145.841 432.868 139.806 415.993 149.257C415.849 149.337 415.706 149.417 415.562 149.497C408.681 153.488 402.95 160.672 403.413 168.654C403.844 176.157 409.432 182.208 414.7 187.556C406.303 191.052 402.104 201.685 404.85 210.338C407.596 218.99 416.248 225.105 425.284 225.935C434.32 226.765 443.436 222.838 449.966 216.516C456.351 209.986 460.822 201.828 462.865 192.92" fill="#011917"/>
<path d="M434.99 182.062C433.538 182.701 431.973 183.1 430.393 183.227C426.034 183.643 421.644 182.733 417.812 180.609C415.146 179.172 412.816 177.209 410.932 174.846C408.777 172.1 407.34 168.859 406.733 165.427C405.328 157.461 407.771 149.303 413.326 143.428C419.026 137.76 426.848 134.743 434.879 135.126C441.424 135.254 447.698 137.84 452.44 142.358C455.585 145.455 457.421 149.638 457.612 154.044C457.644 155.226 457.532 156.407 457.277 157.556C457.197 157.956 457.069 158.243 457.021 158.435C456.974 158.626 456.91 158.722 456.894 158.722C457.213 157.189 457.341 155.609 457.293 154.044C456.974 149.766 455.106 145.759 452.025 142.773C447.363 138.431 441.248 135.988 434.879 135.893C427.072 135.557 419.489 138.495 413.949 144.003C408.585 149.702 406.222 157.588 407.563 165.299C408.122 168.62 409.495 171.749 411.538 174.415C416.04 180.13 423.033 183.291 430.297 182.892C431.877 182.733 433.442 182.445 434.99 182.062Z" fill="#A59BBE"/>
<path d="M445.304 189.025C444.968 189.312 444.601 189.551 444.202 189.727C443.18 190.302 442.111 190.797 441.009 191.18C439.349 191.77 437.641 192.201 435.9 192.457C433.761 192.744 431.59 192.824 429.435 192.68C427.264 192.521 425.124 192.106 423.049 191.483C421.373 190.956 419.728 190.286 418.18 189.456C417.126 188.897 416.136 188.258 415.194 187.54C414.54 187.013 414.205 186.71 414.236 186.662C414.268 186.614 415.833 187.652 418.451 188.929C420 189.663 421.596 190.27 423.24 190.749C427.295 191.898 431.542 192.217 435.725 191.691C437.433 191.467 439.109 191.116 440.754 190.621C443.595 189.759 445.224 188.881 445.304 189.025Z" fill="#A59BBE"/>
<path d="M403.383 170.058C403.495 169.387 403.718 168.749 404.021 168.142C404.756 166.418 405.921 164.917 407.406 163.768C409.721 162.235 412.403 161.325 415.181 161.15C418.517 160.878 421.886 161.038 425.19 161.629C431.193 162.586 436.972 164.582 442.288 167.52C443.885 168.414 445.433 169.387 446.918 170.473C447.509 170.824 448.036 171.255 448.515 171.75C447.892 171.479 447.317 171.127 446.774 170.728C445.673 170.058 444.076 169.132 441.985 168.046C436.669 165.3 430.938 163.417 425.031 162.443C421.806 161.868 418.517 161.692 415.244 161.916C412.594 162.044 410.008 162.858 407.741 164.247C406.288 165.3 405.107 166.673 404.309 168.286C404.037 168.892 403.718 169.483 403.383 170.058Z" fill="#A59BBE"/>
<path d="M452.139 202.083C452.139 202.083 452.139 202.274 451.915 202.626C451.692 202.977 451.436 203.44 451.053 204.062C449.904 205.787 448.547 207.351 447.03 208.756C444.763 210.831 442.161 212.524 439.335 213.737C435.855 215.222 432.087 215.972 428.304 215.924C424.52 215.908 420.784 215.094 417.336 213.514C414.526 212.204 412.052 210.273 410.104 207.862C408.795 206.234 407.885 204.318 407.438 202.274C407.31 201.716 407.246 201.157 407.23 200.598C407.23 200.215 407.23 200.023 407.23 200.023C407.23 200.023 407.326 200.822 407.709 202.195C408.268 204.142 409.226 205.946 410.535 207.495C412.483 209.762 414.893 211.582 417.623 212.827C420.976 214.312 424.616 215.094 428.288 215.094C431.96 215.142 435.599 214.439 439 213.035C441.778 211.853 444.348 210.241 446.599 208.245C448.659 206.393 450.51 204.334 452.139 202.083Z" fill="#A59BBE"/>
<path d="M455.186 210.384C454.675 211.15 454.084 211.853 453.43 212.507C452.248 213.817 450.492 215.7 448.161 217.824C446.996 218.893 445.671 220.027 444.202 221.176C439.093 225.487 432.484 227.594 425.827 227.067C421.181 226.939 416.695 225.391 412.959 222.629C410.022 220.266 407.707 217.217 406.206 213.769C405.169 211.47 404.578 208.995 404.434 206.473C404.386 205.786 404.386 205.1 404.434 204.413C404.45 204.174 404.482 203.934 404.546 203.711C404.578 203.95 404.578 204.19 404.546 204.429C404.53 205.1 404.578 205.77 404.658 206.441C404.897 208.899 405.568 211.294 406.621 213.529C408.154 216.85 410.453 219.755 413.327 222.022C416.951 224.64 421.293 226.109 425.763 226.237C430.233 226.508 434.703 225.662 438.758 223.778C440.498 222.884 442.159 221.815 443.675 220.585C445.144 219.468 446.469 218.366 447.65 217.393C450.013 215.333 451.833 213.545 453.094 212.3C453.749 211.629 454.451 210.991 455.186 210.384Z" fill="#455A64"/>
<path d="M468.611 161.758L470.942 163.594C470 159.634 465.562 157.208 461.507 157.559C457.42 158.214 453.844 160.672 451.784 164.264C449.773 167.824 448.448 171.736 447.873 175.791C446.628 182.496 446.005 189.648 448.671 195.906C451.337 202.164 458.25 207.081 464.827 205.485C471.405 203.888 475.093 196.688 476.082 189.983C477.487 179.957 474.805 169.772 468.611 161.758Z" fill="#F57E71"/>
<path d="M459.466 192.121C457.551 193.27 455.3 193.749 453.081 193.494C451.532 193.43 449.999 193.079 448.563 192.488C447.397 192.025 446.966 191.147 447.19 191.131C447.669 191.482 448.211 191.769 448.786 191.945C450.207 192.344 451.676 192.584 453.144 192.663C455.268 192.632 457.375 192.456 459.466 192.121Z" fill="#263238"/>
<path d="M462.704 180.275C460.166 180.626 457.596 180.674 455.041 180.451C452.487 180.515 449.917 180.291 447.41 179.796C449.949 179.461 452.519 179.413 455.073 179.62C457.628 179.573 460.198 179.796 462.704 180.275Z" fill="#263238"/>
<path d="M460.151 167.616C460.151 167.887 457.788 167.616 455.01 167.296C453.829 167.201 452.648 167.265 451.498 167.504C450.62 167.696 450.093 167.919 450.029 167.807C449.966 167.696 450.413 167.296 451.323 166.929C452.52 166.514 453.797 166.355 455.058 166.466C456.814 166.53 458.539 166.913 460.151 167.616Z" fill="#263238"/>
<path d="M476.371 135.59C476.18 128.917 482.374 123.744 488.6 121.222C494.826 118.699 501.739 117.853 507.295 114.118C512.212 110.813 515.517 105.656 519.667 101.426C535.648 85.2377 561.718 85.062 577.922 101.027C583.302 106.327 587.102 113 588.938 120.328C591.332 129.907 589.704 141.082 582.201 147.468C573.484 154.811 560.553 153.183 549.393 150.9C538.234 148.617 525.59 146.35 516.267 152.911C510.647 156.871 507.423 163.304 503.974 169.259C500.526 175.214 496.231 181.28 489.734 183.516C483.236 185.751 474.408 181.919 474.152 175.022" fill="#011917"/>
<path d="M476.817 139.261C477.551 144.881 473.496 149.893 469.457 153.853C465.418 157.812 460.868 162.011 460.15 167.614C459.32 174.176 464.093 180.625 462.704 187.075C461.826 191.178 458.649 194.339 456.718 198.058C454.131 203.423 453.7 209.569 455.52 215.236C457.117 220.888 459.831 233.5 463.758 237.89C474.614 250.023 491.887 260.496 507.756 264.136C523.625 267.776 540.1 267.808 556.352 266.802C569.651 265.988 584.945 266.594 596.04 248.299C601.772 238.816 604.629 226.22 607.678 215.572C610.297 206.392 612.58 196.574 609.834 187.426C608.237 182.094 605.044 177.368 603.448 172.036C601.484 165.379 602.203 158.243 601.404 151.282C598.435 125.244 574.919 106.55 548.881 109.519C543.677 110.11 538.616 111.562 533.89 113.813" fill="#011917"/>
<path d="M499.441 291.58C499.441 291.58 499.441 291.977 499.521 292.168L499.441 291.58Z" fill="#B78876"/>
<path d="M595.085 162.268C593.84 143.19 581.132 119.786 562.118 121.846L502.746 136.996C496.967 137.619 492.641 142.552 492.768 148.363L499.282 288.388C499.378 290.767 499.921 293.114 500.878 295.285C505.285 304.991 519.94 329.688 551.741 319.695C559.532 317.252 563.092 308.727 564.625 299.978C564.625 298.941 565.056 298.015 565.072 297.025C565.838 290.495 565.918 283.902 565.311 277.357C565.423 265.798 565.407 261.057 565.407 261.168C565.407 261.28 589.785 257.066 594.782 225.232C597.32 209.411 596.458 183.469 595.085 162.268Z" fill="#FCC6AB"/>
<path d="M585.521 183.019C585.553 185.238 583.797 187.058 581.594 187.138C579.455 187.314 577.571 185.717 577.379 183.578C577.379 183.546 577.379 183.498 577.379 183.466C577.347 181.263 579.088 179.427 581.291 179.347C583.446 179.172 585.33 180.768 585.521 182.923C585.521 182.955 585.521 182.987 585.521 183.019Z" fill="#011917"/>
<path d="M589.479 175.775C588.969 176.302 585.871 174.019 581.497 174.035C577.123 174.051 573.898 176.27 573.419 175.727C573.18 175.488 573.706 174.53 575.095 173.508C576.995 172.183 579.246 171.48 581.561 171.496C583.86 171.48 586.095 172.199 587.947 173.54C589.272 174.562 589.735 175.535 589.479 175.775Z" fill="#011917"/>
<path d="M542.048 183.019C542.08 185.222 540.34 187.058 538.137 187.138C535.998 187.314 534.114 185.717 533.922 183.578C533.922 183.546 533.922 183.498 533.922 183.466C533.89 181.263 535.631 179.427 537.834 179.347C539.973 179.172 541.857 180.768 542.048 182.907C542.048 182.939 542.048 182.987 542.048 183.019Z" fill="#011917"/>
<path d="M546.313 176.636C545.802 177.163 542.705 174.88 538.33 174.912C533.956 174.944 530.731 177.131 530.252 176.604C530.013 176.365 530.524 175.391 531.849 174.369C533.749 173.044 536.016 172.342 538.33 172.358C540.629 172.342 542.864 173.06 544.716 174.401C546.105 175.487 546.568 176.445 546.313 176.636Z" fill="#011917"/>
<path d="M562.324 209.218C562.324 208.963 565.038 208.484 569.461 207.909C570.578 207.797 571.632 207.574 571.823 206.808C571.919 205.658 571.648 204.493 571.073 203.487C570.003 200.773 568.902 197.931 567.736 194.946C563.107 182.797 559.754 172.819 560.233 172.596C560.712 172.372 564.879 182.174 569.508 194.259C570.626 197.261 571.696 200.118 572.701 202.848C573.42 204.189 573.627 205.754 573.292 207.239C572.957 208.021 572.286 208.612 571.456 208.835C570.834 209.011 570.195 209.106 569.556 209.106C565.102 209.442 562.34 209.458 562.324 209.218Z" fill="#011917"/>
<path d="M565.468 261.247C550.493 261.471 535.758 257.544 522.891 249.896C522.891 249.896 533.651 271.912 565.5 268.862L565.468 261.247Z" fill="#BF9382"/>
<path d="M560.488 219.739C558.78 217.615 556.098 216.514 553.384 216.817C551.436 217.009 549.633 217.967 548.403 219.499C547.206 221 547.078 223.091 548.068 224.736C549.521 226.348 551.788 226.907 553.831 226.188C555.907 225.438 557.806 224.305 559.435 222.82C559.93 222.469 560.361 222.022 560.68 221.511C560.999 221.032 560.999 220.393 560.68 219.914" fill="#E88161"/>
<path d="M549.408 212.284C550.126 212.284 550.142 217.073 554.197 220.378C558.252 223.683 563.361 223.22 563.393 223.89C563.393 224.177 562.259 224.816 560.12 224.88C557.326 224.928 554.612 223.986 552.441 222.214C550.365 220.522 549.024 218.095 548.705 215.429C548.546 213.433 549.072 212.252 549.408 212.284Z" fill="#011917"/>
<path d="M548.274 168.989C547.843 170.186 543.484 169.628 538.312 170.266C533.139 170.905 528.989 172.31 528.302 171.24C527.999 170.729 528.717 169.644 530.393 168.446C534.927 165.557 540.547 164.918 545.608 166.722C547.507 167.488 548.433 168.414 548.274 168.989Z" fill="#011917"/>
<path d="M587.836 163.066C587.069 164.056 584.036 163.066 580.396 163.066C576.756 163.066 573.691 163.752 572.973 162.715C572.653 162.204 573.148 161.214 574.489 160.256C578.177 157.941 582.918 158.069 586.463 160.607C587.756 161.549 588.171 162.571 587.836 163.066Z" fill="#011917"/>
<path d="M480.539 241.657C495.833 244.706 510.696 234.76 513.745 219.466C514.336 216.481 514.448 213.431 514.065 210.414C513.075 202.607 508.86 194.641 511.574 187.249C515.15 177.479 528.864 174.478 532.504 164.708C534.627 159.024 532.727 152.399 535.122 146.843C537.373 141.607 542.865 138.605 548.229 136.658C553.593 134.71 559.324 133.465 563.81 129.905C568.296 126.345 571.106 119.815 568.216 114.914C544.445 117.756 521.105 123.439 498.675 131.805C493.486 133.752 488.026 136.083 484.961 140.697C481.768 145.582 481.864 151.872 482.136 157.747C483.461 186.324 484.802 214.9 486.127 243.477" fill="#011917"/>
<path d="M482.533 252.61C482.342 252.53 482.166 252.402 482.007 252.274L480.602 251.205C479.372 250.231 477.552 248.81 475.333 246.831C472.587 244.452 470.081 241.818 467.846 238.96C464.797 235.16 462.753 230.642 461.891 225.853C460.646 219.946 462.163 213.784 465.994 209.122C468.293 206.807 470.783 204.668 473.418 202.736C476.068 200.725 478.063 197.979 479.197 194.85C481.544 188.352 480.506 180.849 481.416 173.17C482.31 165.156 485.439 157.557 490.436 151.235C493.006 148.042 496.231 145.408 499.871 143.524C503.463 141.895 507.199 140.65 511.046 139.772C514.606 138.894 517.943 137.25 520.816 134.983C523.53 132.716 525.925 130.082 527.921 127.16C531.912 121.493 534.865 115.442 538.681 110.397C540.485 107.923 542.592 105.688 544.955 103.74C547.174 101.952 549.68 100.579 552.378 99.6851C557.056 97.9131 562.292 98.4399 566.523 101.09C569.508 103.405 571.328 106.901 571.536 110.669C571.727 113.016 571.041 115.346 569.62 117.23C569.253 117.693 568.822 118.108 568.327 118.459C568.008 118.715 567.832 118.827 567.816 118.795C567.8 118.763 567.944 118.635 568.231 118.364C568.678 117.981 569.061 117.534 569.397 117.055C570.674 115.187 571.248 112.92 570.993 110.669C570.674 107.125 568.854 103.884 565.996 101.761C561.957 99.318 557.008 98.9189 552.634 100.659C550.063 101.553 547.669 102.878 545.561 104.602C543.295 106.534 541.283 108.753 539.559 111.18C535.871 116.145 532.965 122.179 528.926 128.006C526.867 131.04 524.408 133.77 521.615 136.116C518.613 138.511 515.117 140.251 511.397 141.209C507.662 142.071 504.006 143.316 500.509 144.897C497.029 146.701 493.964 149.207 491.505 152.256C486.684 158.371 483.667 165.715 482.773 173.441C481.847 180.865 482.917 188.496 480.41 195.393C479.181 198.713 477.026 201.619 474.2 203.774C471.598 205.642 469.155 207.685 466.856 209.92C463.216 214.327 461.748 220.122 462.865 225.725C463.663 230.371 465.595 234.761 468.469 238.497C470.624 241.371 473.05 244.037 475.685 246.479C477.856 248.491 479.612 249.992 480.777 251.029C481.4 251.508 481.991 252.035 482.533 252.61Z" fill="#A59BBE"/>
<path d="M611.687 202.848C612.533 202.002 613.172 200.949 613.539 199.799C614.274 196.574 613.619 193.174 611.719 190.46C610.618 188.688 609.133 186.932 607.632 184.936C605.924 182.845 604.663 180.418 603.96 177.816C603.322 174.91 603.21 171.925 603.609 168.988C603.945 165.938 604.551 162.841 604.95 159.68C605.733 153.71 605.014 147.643 602.875 142.023C601.135 137.426 598.548 133.211 595.26 129.555C593.041 127.097 590.502 124.941 587.709 123.169C585.729 121.908 584.516 121.333 584.516 121.27C584.819 121.349 585.122 121.461 585.394 121.621C586.224 122.004 587.022 122.419 587.804 122.898C590.71 124.59 593.344 126.713 595.627 129.172C599.043 132.828 601.725 137.106 603.529 141.768C605.764 147.499 606.515 153.694 605.717 159.792C605.317 162.985 604.695 166.098 604.36 169.083C603.945 171.941 604.04 174.831 604.647 177.656C605.317 180.163 606.483 182.51 608.111 184.537C609.58 186.533 611.065 188.337 612.166 190.173C614.098 193.03 614.673 196.59 613.763 199.927C613.475 200.805 612.98 201.603 612.342 202.274C612.15 202.497 611.927 202.689 611.687 202.848Z" fill="#A59BBE"/>
<path d="M901.045 571.326C598.436 571.326 354.051 571.518 354.051 571.741C354.051 571.965 598.436 572.156 901.045 572.156V571.326Z" fill="#F57E71"/>
<path d="M886.244 478.273H749.699V634.726H886.244V478.273Z" fill="#EDF1FA"/>
<path d="M886.261 634.725C886.261 634.725 886.261 634.454 886.261 633.975C886.261 633.496 886.261 632.73 886.261 631.788C886.261 629.856 886.261 626.999 886.261 623.327C886.261 615.919 886.261 605.111 886.165 591.398C886.165 563.97 886.053 524.905 885.989 478.289L886.356 478.656H749.811L750.227 478.241C750.227 535.937 750.227 589.721 750.227 634.693L749.875 634.342L848.856 634.518L876.554 634.614H883.866H886.404H883.946H876.698L849.079 634.693L749.843 634.885H749.492V634.534C749.492 589.562 749.492 535.777 749.492 478.081V477.666H749.923H886.468H886.835V478.033C886.756 524.745 886.692 563.891 886.644 591.382C886.644 605.079 886.564 615.855 886.548 623.311C886.548 626.967 886.548 629.776 886.548 631.692C886.548 632.618 886.548 633.289 886.548 633.831C886.548 634.374 886.261 634.725 886.261 634.725Z" fill="#011917"/>
<path d="M777.671 533.605C779.268 531.099 780.433 520.706 782.62 521.297C785.382 522.031 781.487 533.063 781.216 534.068C780.944 535.074 782.397 535.457 782.605 534.547C782.876 533.222 785.989 520.275 788.703 521.265C790.204 521.808 789.23 524.554 789.23 524.554C789.23 524.554 784.84 537.15 786.133 537.581C787.426 538.012 789.964 530.636 790.794 528.002C791.625 525.368 792.934 524.809 793.86 525.974C794.785 527.14 792.455 534.675 791.704 537.15C790.954 539.624 788.719 546.521 792.582 543.966C796.446 541.412 800.357 540.774 801.507 541.412C802.656 542.051 802.225 543.791 800.804 544.03C799.303 544.445 797.851 545.052 796.51 545.85C795.44 546.505 794.45 547.271 793.556 548.149C792.375 549.235 791.385 550.512 790.619 551.917C789.358 554.168 787.202 555.764 784.696 556.307L783.546 561.096L770.344 556.195L772.531 547.239C773.76 542.003 774.495 536.655 774.75 531.275C775.389 524.506 776.346 524.538 777.033 524.793C778.725 525.32 776.027 536.064 777.671 533.605Z" fill="#FCC6AB"/>
<path d="M775.258 542.338C775.849 542.625 776.423 542.945 776.982 543.312C778.275 544.238 779.233 545.579 779.712 547.095C779.856 547.558 779.951 548.021 779.999 548.5V548.74L780.207 548.644C781.356 548.117 782.586 547.798 783.847 547.67C784.789 547.574 785.363 547.67 785.363 547.558C784.837 547.431 784.294 547.399 783.767 547.463C782.474 547.526 781.197 547.814 780.015 548.341L780.239 548.484C780.191 547.973 780.095 547.479 779.951 546.984C779.68 546.122 779.249 545.307 778.674 544.605C778.227 544.03 777.684 543.535 777.078 543.12C776.663 542.849 776.216 542.625 775.753 542.45C775.449 542.354 775.258 542.306 775.258 542.338Z" fill="#BF9382"/>
<path d="M774.508 552.363C775.402 553.161 776.424 553.768 777.541 554.183C778.611 554.694 779.792 554.981 780.973 555.045C780.973 554.949 779.377 554.63 777.669 553.879C775.961 553.129 774.572 552.283 774.508 552.363Z" fill="#BF9382"/>
<path d="M770.662 618.57C773.568 618.283 776.314 617.117 778.549 615.233L799.846 597.241L799.654 617.995L795.439 618.299L796.621 633.72H862.539V633.369C866.641 629.618 869.276 624.525 869.978 619.001C871.574 608.736 872.181 592.005 873.602 580.175C874.624 571.842 872.788 561.018 865.38 557.122L859.745 554.871L841.721 547.783L818.588 548.837L803.134 553.179C798.856 554.776 795.152 559.932 792.518 563.716L779.651 581.644C779.794 578.707 785.11 561.05 785.462 560.268L769.705 553.77C769.705 553.77 753.469 589.866 755.656 605.463C757.412 618.426 770.662 618.57 770.662 618.57Z" fill="#5FBBD1"/>
<path d="M849.205 494.589C853.436 498.612 855.096 504.631 853.548 510.25V510.378C851.616 517.195 848.359 523.565 843.969 529.136C843.586 529.631 842.979 530.174 842.373 529.887C841.766 529.599 841.878 529.2 841.814 528.769C841.558 525.081 841.75 521.378 842.389 517.738C843.011 514.082 842.915 510.346 842.069 506.738C841.159 503.082 838.397 500.161 834.789 499.075C832.075 498.596 829.282 499.091 826.903 500.48C824.476 501.725 822.337 503.449 820.022 504.886C817.771 506.451 815.137 507.377 812.391 507.552C809.597 507.68 806.979 506.179 805.702 503.689C804.632 501.183 806.053 497.718 808.735 497.303C806.293 497 805.015 494.637 804.84 492.179C804.84 492.179 804.999 488.012 811.034 488.299C811.034 488.299 811.832 482.057 817.899 484.324C823.327 486.367 824.045 487.964 832.618 486.064C832.618 486.064 844.176 483.254 847.705 493.2L849.205 494.589Z" fill="#201E62"/>
<path d="M847.754 511.302L842.406 552.363C841.528 559.1 835.366 563.857 828.613 562.995C828.421 562.963 828.229 562.947 828.038 562.9C821.572 561.718 817.166 555.684 818.012 549.17C818.427 546.073 818.746 543.503 818.778 543.183C818.778 543.183 808.449 540.837 809.04 530.412C809.327 525.367 810.764 515.006 812.233 505.667C813.75 495.625 822.722 488.425 832.843 489.127H833.849C844.577 490.58 849.43 500.526 847.754 511.302Z" fill="#FCC6AB"/>
<path d="M818.731 543.025C823.536 543.44 828.374 542.434 832.604 540.104C832.604 540.104 828.868 547.383 818.523 545.739L818.731 543.025Z" fill="#BF9382"/>
<path d="M813.445 513.49C813.621 513.697 814.802 512.931 816.415 513.058C818.027 513.186 819.129 514.048 819.32 513.873C819.512 513.697 819.32 513.426 818.761 513.011C818.107 512.484 817.293 512.164 816.447 512.117C815.617 512.069 814.786 512.26 814.068 512.707C813.557 512.995 813.445 513.33 813.445 513.49Z" fill="#201E62"/>
<path d="M828.914 514.322C829.074 514.529 830.271 513.763 831.868 513.875C833.464 513.987 834.598 514.881 834.773 514.689C834.949 514.497 834.773 514.258 834.215 513.843C833.56 513.316 832.746 512.997 831.9 512.949C831.07 512.885 830.239 513.093 829.537 513.54C829.01 513.891 828.819 514.226 828.914 514.322Z" fill="#201E62"/>
<path d="M823.121 523.801C822.291 523.466 821.429 523.258 820.551 523.147C820.152 523.147 819.769 522.971 819.721 522.684C819.705 522.269 819.832 521.853 820.072 521.502L821.493 518.453C822.802 515.883 823.903 513.217 824.781 510.471C823.265 512.929 821.956 515.5 820.87 518.166C820.391 519.235 819.928 520.241 819.481 521.215C819.194 521.694 819.082 522.253 819.162 522.811C819.258 523.115 819.497 523.354 819.8 523.45C820.024 523.546 820.247 523.594 820.487 523.594C821.349 523.785 822.243 523.849 823.121 523.801Z" fill="#201E62"/>
<path d="M827.814 525.24C827.559 525.24 827.431 526.948 825.851 528.082C824.27 529.215 822.434 528.896 822.418 529.136C822.402 529.375 822.802 529.503 823.584 529.583C824.606 529.662 825.627 529.391 826.457 528.8C827.272 528.242 827.846 527.38 828.054 526.406C828.054 525.687 827.894 525.24 827.814 525.24Z" fill="#201E62"/>
<path d="M829.778 506.004C829.921 506.451 831.534 506.355 833.402 506.706C835.269 507.057 836.754 507.68 837.025 507.313C837.297 506.946 836.914 506.706 836.323 506.243C835.541 505.652 834.647 505.269 833.689 505.094C832.731 504.918 831.757 504.966 830.815 505.237C830.097 505.509 829.73 505.796 829.778 506.004Z" fill="#201E62"/>
<path d="M815.043 506.324C815.298 506.707 816.431 506.404 817.772 506.484C819.114 506.564 820.199 506.899 820.486 506.484C820.774 506.069 820.486 505.925 819.992 505.558C819.369 505.079 818.603 504.824 817.82 504.808C817.038 504.76 816.272 504.967 815.617 505.382C815.122 505.781 814.931 506.133 815.043 506.324Z" fill="#201E62"/>
<path d="M846.364 518.966C846.555 518.966 853.691 517.37 852.957 524.458C852.223 531.547 845.246 529.391 845.246 529.248C845.246 529.104 846.364 518.966 846.364 518.966Z" fill="#FCC6AB"/>
<path d="M847.707 526.709C847.707 526.709 847.819 526.805 848.027 526.933C848.298 527.076 848.633 527.124 848.937 527.044C849.927 526.533 850.565 525.544 850.645 524.426C850.725 523.819 850.661 523.197 850.469 522.622C850.374 522.159 850.07 521.76 849.639 521.569C849.352 521.457 849.033 521.584 848.873 521.84C848.761 522.031 848.793 522.175 848.745 522.191C848.697 522.207 848.601 522.047 848.745 521.76C848.793 521.584 848.921 521.441 849.064 521.345C849.272 521.217 849.527 521.169 849.767 521.233C850.342 521.409 850.789 521.872 850.948 522.463C851.204 523.101 851.284 523.804 851.188 524.49C851.14 525.799 850.294 526.949 849.064 527.38C848.665 527.459 848.25 527.348 847.947 527.076C847.691 526.885 847.675 526.725 847.707 526.709Z" fill="#BF9382"/>
<path d="M810.078 503.337C814.692 504.854 819.753 504.071 823.68 501.23C826.362 499.266 828.469 496.297 831.774 495.546C833.993 495.131 836.292 495.61 838.16 496.871C839.996 498.149 841.56 499.777 842.758 501.661C840.379 506.833 841.321 512.836 842.31 518.439C842.358 519.078 842.614 519.669 843.029 520.148C843.971 520.722 845.184 520.531 845.918 519.717C847.1 518.455 847.882 516.891 848.17 515.199C849.191 511.431 849.431 507.488 848.904 503.624C848.361 499.745 846.701 496.105 844.114 493.152C840.73 489.576 836.1 487.452 831.183 487.229C826.282 487.037 821.445 488.394 817.358 491.108C815.378 492.274 813.734 493.918 812.569 495.898" fill="#201E62"/>
<path d="M834.629 519.491C834.709 519.523 834.804 519.476 834.836 519.396C834.836 519.38 834.836 519.38 834.836 519.364C834.868 519.269 834.836 519.173 834.74 519.126H834.725C834.629 519.094 834.534 519.157 834.502 519.237C834.502 519.253 834.502 519.253 834.502 519.269C834.47 519.364 834.518 519.46 834.629 519.491Z" fill="#EB996E"/>
<path d="M831.614 518.598C831.726 518.598 831.821 518.535 831.837 518.423C831.837 518.312 831.837 518.185 831.726 518.169C831.614 518.153 831.535 518.169 831.503 518.328C831.455 518.439 831.503 518.551 831.614 518.598Z" fill="#EB996E"/>
<path d="M829.555 518.39C829.65 518.39 829.746 518.31 829.777 518.151C829.809 517.992 829.777 517.849 829.666 517.834C829.555 517.818 829.46 517.929 829.428 518.088C829.396 518.247 829.412 518.374 829.555 518.39Z" fill="#EB996E"/>
<path d="M832.987 521.313C833.083 521.313 833.162 521.313 833.162 521.217C833.162 521.122 833.163 521.106 833.003 521.09C832.924 521.09 832.86 521.122 832.812 521.185C832.812 521.185 832.892 521.313 832.987 521.313Z" fill="#EB996E"/>
<path d="M830.224 520.464C830.319 520.48 830.415 520.401 830.431 520.305C830.447 520.194 830.383 520.098 830.287 520.066C830.176 520.051 830.096 520.13 830.081 520.241C830.065 520.337 830.128 520.448 830.224 520.464Z" fill="#EB996E"/>
<path d="M815.711 517.72C815.807 517.736 815.902 517.673 815.934 517.577C815.966 517.482 815.934 517.386 815.838 517.338H815.822C815.727 517.307 815.631 517.37 815.6 517.45C815.6 517.466 815.6 517.466 815.6 517.482C815.568 517.577 815.616 517.689 815.711 517.72Z" fill="#EB996E"/>
<path d="M813.635 517.387C813.731 517.387 813.826 517.308 813.842 517.196C813.826 517.101 813.747 517.037 813.651 517.037C813.556 517.053 813.492 517.133 813.492 517.228C813.508 517.308 813.556 517.371 813.635 517.387Z" fill="#EB996E"/>
<path d="M817.547 517.895C817.642 517.927 817.738 517.879 817.77 517.783C817.801 517.688 817.754 517.592 817.658 517.561C817.563 517.529 817.467 517.577 817.436 517.672C817.404 517.767 817.452 517.863 817.547 517.895Z" fill="#EB996E"/>
<path d="M815.855 519.875C815.951 519.923 816.062 519.875 816.11 519.779C816.174 519.7 816.158 519.589 816.094 519.525C816.015 519.461 815.903 519.477 815.84 519.541C815.824 519.557 815.808 519.589 815.808 519.604C815.744 519.7 815.76 519.811 815.855 519.875Z" fill="#EB996E"/>
<path d="M814.099 519.397C814.179 519.381 814.258 519.317 814.242 519.222C814.227 519.142 814.131 519.095 814.052 519.11C813.972 519.126 813.892 519.19 813.908 519.285C813.924 519.365 814.02 519.413 814.099 519.397Z" fill="#EB996E"/>
<path d="M825.246 495.227C824.655 496.297 823.761 497.175 822.691 497.766C817.742 501.006 811.117 499.618 807.876 494.669C807.685 494.381 807.509 494.094 807.365 493.79C806.711 492.753 806.36 491.555 806.376 490.326C806.823 491.412 807.317 492.481 807.876 493.519C810.862 498.548 817.343 500.224 822.388 497.271C824.272 496.217 825.134 495.116 825.246 495.227Z" fill="#5A4980"/>
<path d="M847.85 497.033C847.147 495.548 846.046 494.303 844.657 493.425C843.14 492.515 841.416 492.004 839.66 491.972C837.473 491.94 835.302 492.195 833.178 492.738C831.023 493.297 828.82 493.696 826.601 493.951C824.749 494.159 822.865 493.951 821.093 493.361C819.896 492.978 818.81 492.323 817.9 491.445C817.549 491.158 817.278 490.774 817.086 490.359C818.283 491.477 819.72 492.307 821.285 492.802C822.993 493.281 824.781 493.409 826.537 493.185C828.724 492.898 830.879 492.483 833.019 491.924C835.206 491.365 837.473 491.126 839.724 491.205C841.607 491.285 843.428 491.876 844.992 492.93C846.046 493.632 846.908 494.59 847.467 495.723C847.866 496.538 847.898 497.033 847.85 497.033Z" fill="#5A4980"/>
<path d="M851.234 505.682C847.833 506.369 844.385 504.708 842.805 501.611C844.034 502.601 845.327 503.511 846.7 504.309C848.169 504.884 849.685 505.347 851.234 505.682Z" fill="#5A4980"/>
<path d="M850.356 510.393C850.356 510.505 849.733 510.473 848.759 510.281C847.53 510.058 846.365 509.611 845.279 508.988C844.162 508.334 843.284 507.36 842.741 506.178C842.374 505.253 842.453 504.582 842.549 504.582C842.645 504.582 842.805 505.125 843.268 505.875C843.89 506.849 844.72 507.647 845.71 508.238C846.732 508.813 847.802 509.308 848.903 509.691C849.845 510.042 850.388 510.297 850.356 510.393Z" fill="#5A4980"/>
<path d="M799.859 618.01C799.763 618.01 799.684 607.489 799.684 594.51C799.684 581.531 799.684 570.994 799.859 570.994C800.035 570.994 800.019 581.531 800.019 594.51C800.019 607.489 799.955 618.01 799.859 618.01Z" fill="#3399B1"/>
<path d="M865.493 562.056C864.423 561.992 863.369 561.992 862.3 562.056C859.777 562.231 857.351 563.046 855.227 564.419C853.136 565.823 851.444 567.739 850.294 569.99C849.847 570.948 849.464 571.922 849.129 572.912C849.161 572.624 849.209 572.337 849.289 572.066C849.48 571.315 849.752 570.597 850.087 569.894C851.188 567.564 852.897 565.568 855.052 564.131C857.207 562.726 859.713 561.928 862.284 561.816C863.05 561.784 863.832 561.832 864.599 561.944C864.902 561.944 865.205 561.992 865.493 562.056Z" fill="#3399B1"/>
<path d="M779.474 579.359C779.458 579.695 779.442 580.014 779.394 580.349C779.394 580.988 779.394 581.946 779.394 583.047C779.394 585.314 779.889 588.443 780.049 591.939C780.288 594.941 779.745 597.958 778.452 600.688C778.037 601.502 777.494 602.237 776.856 602.891C776.632 603.131 776.377 603.338 776.105 603.53C776.952 602.652 777.686 601.662 778.245 600.576C779.49 597.878 780.033 594.925 779.841 591.955C779.682 588.491 779.235 585.346 779.282 583.047C779.282 582.137 779.346 581.227 779.458 580.333C779.458 580.014 779.554 579.774 779.586 579.615C779.618 579.455 779.458 579.359 779.474 579.359Z" fill="#3399B1"/>
<path d="M795.614 620.277L796.827 633.687H790.442L784.822 633.592C782.699 633.815 780.559 633.879 778.436 633.767C778.34 633.783 778.245 633.783 778.149 633.767C777.814 633.719 777.478 633.639 777.159 633.528C776.584 633.32 775.994 632.953 776.089 632.314C776.361 630.399 777.51 630.239 777.51 630.239H778.085V630.063C777.207 630.063 776.488 630.063 776.089 630.063C775.69 630.063 775.802 630.063 775.786 630.063C775.77 630.063 773.551 629.792 773.711 628.611C773.998 626.679 775.131 626.535 775.131 626.535L776.983 626.408C776.089 626.408 775.387 626.408 774.924 626.408C774.828 626.423 774.732 626.423 774.637 626.408C774.637 626.408 772.386 626.136 772.561 624.955C772.833 623.023 773.982 622.863 773.982 622.863L775.579 622.768C774.844 622.768 774.237 622.768 773.982 622.768C773.727 622.768 773.695 622.768 773.679 622.768C773.663 622.768 771.444 622.496 771.619 621.315C771.891 619.383 773.04 619.239 773.04 619.239C773.04 619.239 776.568 618.984 778.995 618.872C778.995 618.872 781.757 616.398 782.842 616.51C784.439 616.685 793.874 620.165 793.874 620.165L795.614 620.277Z" fill="#FCC6AB"/>
<path d="M783.72 629.761C782.666 629.984 781.597 630.08 780.527 630.048C779.489 630.16 778.436 630.128 777.414 629.952C778.468 629.729 779.537 629.617 780.607 629.649C781.645 629.553 782.698 629.585 783.72 629.761Z" fill="#BF9382"/>
<path d="M783.737 625.943C780.768 626.327 777.782 626.438 774.797 626.263C776.266 626.007 777.766 625.88 779.251 625.896C780.752 625.784 782.252 625.8 783.737 625.943Z" fill="#BF9382"/>
<g opacity="0.78">
<path opacity="0.78" d="M783.417 622.051C780.447 622.434 777.462 622.546 774.477 622.37C775.945 622.115 777.446 621.987 778.931 622.003C780.431 621.891 781.932 621.907 783.417 622.051Z" fill="#BF9382"/>
</g>
<path d="M777.879 618.441C778.342 618.537 778.821 618.569 779.3 618.553L782.732 618.664L786.165 618.792C786.643 618.856 787.106 618.856 787.585 618.792C787.122 618.664 786.659 618.585 786.18 618.569C785.302 618.489 784.089 618.409 782.748 618.361C781.407 618.313 780.178 618.361 779.3 618.361C778.821 618.329 778.342 618.345 777.879 618.441Z" fill="#BF9382"/>
<path d="M795.438 618.282H795.661H796.3L798.774 618.139L807.874 617.58C815.569 617.117 826.185 616.446 837.903 615.856L844.193 615.568H844.337V615.409C844.433 612.854 844.672 610.364 844.848 607.985C845.023 605.606 845.247 603.308 845.439 601.136C845.822 596.794 846.157 592.915 846.444 589.674C846.732 586.433 846.971 583.863 847.115 582.059C847.115 581.181 847.243 580.462 847.29 579.999V579.473C847.29 579.345 847.29 579.297 847.29 579.297C847.29 579.361 847.29 579.409 847.29 579.473C847.29 579.6 847.29 579.776 847.29 579.999C847.29 580.494 847.163 581.165 847.067 582.043C846.891 583.847 846.62 586.449 846.301 589.658C845.981 592.867 845.63 596.762 845.215 601.104C845.023 603.276 844.816 605.575 844.608 607.953C844.401 610.332 844.177 612.823 844.066 615.409L844.225 615.249L837.935 615.52C826.201 616.111 815.585 616.83 807.906 617.356L798.822 618.011L796.347 618.218H795.709L795.438 618.282Z" fill="#3399B1"/>
</g>
<defs>
<clipPath id="clip0_78_2">
<rect width="1086" height="716" fill="white"/>
</clipPath>
</defs>
</svg>
