<svg width="173" height="196" viewBox="0 0 173 196" fill="none" xmlns="http://www.w3.org/2000/svg">
<path d="M159.672 11.6719C151.927 4.31249 141.547 0.20832 130.849 0.244778C119.802 0.286445 109.417 4.59374 101.604 12.3854L86.7031 27.2448L72.1719 12.7604C55.9844 -3.37501 29.6302 -3.88543 13.2865 12.0989C-3.21874 28.2344 -3.3177 54.7552 12.9948 71.0156L91.9063 149.693C100.917 158.677 101.333 173.297 92.5052 182.448C83.4688 191.807 68.4688 191.917 59.2917 182.771L39.7448 163.281C38.9219 162.458 38.8386 161.161 39.5469 160.229C42.4323 156.448 44.0313 151.635 43.6719 146.453C42.9688 136.219 34.5781 127.99 24.3021 127.458C12.401 126.839 2.53647 136.391 2.69793 148.156C2.84376 159.057 11.75 168.052 22.6771 168.323C26.2031 168.411 29.5313 167.609 32.4636 166.13C33.349 165.677 34.4323 165.87 35.1354 166.568L55.3281 186.708C60.9531 192.318 68.3438 195.12 75.7292 195.12C83.1146 195.12 90.5052 192.312 96.125 186.708C107.375 175.495 107.375 157.245 96.125 146.031L16.9479 67.0729C2.91667 53.0833 2.91667 30.3229 16.9479 16.3281C30.9792 2.33853 53.8177 2.33853 67.8438 16.3281L84.6511 33.0885C85.2136 33.651 85.9584 33.9167 86.7031 33.8958C87.4427 33.9167 88.1875 33.651 88.75 33.0885L105.224 16.6667C112.057 9.85415 121.276 5.83853 130.938 5.8229C140.578 5.80207 149.646 9.53644 156.458 16.3281C163.266 23.125 167.01 32.151 167 41.7604C166.984 51.3958 162.953 60.5989 156.125 67.4167L150.797 72.7239C150.359 73.1562 149.766 73.4062 149.146 73.4062H133.276C132.396 73.4062 131.583 72.9062 131.193 72.125L123.526 56.8385C122.672 55.125 120.219 55.125 119.365 56.8385L106.188 83.0885C105.328 84.8021 102.88 84.8021 102.021 83.0885L97.5261 74.1094C96.6667 72.3958 94.2188 72.3958 93.3594 74.1094L88.8594 83.0833C88.0052 84.7969 85.5573 84.7969 84.6979 83.0833L71.5313 56.8281C70.6771 55.1146 68.224 55.1146 67.3698 56.8281L59.7031 72.1146C59.3073 72.8958 58.5 73.3958 57.6198 73.3958H43.5729C42.0417 73.3958 40.7083 74.5677 40.6615 76.0989C40.6146 77.6771 41.8854 78.9687 43.4583 78.9687H61.0781C61.9583 78.9687 62.7656 78.4687 63.1563 77.6875L67.3698 69.2864C68.224 67.5729 70.6771 67.5729 71.5313 69.2864L84.6979 95.5417C85.5573 97.2552 88.0052 97.2552 88.8594 95.5417L93.3594 86.5677C94.2188 84.8542 96.6667 84.8542 97.5261 86.5677L102.021 95.5469C102.88 97.2604 105.328 97.2604 106.188 95.5469L119.354 69.2917C120.208 67.5833 122.661 67.5781 123.516 69.2917L127.734 77.6927C128.13 78.4739 128.932 78.9739 129.813 78.9739H151.26C151.26 78.9739 151.26 78.9739 151.266 78.9739H151.271C151.443 78.9739 151.609 78.9531 151.771 78.9271C151.781 78.9271 151.797 78.9219 151.807 78.9219C151.969 78.8906 152.13 78.8437 152.286 78.7812C152.297 78.776 152.313 78.7708 152.328 78.7656C152.479 78.7031 152.63 78.625 152.771 78.5364C152.781 78.526 152.797 78.5208 152.813 78.5104C152.958 78.4114 153.099 78.2969 153.229 78.1719C153.234 78.1666 153.234 78.1667 153.24 78.1667L160 71.4219C168.005 63.4427 172.677 52.6406 172.589 41.3542C172.495 30.0729 167.906 19.4948 159.672 11.6719ZM8.28647 147.88C8.28647 139.672 14.9844 133 23.2083 133C31.4323 133 38.1302 139.677 38.1302 147.88C38.1302 156.083 31.4323 162.755 23.2083 162.755C14.9844 162.755 8.28647 156.083 8.28647 147.88Z" fill="white"/>
</svg>
