<svg width="335" height="197" viewBox="0 0 335 197" fill="none" xmlns="http://www.w3.org/2000/svg">
<mask id="mask0_4_196" style="mask-type:luminance" maskUnits="userSpaceOnUse" x="0" y="0" width="174" height="197">
<path d="M0.333328 0.333344H173.026V196.432H0.333328V0.333344Z" fill="white"/>
</mask>
<g mask="url(#mask0_4_196)">
<path d="M160.005 13.0052C152.26 5.64583 141.88 1.54166 131.182 1.57812C120.135 1.61979 109.75 5.92708 101.937 13.7187L87.0365 28.5781L72.5052 14.0937C56.3177 -2.04167 29.9635 -2.55209 13.6198 13.4323C-2.88543 29.5677 -2.98439 56.0885 13.3281 72.349L92.2396 151.026C101.25 160.01 101.667 174.63 92.8385 183.781C83.8021 193.141 68.8021 193.25 59.625 184.104L40.0781 164.615C39.2552 163.792 39.1719 162.495 39.8802 161.562C42.7656 157.781 44.3646 152.969 44.0052 147.786C43.3021 137.552 34.9114 129.323 24.6354 128.792C12.7344 128.172 2.86978 137.724 3.03124 149.49C3.17707 160.391 12.0833 169.385 23.0104 169.656C26.5364 169.745 29.8646 168.943 32.7969 167.464C33.6823 167.01 34.7656 167.203 35.4687 167.901L55.6614 188.042C61.2864 193.651 68.6771 196.453 76.0625 196.453C83.4479 196.453 90.8385 193.646 96.4583 188.042C107.708 176.828 107.708 158.578 96.4583 147.365L17.2812 68.4062C3.24999 54.4167 3.24999 31.6562 17.2812 17.6615C31.3125 3.67187 54.151 3.67187 68.1771 17.6615L84.9844 34.4219C85.5469 34.9844 86.2917 35.25 87.0365 35.2292C87.776 35.25 88.5208 34.9844 89.0833 34.4219L105.557 18C112.391 11.1875 121.609 7.17187 131.271 7.15625C140.911 7.13541 149.979 10.8698 156.792 17.6615C163.599 24.4583 167.344 33.4844 167.333 43.0938C167.318 52.7292 163.286 61.9323 156.458 68.75L151.13 74.0573C150.693 74.4896 150.099 74.7396 149.479 74.7396H133.609C132.729 74.7396 131.917 74.2396 131.526 73.4583L123.859 58.1719C123.005 56.4583 120.552 56.4583 119.698 58.1719L106.521 84.4219C105.661 86.1354 103.214 86.1354 102.354 84.4219L97.8594 75.4427C97 73.7292 94.5521 73.7292 93.6927 75.4427L89.1927 84.4167C88.3385 86.1302 85.8906 86.1302 85.0312 84.4167L71.8646 58.1615C71.0104 56.4479 68.5573 56.4479 67.7031 58.1615L60.0364 73.4479C59.6406 74.2292 58.8333 74.7292 57.9531 74.7292H43.9062C42.375 74.7292 41.0417 75.901 40.9948 77.4323C40.9479 79.0104 42.2187 80.3021 43.7917 80.3021H61.4114C62.2917 80.3021 63.0989 79.8021 63.4896 79.0208L67.7031 70.6198C68.5573 68.9062 71.0104 68.9062 71.8646 70.6198L85.0312 96.875C85.8906 98.5885 88.3385 98.5885 89.1927 96.875L93.6927 87.901C94.5521 86.1875 97 86.1875 97.8594 87.901L102.354 96.8802C103.214 98.5938 105.661 98.5938 106.521 96.8802L119.687 70.625C120.542 68.9167 122.995 68.9115 123.849 70.625L128.068 79.026C128.464 79.8073 129.266 80.3073 130.146 80.3073H151.594C151.594 80.3073 151.594 80.3073 151.599 80.3073H151.604C151.776 80.3073 151.943 80.2865 152.104 80.2604C152.115 80.2604 152.13 80.2552 152.141 80.2552C152.302 80.224 152.464 80.1771 152.62 80.1146C152.63 80.1094 152.646 80.1042 152.661 80.099C152.812 80.0365 152.964 79.9583 153.104 79.8698C153.115 79.8594 153.13 79.8542 153.146 79.8438C153.292 79.7448 153.432 79.6302 153.562 79.5052C153.568 79.5 153.568 79.5 153.573 79.5L160.333 72.7552C168.339 64.776 173.01 53.974 172.922 42.6875C172.828 31.4062 168.24 20.8281 160.005 13.0052ZM8.61978 149.214C8.61978 141.005 15.3177 134.333 23.5417 134.333C31.7656 134.333 38.4635 141.01 38.4635 149.214C38.4635 157.417 31.7656 164.089 23.5417 164.089C15.3177 164.089 8.61978 157.417 8.61978 149.214Z" fill="white"/>
</g>
<path d="M99.8004 124.791H91.5295V123.125L94.217 122.521V104.25L91.5295 103.604V101.937H99.8004V103.604L97.1129 104.25V122.521L99.8004 123.125V124.791Z" fill="white"/>
<path d="M126.571 124.791H123.217L110.988 105.812H110.863C110.904 106.562 110.951 107.495 111.009 108.604C111.076 109.718 111.113 110.854 111.113 112.021V124.791H108.467V101.937H111.8L123.988 120.854H124.113C124.097 120.51 124.071 119.995 124.029 119.312C123.998 118.635 123.967 117.896 123.925 117.104C123.894 116.302 123.884 115.541 123.884 114.833V101.937H126.571V124.791Z" fill="white"/>
<path d="M139.918 124.791H137.043V101.937H149.814V104.479H139.918V112.562H149.21V115.104H139.918V124.791Z" fill="white"/>
<path d="M164.345 124.791H156.074V123.125L158.761 122.521V104.25L156.074 103.604V101.937H164.345V103.604L161.657 104.25V122.521L164.345 123.125V124.791Z" fill="white"/>
<path d="M191.115 124.791H187.761L175.532 105.812H175.407C175.449 106.562 175.496 107.495 175.553 108.604C175.621 109.718 175.657 110.854 175.657 112.021V124.791H173.011V101.937H176.345L188.532 120.854H188.657C188.641 120.51 188.615 119.995 188.574 119.312C188.542 118.635 188.511 117.896 188.47 117.104C188.438 116.302 188.428 115.541 188.428 114.833V101.937H191.115V124.791Z" fill="white"/>
<path d="M208.025 124.791H199.754V123.125L202.442 122.521V104.25L199.754 103.604V101.937H208.025V103.604L205.337 104.25V122.521L208.025 123.125V124.791Z" fill="white"/>
<path d="M223.921 124.791H221.046V104.479H213.9V101.937H231.025V104.479H223.921V124.791Z" fill="white"/>
<path d="M244.698 113.166L250.635 101.937H253.74L246.135 115.937V124.791H243.26V116.062L235.635 101.937H238.781L244.698 113.166Z" fill="white"/>
<path d="M279.42 113.146C279.42 117.01 278.363 119.916 276.254 121.875C274.155 123.823 271.233 124.791 267.483 124.791H261.108V101.937H268.149C270.425 101.937 272.41 102.37 274.108 103.229C275.8 104.078 277.108 105.333 278.024 107C278.951 108.666 279.42 110.718 279.42 113.146ZM276.379 113.25C276.379 110.198 275.618 107.958 274.108 106.541C272.608 105.125 270.483 104.416 267.733 104.416H263.983V122.333H267.087C273.28 122.333 276.379 119.307 276.379 113.25Z" fill="white"/>
<path d="M308.661 113.333C308.661 115.708 308.255 117.781 307.453 119.541C306.661 121.291 305.479 122.661 303.911 123.646C302.338 124.62 300.416 125.104 298.14 125.104C295.765 125.104 293.791 124.62 292.224 123.646C290.651 122.661 289.484 121.286 288.724 119.521C287.958 117.745 287.578 115.677 287.578 113.312C287.578 110.979 287.958 108.937 288.724 107.187C289.484 105.427 290.651 104.052 292.224 103.062C293.791 102.078 295.771 101.583 298.161 101.583C300.437 101.583 302.354 102.073 303.911 103.041C305.479 104.015 306.661 105.385 307.453 107.146C308.255 108.911 308.661 110.974 308.661 113.333ZM290.62 113.333C290.62 116.208 291.224 118.479 292.432 120.146C293.651 121.802 295.557 122.625 298.14 122.625C300.708 122.625 302.599 121.802 303.807 120.146C305.015 118.479 305.62 116.208 305.62 113.333C305.62 110.458 305.021 108.208 303.828 106.583C302.63 104.948 300.745 104.125 298.161 104.125C295.562 104.125 293.651 104.948 292.432 106.583C291.224 108.208 290.62 110.458 290.62 113.333Z" fill="white"/>
<path d="M327.764 104.146C325.305 104.146 323.373 104.974 321.972 106.625C320.566 108.265 319.868 110.515 319.868 113.375C319.868 116.208 320.519 118.453 321.826 120.104C323.144 121.76 325.107 122.583 327.722 122.583C328.706 122.583 329.644 122.5 330.534 122.333C331.435 122.156 332.326 121.937 333.201 121.687V124.187C332.352 124.51 331.472 124.739 330.555 124.875C329.649 125.026 328.576 125.104 327.326 125.104C324.993 125.104 323.045 124.625 321.493 123.666C319.935 122.708 318.769 121.349 317.993 119.583C317.211 117.807 316.826 115.724 316.826 113.333C316.826 111.031 317.243 109 318.076 107.25C318.92 105.489 320.165 104.114 321.805 103.125C323.456 102.125 325.456 101.625 327.805 101.625C330.206 101.625 332.305 102.073 334.097 102.958L332.951 105.396C332.243 105.078 331.456 104.791 330.597 104.541C329.732 104.281 328.79 104.146 327.764 104.146Z" fill="white"/>
<path d="M151.87 150.325H149.829V142.783H141.516V150.325H139.495V134.137H141.516V140.991H149.829V134.137H151.87V150.325Z" fill="white"/>
<path d="M165.325 150.325H156.283V134.137H165.325V135.929H158.304V140.991H164.908V142.762H158.304V148.533H165.325V150.325Z" fill="white"/>
<path d="M179.026 150.325L177.068 145.325H170.651L168.734 150.325H166.672L173.005 134.075H174.839L181.13 150.325H179.026ZM176.464 143.512L174.651 138.616C174.609 138.491 174.531 138.273 174.422 137.95C174.307 137.632 174.203 137.304 174.109 136.97C174.011 136.627 173.932 136.361 173.88 136.179C173.755 136.653 173.63 137.111 173.505 137.554C173.38 138.002 173.266 138.356 173.172 138.616L171.339 143.512H176.464Z" fill="white"/>
<path d="M183.358 150.325V134.137H185.378V148.512H192.462V150.325H183.358Z" fill="white"/>
<path d="M200.334 150.325H198.313V135.929H193.25V134.137H205.375V135.929H200.334V150.325Z" fill="white"/>
<path d="M220.201 150.325H218.16V142.783H209.847V150.325H207.826V134.137H209.847V140.991H218.16V134.137H220.201V150.325Z" fill="white"/>
<path d="M233.716 150.325H231.695V134.137H240.736V135.929H233.716V141.658H240.299V143.45H233.716V150.325Z" fill="white"/>
<path d="M247.995 150.325H242.162V149.137L244.057 148.72V135.783L242.162 135.325V134.137H247.995V135.325L246.099 135.783V148.72L247.995 149.137V150.325Z" fill="white"/>
<path d="M255.592 134.137C257.602 134.137 259.092 134.523 260.05 135.283C261.009 136.049 261.488 137.2 261.488 138.741C261.488 139.606 261.326 140.325 261.009 140.908C260.686 141.481 260.28 141.939 259.78 142.283C259.29 142.632 258.78 142.898 258.238 143.075L262.675 150.325H260.3L256.384 143.637H253.155V150.325H251.134V134.137H255.592ZM255.467 135.908H253.155V141.908H255.592C256.91 141.908 257.868 141.653 258.467 141.137C259.076 140.611 259.384 139.84 259.384 138.825C259.384 137.773 259.061 137.023 258.425 136.575C257.785 136.132 256.8 135.908 255.467 135.908Z" fill="white"/>
<path d="M274.393 145.991C274.393 147.439 273.872 148.564 272.83 149.366C271.788 150.158 270.382 150.554 268.622 150.554C267.705 150.554 266.856 150.481 266.08 150.345C265.314 150.21 264.674 150.023 264.163 149.783V147.825C264.715 148.075 265.398 148.299 266.205 148.491C267.007 148.689 267.84 148.783 268.705 148.783C269.898 148.783 270.799 148.554 271.413 148.095C272.038 147.627 272.351 146.986 272.351 146.179C272.351 145.653 272.236 145.21 272.018 144.845C271.794 144.486 271.398 144.153 270.83 143.845C270.273 143.543 269.507 143.21 268.538 142.845C267.148 142.345 266.106 141.736 265.413 141.012C264.715 140.293 264.372 139.299 264.372 138.033C264.372 137.189 264.585 136.46 265.018 135.845C265.46 135.22 266.064 134.741 266.83 134.408C267.606 134.075 268.507 133.908 269.538 133.908C270.413 133.908 271.215 133.991 271.955 134.158C272.705 134.325 273.393 134.549 274.018 134.825L273.372 136.575C272.814 136.325 272.205 136.116 271.538 135.95C270.872 135.783 270.189 135.7 269.497 135.7C268.481 135.7 267.715 135.918 267.205 136.345C266.689 136.778 266.434 137.345 266.434 138.054C266.434 138.611 266.544 139.069 266.768 139.429C267.002 139.793 267.377 140.116 267.893 140.408C268.403 140.7 269.101 141.007 269.976 141.325C270.934 141.674 271.736 142.049 272.393 142.45C273.044 142.856 273.538 143.335 273.872 143.887C274.215 144.444 274.393 145.148 274.393 145.991Z" fill="white"/>
<path d="M282.768 150.325H280.747V135.929H275.685V134.137H287.81V135.929H282.768V150.325Z" fill="white"/>
</svg>
