<svg width="334" height="197" viewBox="0 0 334 197" fill="none" xmlns="http://www.w3.org/2000/svg">
<path d="M159.672 12.6718C151.927 5.31246 141.547 1.20829 130.849 1.24475C119.802 1.28641 109.417 5.59371 101.604 13.3854L86.7031 28.2447L72.1719 13.7604C55.9844 -2.37504 29.6302 -2.88546 13.2865 13.0989C-3.21874 29.2343 -3.3177 55.7552 12.9948 72.0156L91.9063 150.693C100.917 159.677 101.333 174.297 92.5052 183.448C83.4688 192.807 68.4688 192.917 59.2917 183.771L39.7448 164.281C38.9219 163.458 38.8385 162.161 39.5469 161.229C42.4323 157.448 44.0313 152.635 43.6719 147.453C42.9688 137.219 34.5781 128.99 24.3021 128.458C12.401 127.839 2.53647 137.391 2.69793 149.156C2.84376 160.057 11.75 169.052 22.6771 169.323C26.2031 169.411 29.5313 168.609 32.4636 167.13C33.349 166.677 34.4323 166.87 35.1354 167.568L55.3281 187.708C60.9531 193.318 68.3438 196.12 75.7292 196.12C83.1146 196.12 90.5052 193.312 96.125 187.708C107.375 176.495 107.375 158.245 96.125 147.031L16.9479 68.0729C2.91667 54.0833 2.91667 31.3229 16.9479 17.3281C30.9792 3.3385 53.8177 3.3385 67.8438 17.3281L84.6511 34.0885C85.2136 34.651 85.9583 34.9166 86.7031 34.8958C87.4427 34.9166 88.1875 34.651 88.75 34.0885L105.224 17.6666C112.057 10.8541 121.276 6.8385 130.938 6.82287C140.578 6.80204 149.646 10.5364 156.458 17.3281C163.266 24.125 167.01 33.151 167 42.7604C166.984 52.3958 162.953 61.5989 156.125 68.4166L150.797 73.7239C150.359 74.1562 149.766 74.4062 149.146 74.4062H133.276C132.396 74.4062 131.583 73.9062 131.193 73.125L123.526 57.8385C122.672 56.125 120.219 56.125 119.365 57.8385L106.188 84.0885C105.328 85.802 102.88 85.802 102.021 84.0885L97.5261 75.1093C96.6667 73.3958 94.2188 73.3958 93.3594 75.1093L88.8594 84.0833C88.0052 85.7968 85.5573 85.7968 84.6979 84.0833L71.5313 57.8281C70.6771 56.1145 68.224 56.1145 67.3698 57.8281L59.7031 73.1145C59.3073 73.8958 58.5 74.3958 57.6198 74.3958H43.5729C42.0417 74.3958 40.7083 75.5677 40.6615 77.0989C40.6146 78.677 41.8854 79.9687 43.4583 79.9687H61.0781C61.9583 79.9687 62.7656 79.4687 63.1563 78.6875L67.3698 70.2864C68.224 68.5729 70.6771 68.5729 71.5313 70.2864L84.6979 96.5416C85.5573 98.2552 88.0052 98.2552 88.8594 96.5416L93.3594 87.5677C94.2188 85.8541 96.6667 85.8541 97.5261 87.5677L102.021 96.5468C102.88 98.2604 105.328 98.2604 106.188 96.5468L119.354 70.2916C120.208 68.5833 122.661 68.5781 123.516 70.2916L127.734 78.6927C128.13 79.4739 128.932 79.9739 129.813 79.9739H151.26C151.26 79.9739 151.26 79.9739 151.266 79.9739H151.271C151.443 79.9739 151.609 79.9531 151.771 79.927C151.781 79.927 151.797 79.9218 151.807 79.9218C151.969 79.8906 152.13 79.8437 152.286 79.7812C152.297 79.776 152.313 79.7708 152.328 79.7656C152.479 79.7031 152.63 79.625 152.771 79.5364C152.781 79.526 152.797 79.5208 152.813 79.5104C152.958 79.4114 153.099 79.2968 153.229 79.1718C153.234 79.1666 153.234 79.1666 153.24 79.1666L160 72.4218C168.005 64.4427 172.677 53.6406 172.589 42.3541C172.495 31.0729 167.906 20.4947 159.672 12.6718ZM8.28647 148.88C8.28647 140.672 14.9844 134 23.2083 134C31.4323 134 38.1302 140.677 38.1302 148.88C38.1302 157.083 31.4323 163.755 23.2083 163.755C14.9844 163.755 8.28647 157.083 8.28647 148.88Z" fill="#04B8AD"/>
</svg>
