<svg width="334" height="197" viewBox="0 0 334 197" fill="none" xmlns="http://www.w3.org/2000/svg">
<path d="M159.672 12.6719C151.927 5.31249 141.547 1.20832 130.849 1.24478C119.802 1.28644 109.417 5.59374 101.604 13.3854L86.7031 28.2448L72.1719 13.7604C55.9844 -2.37501 29.6302 -2.88543 13.2865 13.0989C-3.21874 29.2344 -3.3177 55.7552 12.9948 72.0156L91.9063 150.693C100.917 159.677 101.333 174.297 92.5052 183.448C83.4688 192.807 68.4688 192.917 59.2917 183.771L39.7448 164.281C38.9219 163.458 38.8386 162.161 39.5469 161.229C42.4323 157.448 44.0313 152.635 43.6719 147.453C42.9688 137.219 34.5781 128.99 24.3021 128.458C12.401 127.839 2.53647 137.391 2.69793 149.156C2.84376 160.057 11.75 169.052 22.6771 169.323C26.2031 169.411 29.5313 168.609 32.4636 167.13C33.349 166.677 34.4323 166.87 35.1354 167.568L55.3281 187.708C60.9531 193.318 68.3438 196.12 75.7292 196.12C83.1146 196.12 90.5052 193.312 96.125 187.708C107.375 176.495 107.375 158.245 96.125 147.031L16.9479 68.0729C2.91667 54.0833 2.91667 31.3229 16.9479 17.3281C30.9792 3.33853 53.8177 3.33853 67.8438 17.3281L84.6511 34.0885C85.2136 34.651 85.9583 34.9167 86.7031 34.8958C87.4427 34.9167 88.1875 34.651 88.75 34.0885L105.224 17.6667C112.057 10.8542 121.276 6.83853 130.938 6.8229C140.578 6.80207 149.646 10.5364 156.458 17.3281C163.266 24.125 167.01 33.151 167 42.7604C166.984 52.3958 162.953 61.5989 156.125 68.4167L150.797 73.7239C150.359 74.1562 149.766 74.4062 149.146 74.4062H133.276C132.396 74.4062 131.583 73.9062 131.193 73.125L123.526 57.8385C122.672 56.125 120.219 56.125 119.365 57.8385L106.188 84.0885C105.328 85.8021 102.88 85.8021 102.021 84.0885L97.5261 75.1094C96.6667 73.3958 94.2188 73.3958 93.3594 75.1094L88.8594 84.0833C88.0052 85.7969 85.5573 85.7969 84.6979 84.0833L71.5313 57.8281C70.6771 56.1146 68.224 56.1146 67.3698 57.8281L59.7031 73.1146C59.3073 73.8958 58.5 74.3958 57.6198 74.3958H43.5729C42.0417 74.3958 40.7083 75.5677 40.6615 77.0989C40.6146 78.6771 41.8854 79.9687 43.4583 79.9687H61.0781C61.9583 79.9687 62.7656 79.4687 63.1563 78.6875L67.3698 70.2864C68.224 68.5729 70.6771 68.5729 71.5313 70.2864L84.6979 96.5417C85.5573 98.2552 88.0052 98.2552 88.8594 96.5417L93.3594 87.5677C94.2188 85.8542 96.6667 85.8542 97.5261 87.5677L102.021 96.5469C102.88 98.2604 105.328 98.2604 106.188 96.5469L119.354 70.2917C120.208 68.5833 122.661 68.5781 123.516 70.2917L127.734 78.6927C128.13 79.4739 128.932 79.9739 129.813 79.9739H151.26C151.26 79.9739 151.26 79.9739 151.266 79.9739H151.271C151.443 79.9739 151.609 79.9531 151.771 79.9271C151.781 79.9271 151.797 79.9219 151.807 79.9219C151.969 79.8906 152.13 79.8437 152.286 79.7812C152.297 79.776 152.313 79.7708 152.328 79.7656C152.479 79.7031 152.63 79.625 152.771 79.5364C152.781 79.526 152.797 79.5208 152.813 79.5104C152.958 79.4114 153.099 79.2969 153.229 79.1719C153.234 79.1667 153.234 79.1667 153.24 79.1667L160 72.4219C168.005 64.4427 172.677 53.6406 172.589 42.3542C172.495 31.0729 167.906 20.4948 159.672 12.6719ZM8.28647 148.88C8.28647 140.672 14.9844 134 23.2083 134C31.4323 134 38.1302 140.677 38.1302 148.88C38.1302 157.083 31.4323 163.755 23.2083 163.755C14.9844 163.755 8.28647 157.083 8.28647 148.88Z" fill="#04B8AD"/>
<path d="M99.4671 124.458H91.1962V122.791L93.8837 122.187V103.916L91.1962 103.271V101.604H99.4671V103.271L96.7796 103.916V122.187L99.4671 122.791V124.458Z" fill="#04B8AD"/>
<path d="M126.238 124.458H122.884L110.654 105.479H110.529C110.571 106.229 110.618 107.161 110.675 108.271C110.743 109.385 110.779 110.521 110.779 111.687V124.458H108.134V101.604H111.467L123.654 120.521H123.779C123.764 120.177 123.738 119.661 123.696 118.979C123.665 118.302 123.634 117.562 123.592 116.771C123.561 115.968 123.55 115.208 123.55 114.5V101.604H126.238V124.458Z" fill="#04B8AD"/>
<path d="M139.585 124.458H136.71V101.604H149.481V104.146H139.585V112.229H148.876V114.771H139.585V124.458Z" fill="#04B8AD"/>
<path d="M164.011 124.458H155.741V122.791L158.428 122.187V103.916L155.741 103.271V101.604H164.011V103.271L161.324 103.916V122.187L164.011 122.791V124.458Z" fill="#04B8AD"/>
<path d="M190.782 124.458H187.428L175.199 105.479H175.074C175.115 106.229 175.162 107.161 175.22 108.271C175.287 109.385 175.324 110.521 175.324 111.687V124.458H172.678V101.604H176.011L188.199 120.521H188.324C188.308 120.177 188.282 119.661 188.24 118.979C188.209 118.302 188.178 117.562 188.136 116.771C188.105 115.968 188.095 115.208 188.095 114.5V101.604H190.782V124.458Z" fill="#04B8AD"/>
<path d="M207.692 124.458H199.421V122.791L202.108 122.187V103.916L199.421 103.271V101.604H207.692V103.271L205.004 103.916V122.187L207.692 122.791V124.458Z" fill="#04B8AD"/>
<path d="M223.587 124.458H220.712V104.146H213.566V101.604H230.691V104.146H223.587V124.458Z" fill="#04B8AD"/>
<path d="M244.365 112.833L250.302 101.604H253.406L245.802 115.604V124.458H242.927V115.729L235.302 101.604H238.448L244.365 112.833Z" fill="#04B8AD"/>
<path d="M279.087 112.812C279.087 116.677 278.03 119.583 275.92 121.541C273.821 123.489 270.899 124.458 267.149 124.458H260.774V101.604H267.816C270.092 101.604 272.076 102.036 273.774 102.896C275.467 103.745 276.774 105 277.691 106.666C278.618 108.333 279.087 110.385 279.087 112.812ZM276.045 112.916C276.045 109.864 275.285 107.625 273.774 106.208C272.274 104.791 270.149 104.083 267.399 104.083H263.649V122H266.754C272.946 122 276.045 118.974 276.045 112.916Z" fill="#04B8AD"/>
<path d="M308.328 113C308.328 115.375 307.922 117.448 307.12 119.208C306.328 120.958 305.146 122.328 303.578 123.312C302.005 124.286 300.083 124.771 297.807 124.771C295.432 124.771 293.458 124.286 291.89 123.312C290.318 122.328 289.151 120.953 288.39 119.187C287.625 117.411 287.245 115.343 287.245 112.979C287.245 110.646 287.625 108.604 288.39 106.854C289.151 105.093 290.318 103.718 291.89 102.729C293.458 101.745 295.437 101.25 297.828 101.25C300.104 101.25 302.021 101.739 303.578 102.708C305.146 103.682 306.328 105.052 307.12 106.812C307.922 108.578 308.328 110.64 308.328 113ZM290.286 113C290.286 115.875 290.89 118.146 292.099 119.812C293.318 121.468 295.224 122.291 297.807 122.291C300.375 122.291 302.265 121.468 303.474 119.812C304.682 118.146 305.286 115.875 305.286 113C305.286 110.125 304.687 107.875 303.495 106.25C302.297 104.614 300.411 103.791 297.828 103.791C295.229 103.791 293.318 104.614 292.099 106.25C290.89 107.875 290.286 110.125 290.286 113Z" fill="#04B8AD"/>
<path d="M327.43 103.812C324.972 103.812 323.04 104.64 321.639 106.291C320.232 107.932 319.534 110.182 319.534 113.041C319.534 115.875 320.185 118.12 321.493 119.771C322.81 121.427 324.774 122.25 327.389 122.25C328.373 122.25 329.31 122.166 330.201 122C331.102 121.823 331.993 121.604 332.868 121.354V123.854C332.019 124.177 331.139 124.406 330.222 124.541C329.316 124.692 328.243 124.771 326.993 124.771C324.659 124.771 322.711 124.291 321.159 123.333C319.602 122.375 318.435 121.015 317.659 119.25C316.878 117.474 316.493 115.39 316.493 113C316.493 110.698 316.909 108.666 317.743 106.916C318.586 105.156 319.831 103.781 321.472 102.791C323.123 101.791 325.123 101.291 327.472 101.291C329.873 101.291 331.972 101.739 333.764 102.625L332.618 105.062C331.909 104.745 331.123 104.458 330.264 104.208C329.399 103.948 328.456 103.812 327.43 103.812Z" fill="#04B8AD"/>
<path d="M151.537 149.991H149.495V142.45H141.183V149.991H139.162V133.804H141.183V140.658H149.495V133.804H151.537V149.991Z" fill="#04B8AD"/>
<path d="M164.992 149.991H155.95V133.804H164.992V135.595H157.971V140.658H164.575V142.429H157.971V148.2H164.992V149.991Z" fill="#04B8AD"/>
<path d="M178.693 149.991L176.735 144.991H170.318L168.401 149.991H166.339L172.672 133.741H174.505L180.797 149.991H178.693ZM176.13 143.179L174.318 138.283C174.276 138.158 174.198 137.939 174.089 137.616C173.974 137.299 173.87 136.97 173.776 136.637C173.677 136.293 173.599 136.028 173.547 135.845C173.422 136.319 173.297 136.778 173.172 137.22C173.047 137.668 172.932 138.023 172.839 138.283L171.005 143.179H176.13Z" fill="#04B8AD"/>
<path d="M183.024 149.991V133.804H185.045V148.179H192.128V149.991H183.024Z" fill="#04B8AD"/>
<path d="M200 149.991H197.979V135.595H192.917V133.804H205.042V135.595H200V149.991Z" fill="#04B8AD"/>
<path d="M219.868 149.991H217.826V142.45H209.514V149.991H207.493V133.804H209.514V140.658H217.826V133.804H219.868V149.991Z" fill="#04B8AD"/>
<path d="M233.382 149.991H231.361V133.804H240.403V135.595H233.382V141.325H239.965V143.116H233.382V149.991Z" fill="#04B8AD"/>
<path d="M247.662 149.991H241.828V148.804L243.724 148.387V135.45L241.828 134.991V133.804H247.662V134.991L245.766 135.45V148.387L247.662 148.804V149.991Z" fill="#04B8AD"/>
<path d="M255.259 133.804C257.269 133.804 258.759 134.189 259.717 134.95C260.675 135.715 261.155 136.866 261.155 138.408C261.155 139.273 260.993 139.991 260.675 140.575C260.352 141.148 259.946 141.606 259.446 141.95C258.957 142.299 258.446 142.564 257.905 142.741L262.342 149.991H259.967L256.05 143.304H252.821V149.991H250.8V133.804H255.259ZM255.134 135.575H252.821V141.575H255.259C256.576 141.575 257.535 141.319 258.134 140.804C258.743 140.278 259.05 139.507 259.05 138.491C259.05 137.439 258.727 136.689 258.092 136.241C257.451 135.799 256.467 135.575 255.134 135.575Z" fill="#04B8AD"/>
<path d="M274.059 145.658C274.059 147.106 273.538 148.231 272.497 149.033C271.455 149.825 270.049 150.22 268.288 150.22C267.372 150.22 266.523 150.148 265.747 150.012C264.981 149.877 264.34 149.689 263.83 149.45V147.491C264.382 147.741 265.064 147.965 265.872 148.158C266.674 148.356 267.507 148.45 268.372 148.45C269.564 148.45 270.465 148.22 271.08 147.762C271.705 147.293 272.018 146.653 272.018 145.845C272.018 145.319 271.903 144.877 271.684 144.512C271.46 144.153 271.064 143.819 270.497 143.512C269.939 143.21 269.174 142.877 268.205 142.512C266.814 142.012 265.773 141.403 265.08 140.679C264.382 139.96 264.038 138.965 264.038 137.7C264.038 136.856 264.252 136.127 264.684 135.512C265.127 134.887 265.731 134.408 266.497 134.075C267.273 133.741 268.174 133.575 269.205 133.575C270.08 133.575 270.882 133.658 271.622 133.825C272.372 133.991 273.059 134.215 273.684 134.491L273.038 136.241C272.481 135.991 271.872 135.783 271.205 135.616C270.538 135.45 269.856 135.366 269.163 135.366C268.148 135.366 267.382 135.585 266.872 136.012C266.356 136.444 266.101 137.012 266.101 137.72C266.101 138.278 266.21 138.736 266.434 139.095C266.669 139.46 267.044 139.783 267.559 140.075C268.07 140.366 268.768 140.674 269.643 140.991C270.601 141.34 271.403 141.715 272.059 142.116C272.71 142.523 273.205 143.002 273.538 143.554C273.882 144.111 274.059 144.814 274.059 145.658Z" fill="#04B8AD"/>
<path d="M282.435 149.991H280.414V135.595H275.352V133.804H287.477V135.595H282.435V149.991Z" fill="#04B8AD"/>
</svg>
