<svg width="1142" height="1139" viewBox="0 0 1142 1139" fill="none" xmlns="http://www.w3.org/2000/svg">
<mask id="path-1-outside-1_243_677" maskUnits="userSpaceOnUse" x="0" y="0" width="1142" height="1139" fill="black">
<rect fill="white" width="1142" height="1139"/>
<path fill-rule="evenodd" clip-rule="evenodd" d="M571 68.9816C293.782 68.9816 69.0526 293.441 69.0526 570.326C69.0526 676.297 101.963 774.597 158.162 855.581C179.769 885.633 217.422 925.492 262.418 963.315C272.531 971.816 282.902 980.118 293.424 988.105C295.318 989.363 297.221 990.609 299.133 991.842L298.891 992.216C338.387 1021.64 379.73 1046.37 417.312 1060.28C468.229 1079.12 500.796 1074.6 519.176 1053.85C529.486 1042.21 538.903 1022.2 543.207 988.713C546.561 962.617 546.646 929.528 542.294 888.208C538.65 885.361 535.225 881.813 532.133 877.569C524.028 866.445 514.418 856.42 504.808 846.395L504.806 846.392C500.498 841.898 496.19 837.405 492.018 832.812C492.018 832.812 491.508 832.895 491.641 832.267C491.082 831.177 490.388 830.715 489.695 830.252C489.695 830.252 489.459 830.108 489.392 829.358C485.081 823.872 480.836 819.134 476.591 814.397C476.591 814.397 476.627 814.15 476.25 813.408C465.118 800.7 454.361 788.736 443.605 776.771C443.605 776.771 442.944 776.865 443.152 776.164C442.349 774.56 441.338 773.657 440.327 772.753C440.327 772.753 440.389 772.611 440.132 771.84C416.437 743.896 393.172 716.571 369.51 689.594C355.158 673.233 340.592 657.061 326.026 640.888C319.591 633.744 313.156 626.599 306.739 619.438C306.739 619.438 306.784 619.376 306.555 618.595C299.346 609.966 292.366 602.118 285.386 594.271L285.383 594.267C285.383 594.267 285.073 593.346 284.536 592.275C280.477 587.423 276.956 583.642 273.435 579.86C273.435 579.86 272.988 580.208 273.158 579.162C255.944 548.55 245.544 516.932 248.97 482.353C250.11 470.857 252.764 459.511 255.419 448.164C256.621 443.027 257.823 437.89 258.884 432.739C258.884 432.739 258.735 432.688 259.427 432.119C263.308 426.453 266.986 420.747 270.627 415.097C277.793 403.979 284.819 393.076 292.99 383.115C298.825 376 306.39 370.307 313.955 364.614C317.337 362.07 320.719 359.525 323.946 356.853C323.946 356.853 323.777 356.716 324.727 356.695C405.16 315.971 478.425 340.468 529.476 403.326C537.975 413.79 546.418 424.3 554.86 434.809L554.869 434.82L554.985 434.964C558.826 439.746 562.667 444.527 566.514 449.304C566.631 449.696 566.748 450.087 567.35 451.699C571.395 456.647 574.956 460.375 578.518 464.102L578.521 464.106C578.521 464.106 578.817 463.764 578.787 464.727C591.69 481.312 604.623 496.934 617.556 512.557L617.564 512.566C617.564 512.566 617.747 512.392 617.874 513.248C643.606 542.15 672.806 564.323 711.201 571.637C740.686 577.254 767.265 572.93 788.412 549.502C788.412 549.502 787.75 549.05 788.861 549.024C795.214 541.501 801.118 534.376 805.574 526.437C819.069 502.396 812.967 454.45 792.864 439.173C792.864 439.173 792.637 439.388 792.638 438.474C785.384 432.358 778.128 427.158 770.873 421.957L770.87 421.955C731.064 403.402 696.993 411.676 665.498 448.033C660.74 446.664 656.458 445.176 653.926 442.197C647.215 434.302 640.86 426.029 635.111 417.407C630.728 410.833 626.751 403.988 622.773 397.143C621.04 394.159 619.305 391.174 617.538 388.213C617.538 388.213 617.726 388.225 618.166 387.972C619.219 387.249 619.497 386.629 619.442 385.859C619.442 385.859 620.279 385.344 621.287 384.607C629.731 377.303 637.165 370.737 644.6 364.17C644.6 364.17 644.479 364 645.396 363.986C685.918 337.714 729.235 329.167 774.476 343.199C789.247 347.781 802.935 355.864 816.623 363.948C822.824 367.61 829.025 371.272 835.327 374.608C835.327 374.608 835.52 374.612 835.795 375.438C844.204 385.209 852.339 394.155 860.473 403.101C860.473 403.101 860.672 402.95 860.644 403.642C861.268 404.851 861.921 405.366 862.575 405.882C862.575 405.882 862.79 405.458 862.735 406.489C903.615 473.479 892.447 553.485 837.67 608.458C815.911 630.295 795.938 653.915 775.964 677.535C766.973 688.166 757.983 698.797 748.83 709.266C748.83 709.266 748.914 709.363 748.265 709.484C747.258 710.33 746.9 711.055 746.542 711.779C746.542 711.779 746.467 711.785 745.728 712.132C729.526 729.885 713.934 747.177 698.639 764.729C688.805 776.014 679.123 787.434 669.442 798.854L669.435 798.862C665.166 803.897 660.898 808.932 656.616 813.956C656.616 813.956 656.612 813.953 656.498 813.993C656.395 814.03 656.203 814.102 655.844 814.242C644.125 827.237 633.163 839.935 622.201 852.634C621.839 852.819 621.477 853.005 620.018 853.845C618.586 855.408 617.171 856.936 615.777 858.441C609.493 865.228 603.65 871.539 598.642 878.456L598.533 878.607C603.601 924.681 603.851 963.563 599.687 995.956C594.504 1036.28 582.213 1068.51 561.827 1091.53C518.815 1140.1 454.037 1134.52 397.526 1113.61C354.52 1097.69 309.542 1070.78 267.939 1040.1L267.104 1041.39C112.471 941.682 10 767.965 10 570.326C10 260.866 261.168 10 571 10C880.832 10 1132 260.866 1132 570.326C1132 704.168 1084.98 827.106 1006.58 923.468C1011.29 934.718 1013.89 947.068 1013.89 960.026C1013.89 1012.38 971.404 1054.82 918.989 1054.82C866.574 1054.82 824.083 1012.38 824.083 960.026C824.083 907.673 866.574 865.234 918.989 865.234C936.549 865.234 952.996 869.997 967.104 878.301C1033.45 793.308 1072.95 686.454 1072.95 570.326C1072.95 293.441 848.218 68.9816 571 68.9816ZM918.989 995.836C938.79 995.836 954.842 979.803 954.842 960.026C954.842 940.248 938.79 924.215 918.989 924.215C899.187 924.215 883.135 940.248 883.135 960.026C883.135 979.803 899.187 995.836 918.989 995.836ZM685.583 669.08C686.216 668.446 686.855 667.818 687.495 667.189L687.497 667.187C688.88 665.829 690.262 664.471 691.577 663.05C703.223 650.463 702.225 647.507 685.697 643.238C656.735 635.759 630.784 622.465 607.005 604.108C571.939 577.038 544.979 542.875 519.082 507.555C516.034 503.398 513.021 499.21 510.008 495.02C492.705 470.961 475.388 446.884 451.259 428.702C424.15 408.274 394.672 406.818 365.522 421.72C324.313 442.786 310.837 497.419 335.32 537.194C358.71 575.193 411.882 585.219 449.389 557.883C458.033 551.583 462.385 553.197 468.021 560.783C477.9 574.079 488.179 587.1 498.768 599.838C504.544 606.787 504.422 612.226 496.334 616.389C492.804 618.206 489.281 620.042 485.758 621.879C472.172 628.959 458.575 636.045 444.53 642.065C431.905 647.477 430.57 648.819 439.41 659.083C461.713 684.978 484.052 710.843 506.39 736.707C522.399 755.242 538.408 773.778 554.404 792.325C565.408 805.084 565.911 805.322 577.129 792.591C597.624 769.332 618.064 746.025 638.717 722.474C654.182 704.84 669.766 687.069 685.583 669.08Z"/>
</mask>
<path fill-rule="evenodd" clip-rule="evenodd" d="M571 68.9816C293.782 68.9816 69.0526 293.441 69.0526 570.326C69.0526 676.297 101.963 774.597 158.162 855.581C179.769 885.633 217.422 925.492 262.418 963.315C272.531 971.816 282.902 980.118 293.424 988.105C295.318 989.363 297.221 990.609 299.133 991.842L298.891 992.216C338.387 1021.64 379.73 1046.37 417.312 1060.28C468.229 1079.12 500.796 1074.6 519.176 1053.85C529.486 1042.21 538.903 1022.2 543.207 988.713C546.561 962.617 546.646 929.528 542.294 888.208C538.65 885.361 535.225 881.813 532.133 877.569C524.028 866.445 514.418 856.42 504.808 846.395L504.806 846.392C500.498 841.898 496.19 837.405 492.018 832.812C492.018 832.812 491.508 832.895 491.641 832.267C491.082 831.177 490.388 830.715 489.695 830.252C489.695 830.252 489.459 830.108 489.392 829.358C485.081 823.872 480.836 819.134 476.591 814.397C476.591 814.397 476.627 814.15 476.25 813.408C465.118 800.7 454.361 788.736 443.605 776.771C443.605 776.771 442.944 776.865 443.152 776.164C442.349 774.56 441.338 773.657 440.327 772.753C440.327 772.753 440.389 772.611 440.132 771.84C416.437 743.896 393.172 716.571 369.51 689.594C355.158 673.233 340.592 657.061 326.026 640.888C319.591 633.744 313.156 626.599 306.739 619.438C306.739 619.438 306.784 619.376 306.555 618.595C299.346 609.966 292.366 602.118 285.386 594.271L285.383 594.267C285.383 594.267 285.073 593.346 284.536 592.275C280.477 587.423 276.956 583.642 273.435 579.86C273.435 579.86 272.988 580.208 273.158 579.162C255.944 548.55 245.544 516.932 248.97 482.353C250.11 470.857 252.764 459.511 255.419 448.164C256.621 443.027 257.823 437.89 258.884 432.739C258.884 432.739 258.735 432.688 259.427 432.119C263.308 426.453 266.986 420.747 270.627 415.097C277.793 403.979 284.819 393.076 292.99 383.115C298.825 376 306.39 370.307 313.955 364.614C317.337 362.07 320.719 359.525 323.946 356.853C323.946 356.853 323.777 356.716 324.727 356.695C405.16 315.971 478.425 340.468 529.476 403.326C537.975 413.79 546.418 424.3 554.86 434.809L554.869 434.82L554.985 434.964C558.826 439.746 562.667 444.527 566.514 449.304C566.631 449.696 566.748 450.087 567.35 451.699C571.395 456.647 574.956 460.375 578.518 464.102L578.521 464.106C578.521 464.106 578.817 463.764 578.787 464.727C591.69 481.312 604.623 496.934 617.556 512.557L617.564 512.566C617.564 512.566 617.747 512.392 617.874 513.248C643.606 542.15 672.806 564.323 711.201 571.637C740.686 577.254 767.265 572.93 788.412 549.502C788.412 549.502 787.75 549.05 788.861 549.024C795.214 541.501 801.118 534.376 805.574 526.437C819.069 502.396 812.967 454.45 792.864 439.173C792.864 439.173 792.637 439.388 792.638 438.474C785.384 432.358 778.128 427.158 770.873 421.957L770.87 421.955C731.064 403.402 696.993 411.676 665.498 448.033C660.74 446.664 656.458 445.176 653.926 442.197C647.215 434.302 640.86 426.029 635.111 417.407C630.728 410.833 626.751 403.988 622.773 397.143C621.04 394.159 619.305 391.174 617.538 388.213C617.538 388.213 617.726 388.225 618.166 387.972C619.219 387.249 619.497 386.629 619.442 385.859C619.442 385.859 620.279 385.344 621.287 384.607C629.731 377.303 637.165 370.737 644.6 364.17C644.6 364.17 644.479 364 645.396 363.986C685.918 337.714 729.235 329.167 774.476 343.199C789.247 347.781 802.935 355.864 816.623 363.948C822.824 367.61 829.025 371.272 835.327 374.608C835.327 374.608 835.52 374.612 835.795 375.438C844.204 385.209 852.339 394.155 860.473 403.101C860.473 403.101 860.672 402.95 860.644 403.642C861.268 404.851 861.921 405.366 862.575 405.882C862.575 405.882 862.79 405.458 862.735 406.489C903.615 473.479 892.447 553.485 837.67 608.458C815.911 630.295 795.938 653.915 775.964 677.535C766.973 688.166 757.983 698.797 748.83 709.266C748.83 709.266 748.914 709.363 748.265 709.484C747.258 710.33 746.9 711.055 746.542 711.779C746.542 711.779 746.467 711.785 745.728 712.132C729.526 729.885 713.934 747.177 698.639 764.729C688.805 776.014 679.123 787.434 669.442 798.854L669.435 798.862C665.166 803.897 660.898 808.932 656.616 813.956C656.616 813.956 656.612 813.953 656.498 813.993C656.395 814.03 656.203 814.102 655.844 814.242C644.125 827.237 633.163 839.935 622.201 852.634C621.839 852.819 621.477 853.005 620.018 853.845C618.586 855.408 617.171 856.936 615.777 858.441C609.493 865.228 603.65 871.539 598.642 878.456L598.533 878.607C603.601 924.681 603.851 963.563 599.687 995.956C594.504 1036.28 582.213 1068.51 561.827 1091.53C518.815 1140.1 454.037 1134.52 397.526 1113.61C354.52 1097.69 309.542 1070.78 267.939 1040.1L267.104 1041.39C112.471 941.682 10 767.965 10 570.326C10 260.866 261.168 10 571 10C880.832 10 1132 260.866 1132 570.326C1132 704.168 1084.98 827.106 1006.58 923.468C1011.29 934.718 1013.89 947.068 1013.89 960.026C1013.89 1012.38 971.404 1054.82 918.989 1054.82C866.574 1054.82 824.083 1012.38 824.083 960.026C824.083 907.673 866.574 865.234 918.989 865.234C936.549 865.234 952.996 869.997 967.104 878.301C1033.45 793.308 1072.95 686.454 1072.95 570.326C1072.95 293.441 848.218 68.9816 571 68.9816ZM918.989 995.836C938.79 995.836 954.842 979.803 954.842 960.026C954.842 940.248 938.79 924.215 918.989 924.215C899.187 924.215 883.135 940.248 883.135 960.026C883.135 979.803 899.187 995.836 918.989 995.836ZM685.583 669.08C686.216 668.446 686.855 667.818 687.495 667.189L687.497 667.187C688.88 665.829 690.262 664.471 691.577 663.05C703.223 650.463 702.225 647.507 685.697 643.238C656.735 635.759 630.784 622.465 607.005 604.108C571.939 577.038 544.979 542.875 519.082 507.555C516.034 503.398 513.021 499.21 510.008 495.02C492.705 470.961 475.388 446.884 451.259 428.702C424.15 408.274 394.672 406.818 365.522 421.72C324.313 442.786 310.837 497.419 335.32 537.194C358.71 575.193 411.882 585.219 449.389 557.883C458.033 551.583 462.385 553.197 468.021 560.783C477.9 574.079 488.179 587.1 498.768 599.838C504.544 606.787 504.422 612.226 496.334 616.389C492.804 618.206 489.281 620.042 485.758 621.879C472.172 628.959 458.575 636.045 444.53 642.065C431.905 647.477 430.57 648.819 439.41 659.083C461.713 684.978 484.052 710.843 506.39 736.707C522.399 755.242 538.408 773.778 554.404 792.325C565.408 805.084 565.911 805.322 577.129 792.591C597.624 769.332 618.064 746.025 638.717 722.474C654.182 704.84 669.766 687.069 685.583 669.08Z" fill="#04B7AC"/>
<path fill-rule="evenodd" clip-rule="evenodd" d="M571 68.9816C293.782 68.9816 69.0526 293.441 69.0526 570.326C69.0526 676.297 101.963 774.597 158.162 855.581C179.769 885.633 217.422 925.492 262.418 963.315C272.531 971.816 282.902 980.118 293.424 988.105C295.318 989.363 297.221 990.609 299.133 991.842L298.891 992.216C338.387 1021.64 379.73 1046.37 417.312 1060.28C468.229 1079.12 500.796 1074.6 519.176 1053.85C529.486 1042.21 538.903 1022.2 543.207 988.713C546.561 962.617 546.646 929.528 542.294 888.208C538.65 885.361 535.225 881.813 532.133 877.569C524.028 866.445 514.418 856.42 504.808 846.395L504.806 846.392C500.498 841.898 496.19 837.405 492.018 832.812C492.018 832.812 491.508 832.895 491.641 832.267C491.082 831.177 490.388 830.715 489.695 830.252C489.695 830.252 489.459 830.108 489.392 829.358C485.081 823.872 480.836 819.134 476.591 814.397C476.591 814.397 476.627 814.15 476.25 813.408C465.118 800.7 454.361 788.736 443.605 776.771C443.605 776.771 442.944 776.865 443.152 776.164C442.349 774.56 441.338 773.657 440.327 772.753C440.327 772.753 440.389 772.611 440.132 771.84C416.437 743.896 393.172 716.571 369.51 689.594C355.158 673.233 340.592 657.061 326.026 640.888C319.591 633.744 313.156 626.599 306.739 619.438C306.739 619.438 306.784 619.376 306.555 618.595C299.346 609.966 292.366 602.118 285.386 594.271L285.383 594.267C285.383 594.267 285.073 593.346 284.536 592.275C280.477 587.423 276.956 583.642 273.435 579.86C273.435 579.86 272.988 580.208 273.158 579.162C255.944 548.55 245.544 516.932 248.97 482.353C250.11 470.857 252.764 459.511 255.419 448.164C256.621 443.027 257.823 437.89 258.884 432.739C258.884 432.739 258.735 432.688 259.427 432.119C263.308 426.453 266.986 420.747 270.627 415.097C277.793 403.979 284.819 393.076 292.99 383.115C298.825 376 306.39 370.307 313.955 364.614C317.337 362.07 320.719 359.525 323.946 356.853C323.946 356.853 323.777 356.716 324.727 356.695C405.16 315.971 478.425 340.468 529.476 403.326C537.975 413.79 546.418 424.3 554.86 434.809L554.869 434.82L554.985 434.964C558.826 439.746 562.667 444.527 566.514 449.304C566.631 449.696 566.748 450.087 567.35 451.699C571.395 456.647 574.956 460.375 578.518 464.102L578.521 464.106C578.521 464.106 578.817 463.764 578.787 464.727C591.69 481.312 604.623 496.934 617.556 512.557L617.564 512.566C617.564 512.566 617.747 512.392 617.874 513.248C643.606 542.15 672.806 564.323 711.201 571.637C740.686 577.254 767.265 572.93 788.412 549.502C788.412 549.502 787.75 549.05 788.861 549.024C795.214 541.501 801.118 534.376 805.574 526.437C819.069 502.396 812.967 454.45 792.864 439.173C792.864 439.173 792.637 439.388 792.638 438.474C785.384 432.358 778.128 427.158 770.873 421.957L770.87 421.955C731.064 403.402 696.993 411.676 665.498 448.033C660.74 446.664 656.458 445.176 653.926 442.197C647.215 434.302 640.86 426.029 635.111 417.407C630.728 410.833 626.751 403.988 622.773 397.143C621.04 394.159 619.305 391.174 617.538 388.213C617.538 388.213 617.726 388.225 618.166 387.972C619.219 387.249 619.497 386.629 619.442 385.859C619.442 385.859 620.279 385.344 621.287 384.607C629.731 377.303 637.165 370.737 644.6 364.17C644.6 364.17 644.479 364 645.396 363.986C685.918 337.714 729.235 329.167 774.476 343.199C789.247 347.781 802.935 355.864 816.623 363.948C822.824 367.61 829.025 371.272 835.327 374.608C835.327 374.608 835.52 374.612 835.795 375.438C844.204 385.209 852.339 394.155 860.473 403.101C860.473 403.101 860.672 402.95 860.644 403.642C861.268 404.851 861.921 405.366 862.575 405.882C862.575 405.882 862.79 405.458 862.735 406.489C903.615 473.479 892.447 553.485 837.67 608.458C815.911 630.295 795.938 653.915 775.964 677.535C766.973 688.166 757.983 698.797 748.83 709.266C748.83 709.266 748.914 709.363 748.265 709.484C747.258 710.33 746.9 711.055 746.542 711.779C746.542 711.779 746.467 711.785 745.728 712.132C729.526 729.885 713.934 747.177 698.639 764.729C688.805 776.014 679.123 787.434 669.442 798.854L669.435 798.862C665.166 803.897 660.898 808.932 656.616 813.956C656.616 813.956 656.612 813.953 656.498 813.993C656.395 814.03 656.203 814.102 655.844 814.242C644.125 827.237 633.163 839.935 622.201 852.634C621.839 852.819 621.477 853.005 620.018 853.845C618.586 855.408 617.171 856.936 615.777 858.441C609.493 865.228 603.65 871.539 598.642 878.456L598.533 878.607C603.601 924.681 603.851 963.563 599.687 995.956C594.504 1036.28 582.213 1068.51 561.827 1091.53C518.815 1140.1 454.037 1134.52 397.526 1113.61C354.52 1097.69 309.542 1070.78 267.939 1040.1L267.104 1041.39C112.471 941.682 10 767.965 10 570.326C10 260.866 261.168 10 571 10C880.832 10 1132 260.866 1132 570.326C1132 704.168 1084.98 827.106 1006.58 923.468C1011.29 934.718 1013.89 947.068 1013.89 960.026C1013.89 1012.38 971.404 1054.82 918.989 1054.82C866.574 1054.82 824.083 1012.38 824.083 960.026C824.083 907.673 866.574 865.234 918.989 865.234C936.549 865.234 952.996 869.997 967.104 878.301C1033.45 793.308 1072.95 686.454 1072.95 570.326C1072.95 293.441 848.218 68.9816 571 68.9816ZM918.989 995.836C938.79 995.836 954.842 979.803 954.842 960.026C954.842 940.248 938.79 924.215 918.989 924.215C899.187 924.215 883.135 940.248 883.135 960.026C883.135 979.803 899.187 995.836 918.989 995.836ZM685.583 669.08C686.216 668.446 686.855 667.818 687.495 667.189L687.497 667.187C688.88 665.829 690.262 664.471 691.577 663.05C703.223 650.463 702.225 647.507 685.697 643.238C656.735 635.759 630.784 622.465 607.005 604.108C571.939 577.038 544.979 542.875 519.082 507.555C516.034 503.398 513.021 499.21 510.008 495.02C492.705 470.961 475.388 446.884 451.259 428.702C424.15 408.274 394.672 406.818 365.522 421.72C324.313 442.786 310.837 497.419 335.32 537.194C358.71 575.193 411.882 585.219 449.389 557.883C458.033 551.583 462.385 553.197 468.021 560.783C477.9 574.079 488.179 587.1 498.768 599.838C504.544 606.787 504.422 612.226 496.334 616.389C492.804 618.206 489.281 620.042 485.758 621.879C472.172 628.959 458.575 636.045 444.53 642.065C431.905 647.477 430.57 648.819 439.41 659.083C461.713 684.978 484.052 710.843 506.39 736.707C522.399 755.242 538.408 773.778 554.404 792.325C565.408 805.084 565.911 805.322 577.129 792.591C597.624 769.332 618.064 746.025 638.717 722.474C654.182 704.84 669.766 687.069 685.583 669.08Z" stroke="#04B7AC" stroke-width="20" mask="url(#path-1-outside-1_243_677)"/>
</svg>
