<svg width="142" height="142" viewBox="0 0 142 142" fill="none" xmlns="http://www.w3.org/2000/svg">
<path d="M5.46154 71C5.46154 34.8041 34.8041 5.46154 71 5.46154C107.196 5.46154 136.538 34.8041 136.538 71C136.538 88.8267 128.351 105.681 116.431 117.698C113.994 120.155 110.158 120.155 106.684 120.154L106.5 120.154C100.467 120.154 95.5769 125.044 95.5769 131.077C95.5769 137.11 100.467 142 106.5 142C112.533 142 117.423 137.11 117.423 131.077C117.423 127.753 117.806 124.054 120.153 121.7C133.037 108.782 142 90.5361 142 71C142 31.7878 110.212 0 71 0C31.7878 0 0 31.7878 0 71C0 87.2443 6.42364 102.503 15.941 114.544C17.1834 116.116 18.4811 117.637 19.8272 119.1C19.8476 119.122 19.8456 119.157 19.8229 119.177C19.8006 119.196 19.7981 119.229 19.8174 119.252C28.9946 129.821 43.0077 138.249 54.4078 139.843C60.1272 140.642 65.7866 139.782 69.593 135.812C70.1716 135.208 70.6901 134.55 71.1488 133.84C72.8907 131.141 74.326 128.193 75.7595 125.248C78.3721 119.881 80.9787 114.527 85.4247 110.718C103.979 94.8215 110.434 77.3765 109.041 64.0643C108.206 56.0852 104.491 49.4765 98.6802 46.0763C95.0603 43.9582 90.8488 43.2137 86.4003 43.9933C84.9713 44.2438 83.4754 44.0741 81.9865 43.9053C81.0462 43.7986 80.1086 43.6923 79.1923 43.6923C76.176 43.6923 73.7308 46.1375 73.7308 49.1538C73.7308 52.1702 76.176 54.6154 79.1923 54.6154C81.4193 54.6154 83.3829 53.2504 85.324 51.9011C87.4888 50.3962 89.6256 48.9108 92.0682 49.3604C93.4722 49.6187 94.7624 50.1117 95.9219 50.7901C99.8821 53.1075 102.908 57.934 103.609 64.6327C104.73 75.3448 99.7505 90.5686 83.4761 105.171C76.3753 111.542 65.6164 111.541 58.5157 105.17C42.187 90.5197 37.2291 75.2448 38.3939 64.5266C39.1179 57.8644 42.1468 53.0699 46.1019 50.7716C47.2563 50.1008 48.5398 49.6136 49.9357 49.3581C52.3776 48.9113 54.5132 50.3963 56.6766 51.9006C58.6174 53.2502 60.5807 54.6154 62.8077 54.6154C65.824 54.6154 68.2692 52.1702 68.2692 49.1538C68.2692 46.1375 65.824 43.6923 62.8077 43.6923C61.8908 43.6923 60.9525 43.7988 60.0115 43.9056C58.5215 44.0747 57.0246 44.2446 55.5946 43.9938C51.1644 43.2167 46.9687 43.9512 43.358 46.0494C37.552 49.4232 33.8274 55.9944 32.9643 63.9366C31.4515 77.8576 38.5437 96.3385 59.1262 112.838C64.57 117.202 70.1378 123.827 67.0158 130.067C66.6211 130.855 66.1568 131.504 65.6503 132.032C63.5779 134.194 60.0566 135.118 55.1639 134.434C54.3179 134.315 53.4487 134.151 52.5613 133.943C52.5525 133.941 52.5472 133.932 52.5496 133.923C52.552 133.915 52.5471 133.906 52.5387 133.904C40.9344 130.667 29.1344 122.429 20.2258 111.158C11.3264 99.8982 5.46154 85.8012 5.46154 71ZM114.692 131.077C114.692 135.601 111.024 139.269 106.5 139.269C101.976 139.269 98.3077 135.601 98.3077 131.077C98.3077 126.552 101.976 122.885 106.5 122.885C111.024 122.885 114.692 126.552 114.692 131.077ZM111.962 131.077C111.962 134.093 109.516 136.538 106.5 136.538C103.484 136.538 101.038 134.093 101.038 131.077C101.038 128.061 103.484 125.615 106.5 125.615C109.516 125.615 111.962 128.061 111.962 131.077Z" fill="white"/>
<path d="M5.46154 71C5.46154 34.8041 34.8041 5.46154 71 5.46154C107.196 5.46154 136.538 34.8041 136.538 71C136.538 88.8267 128.351 105.681 116.431 117.698C113.994 120.155 110.158 120.155 106.684 120.154L106.5 120.154C100.467 120.154 95.5769 125.044 95.5769 131.077C95.5769 137.11 100.467 142 106.5 142C112.533 142 117.423 137.11 117.423 131.077C117.423 127.753 117.806 124.054 120.153 121.7C133.037 108.782 142 90.5361 142 71C142 31.7878 110.212 0 71 0C31.7878 0 0 31.7878 0 71C0 87.2443 6.42364 102.503 15.941 114.544C17.1834 116.116 18.4811 117.637 19.8272 119.1C19.8476 119.122 19.8456 119.157 19.8229 119.177C19.8006 119.196 19.7981 119.229 19.8174 119.252C28.9946 129.821 43.0077 138.249 54.4078 139.843C60.1272 140.642 65.7866 139.782 69.593 135.812C70.1716 135.208 70.6901 134.55 71.1488 133.84C72.8907 131.141 74.326 128.193 75.7595 125.248C78.3721 119.881 80.9787 114.527 85.4247 110.718C103.979 94.8215 110.434 77.3765 109.041 64.0643C108.206 56.0852 104.491 49.4765 98.6802 46.0763C95.0603 43.9582 90.8488 43.2137 86.4003 43.9933C84.9713 44.2438 83.4754 44.0741 81.9865 43.9053C81.0462 43.7986 80.1086 43.6923 79.1923 43.6923C76.176 43.6923 73.7308 46.1375 73.7308 49.1538C73.7308 52.1702 76.176 54.6154 79.1923 54.6154C81.4193 54.6154 83.3829 53.2504 85.324 51.9011C87.4888 50.3962 89.6256 48.9108 92.0682 49.3604C93.4722 49.6187 94.7624 50.1117 95.9219 50.7901C99.8821 53.1075 102.908 57.934 103.609 64.6327C104.73 75.3448 99.7505 90.5686 83.4761 105.171C76.3753 111.542 65.6164 111.541 58.5157 105.17C42.187 90.5197 37.2291 75.2448 38.3939 64.5266C39.1179 57.8644 42.1468 53.0699 46.1019 50.7716C47.2563 50.1008 48.5398 49.6136 49.9357 49.3581C52.3776 48.9113 54.5132 50.3963 56.6766 51.9006C58.6174 53.2502 60.5807 54.6154 62.8077 54.6154C65.824 54.6154 68.2692 52.1702 68.2692 49.1538C68.2692 46.1375 65.824 43.6923 62.8077 43.6923C61.8908 43.6923 60.9525 43.7988 60.0115 43.9056C58.5215 44.0747 57.0246 44.2446 55.5946 43.9938C51.1644 43.2167 46.9687 43.9512 43.358 46.0494C37.552 49.4232 33.8274 55.9944 32.9643 63.9366C31.4515 77.8576 38.5437 96.3385 59.1262 112.838C64.57 117.202 70.1378 123.827 67.0158 130.067C66.6211 130.855 66.1568 131.504 65.6503 132.032C63.5779 134.194 60.0566 135.118 55.1639 134.434C54.3179 134.315 53.4487 134.151 52.5613 133.943C52.5525 133.941 52.5472 133.932 52.5496 133.923C52.552 133.915 52.5471 133.906 52.5387 133.904C40.9344 130.667 29.1344 122.429 20.2258 111.158C11.3264 99.8982 5.46154 85.8012 5.46154 71ZM114.692 131.077C114.692 135.601 111.024 139.269 106.5 139.269C101.976 139.269 98.3077 135.601 98.3077 131.077C98.3077 126.552 101.976 122.885 106.5 122.885C111.024 122.885 114.692 126.552 114.692 131.077ZM111.962 131.077C111.962 134.093 109.516 136.538 106.5 136.538C103.484 136.538 101.038 134.093 101.038 131.077C101.038 128.061 103.484 125.615 106.5 125.615C109.516 125.615 111.962 128.061 111.962 131.077Z" stroke="white"/>
</svg>
