<svg width="531" height="426" viewBox="0 0 531 426" fill="none" xmlns="http://www.w3.org/2000/svg">
<path d="M201.923 412.785H9.44801C4.27735 412.785 0.0839844 408.592 0.0839844 403.42V52.6973C0.0839844 47.5266 4.27735 43.3333 9.44801 43.3333H201.923C207.095 43.3333 211.288 47.5266 211.288 52.6973V403.42C211.288 408.592 207.095 412.785 201.923 412.785Z" fill="#323235"/>
<path d="M188.883 373.416H22.4893C18.0373 373.416 14.428 369.807 14.428 365.356V64.7267C14.428 60.276 18.0373 56.6666 22.4893 56.6666H188.883C193.335 56.6666 196.944 60.276 196.944 64.7267V365.356C196.944 369.807 193.335 373.416 188.883 373.416Z" fill="white"/>
<path d="M120.856 390.957C120.856 398.123 115.047 403.932 107.88 403.932C100.715 403.932 94.9053 398.123 94.9053 390.957C94.9053 383.791 100.715 377.981 107.88 377.981C115.047 377.981 120.856 383.791 120.856 390.957Z" fill="#1E1E20"/>
<path d="M78.1907 49.4814H31.3747C31.0053 49.4814 30.708 49.1827 30.708 48.8147C30.708 48.4467 31.0053 48.148 31.3747 48.148H78.1907C78.5574 48.148 78.8574 48.4467 78.8574 48.8147C78.8574 49.1827 78.5574 49.4814 78.1907 49.4814Z" fill="white"/>
<path d="M478.244 382.785H258.623C249.171 382.785 241.509 375.124 241.509 365.672V247.613C241.509 238.163 249.171 230.501 258.623 230.501H478.244C487.695 230.501 495.357 238.163 495.357 247.613V365.672C495.357 375.124 487.695 382.785 478.244 382.785Z" fill="#047857"/>
<path d="M507.111 371.998V379.183C507.111 381.069 506.864 382.905 506.389 384.66C503.977 393.549 495.861 400.093 486.2 400.093H250.672C241.012 400.093 232.876 393.549 230.467 384.66C229.991 382.905 229.745 381.069 229.745 379.183V371.998C229.745 360.452 239.109 351.086 250.672 351.086H486.2C497.747 351.086 507.111 360.452 507.111 371.998Z" fill="#026448"/>
<path d="M530.808 340.072C530.808 354.167 519.381 365.593 505.285 365.593C491.191 365.593 479.763 354.167 479.763 340.072C479.763 325.975 491.191 314.548 505.285 314.548C519.381 314.548 530.808 325.975 530.808 340.072Z" fill="#047857"/>
<path d="M487.388 367.276C487.388 367.276 481.384 367.573 479.247 366.961C477.108 366.348 485.976 361.451 485.976 361.451L489.231 362.72L487.388 367.276Z" fill="#F7B369"/>
<path d="M516.617 340.072C516.617 346.329 511.543 351.403 505.285 351.403C499.028 351.403 493.955 346.329 493.955 340.072C493.955 333.813 499.028 328.741 505.285 328.741C511.543 328.741 516.617 333.813 516.617 340.072Z" fill="#064E3B"/>
<path d="M489.231 361.451C489.231 366.071 457.273 369.816 417.853 369.816C378.432 369.816 346.476 366.071 346.476 361.451C346.476 356.829 378.432 353.084 417.853 353.084C457.273 353.084 489.231 356.829 489.231 361.451Z" fill="#064E3B"/>
<path d="M248.455 425.472H247.383C244.751 425.472 242.523 423.524 242.171 420.915L238.432 393.168H254.904L253.708 420.443C253.584 423.253 251.269 425.472 248.455 425.472Z" fill="#064E3B"/>
<path d="M449.327 356.164L479.884 371.305C485.429 374.053 491.871 371.179 494.127 364.81L520.921 289.147C523.177 282.78 519.978 276.491 513.94 275.137L480.665 267.673C475.691 266.556 470.151 270.192 468.177 275.767L444.716 342.016C442.743 347.589 444.759 353.902 449.327 356.164Z" fill="#FFA131"/>
<path d="M488.508 425.472H489.581C492.213 425.472 494.44 423.524 494.792 420.915L498.531 393.168H482.059L483.253 420.443C483.377 423.253 485.695 425.472 488.508 425.472Z" fill="#064E3B"/>
<path d="M256.14 341.752C256.14 355.849 244.713 367.276 230.619 367.276C216.523 367.276 205.096 355.849 205.096 341.752C205.096 327.657 216.523 316.231 230.619 316.231C244.713 316.231 256.14 327.657 256.14 341.752Z" fill="#047857"/>
<path d="M443.65 353.519L474.242 368.56C479.794 371.29 486.195 368.533 488.391 362.332L514.491 288.633C516.687 282.431 513.446 276.261 507.414 274.889L474.175 267.325C469.204 266.195 463.711 269.7 461.788 275.131L438.937 339.657C437.014 345.086 439.077 351.269 443.65 353.519Z" fill="#FFB451"/>
<path d="M327.601 238.657H260.251C259.881 238.657 259.584 238.36 259.584 237.991C259.584 237.623 259.881 237.324 260.251 237.324H327.601C327.969 237.324 328.268 237.623 328.268 237.991C328.268 238.36 327.969 238.657 327.601 238.657Z" fill="#064E3B"/>
<path d="M506.389 384.66C503.977 393.549 495.861 400.093 486.2 400.093H250.672C241.012 400.093 232.876 393.549 230.467 384.66H506.389Z" fill="#064E3B"/>
<path d="M389.401 237.895C389.401 237.895 387.704 230.056 383.555 226.457C379.405 222.857 374.48 220.517 375.319 223.696C376.156 226.875 379.007 232.084 379.007 232.084L371.44 229.999C371.44 229.999 366.516 227.659 362.931 226.672C359.348 225.685 358.195 228.316 358.195 228.316C358.195 228.316 354.611 227.328 353.039 228.369C351.468 229.412 352.556 231.677 352.556 231.677C352.556 231.677 347.401 231.731 349.307 235.695C351.215 239.66 361.357 246.385 366.283 248.725C371.207 251.064 382.336 252.655 382.336 252.655C382.336 252.655 392.323 254.928 389.401 237.895Z" fill="#FBC6B1"/>
<path d="M361.659 239.347C361.516 239.347 361.376 239.268 361.305 239.133C361.201 238.937 361.277 238.695 361.472 238.592L374.688 231.652C374.884 231.549 375.125 231.627 375.229 231.82C375.331 232.016 375.255 232.257 375.06 232.361L361.845 239.301L361.659 239.347Z" fill="black"/>
<path d="M387.223 243.817L387.119 243.805C382.884 242.667 380.156 240.828 379.009 238.34C377.753 235.616 378.896 233.157 378.944 233.055C379.037 232.855 379.279 232.771 379.475 232.865C379.675 232.96 379.76 233.197 379.668 233.397C379.656 233.419 378.639 235.637 379.741 238.017C380.788 240.272 383.34 241.96 387.327 243.031C387.54 243.088 387.668 243.308 387.609 243.523C387.563 243.7 387.401 243.817 387.223 243.817Z" fill="black"/>
<path d="M419.797 301.484L395.627 249.785L369.956 255.16C369.956 255.16 376.557 293.877 383.563 301.105C393.768 311.637 419.797 301.484 419.797 301.484Z" fill="#ADA4F7"/>
<path d="M241.949 341.752C241.949 348.01 236.876 353.084 230.619 353.084C224.361 353.084 219.288 348.01 219.288 341.752C219.288 335.495 224.361 330.421 230.619 330.421C236.876 330.421 241.949 335.495 241.949 341.752Z" fill="#064E3B"/>
<path d="M405.121 313.136C404.915 313.136 404.8 313.216 404.725 313.288C403.64 314.349 404.699 319.739 405.792 323.611C406.497 321.356 407.768 316.571 406.671 314.279C406.408 313.732 406.033 313.384 405.527 313.213C405.361 313.157 405.229 313.136 405.121 313.136ZM405.735 326.249L405.376 325.096C405.045 324.029 402.193 314.619 404.152 312.701C404.435 312.425 404.953 312.157 405.787 312.435C406.507 312.677 407.052 313.179 407.411 313.924C409.016 317.279 406.271 324.799 406.152 325.117L405.735 326.249Z" fill="#6876AA"/>
<path d="M418.175 244.647C418.175 244.647 406.473 252.153 400.996 272.291C397.091 286.641 414.007 277.397 414.007 277.397L418.175 244.647Z" fill="#ADA4F7"/>
<path d="M398.123 307.104C398.123 307.104 352.985 274.555 320.079 277.597C287.171 280.639 321.441 364.844 321.441 364.844L366.445 356.557L366.405 349.344L421.685 357.832L402.67 319.511L398.123 307.104Z" fill="#9274CD"/>
<path d="M354.363 310.477C354.208 310.477 354.063 310.388 353.996 310.237C353.967 310.167 350.896 303.156 346.173 297.664C346.028 297.497 346.047 297.245 346.215 297.1C346.383 296.957 346.635 296.975 346.779 297.143C351.583 302.728 354.699 309.848 354.731 309.919C354.817 310.121 354.725 310.357 354.524 310.445L354.363 310.477Z" fill="#50447E"/>
<path d="M464.537 334.165C464.537 334.165 483.121 267.079 467.473 248.617C455.569 234.572 431.515 239.591 420.959 243.571C415.743 245.537 414.988 247.361 414.025 250.773L398.123 307.104L464.537 334.165Z" fill="#ADA4F7"/>
<path d="M453.96 229.739L453.667 241.705C453.667 241.705 451.424 245.093 444.409 245.491C439.183 245.788 437.379 244.564 437.379 244.564L438.255 238.52L439.116 232.627L451.827 230.155L453.96 229.739Z" fill="#FC8165"/>
<path d="M451.627 231.175C451.588 231.487 451.455 231.855 451.252 232.273C448.443 237.948 441.163 239.028 438.173 239.224L439.04 233.573L451.627 231.175Z" fill="black"/>
<path d="M408.563 285.435L408.457 285.42C408.239 285.363 408.107 285.139 408.165 284.92L412.511 268.448C412.568 268.229 412.787 268.089 413.011 268.156C413.229 268.213 413.361 268.437 413.303 268.656L408.957 285.129C408.909 285.313 408.744 285.435 408.563 285.435Z" fill="white"/>
<path d="M435.409 208.379C435.409 208.379 430.571 223.204 433.584 230.979C436.596 238.752 443.755 236.791 447.963 234.824C452.169 232.859 453.932 229.991 453.932 229.991C453.932 229.991 458.136 230.976 460.491 226.929C462.847 222.881 460.751 218.699 458.329 217.928C455.911 217.157 453.309 219.101 453.309 219.101L455.075 214.759C455.075 214.759 443.931 194.632 435.409 208.379Z" fill="#FBC6B1"/>
<path d="M437.768 226.335C437.612 226.335 437.464 226.244 437.399 226.091C436.155 223.175 437.964 219.884 438.041 219.747C438.149 219.553 438.393 219.484 438.585 219.592C438.779 219.7 438.848 219.944 438.74 220.137C438.723 220.167 437.047 223.227 438.136 225.777C438.221 225.981 438.129 226.216 437.923 226.304L437.768 226.335Z" fill="black"/>
<path d="M454.556 225.653L454.312 225.572C454.139 225.437 454.104 225.187 454.239 225.011L457.676 220.519C457.812 220.343 458.06 220.309 458.237 220.444C458.412 220.579 458.445 220.829 458.312 221.005L454.873 225.497L454.556 225.653Z" fill="black"/>
<path d="M458.529 224.135L455.799 224.005C455.579 223.995 455.408 223.807 455.417 223.585C455.428 223.365 455.639 223.215 455.837 223.205L458.549 223.335C458.769 223.345 458.94 223.532 458.929 223.753C458.919 223.968 458.743 224.135 458.529 224.135Z" fill="black"/>
<path d="M453.309 219.101C453.309 219.101 451.943 220.217 450.703 218.659C449.465 217.101 451.287 211.929 451.287 211.929C451.287 211.929 446.989 213.385 444.119 212.211C441.247 211.036 439.497 207.169 439.497 207.169C439.497 207.169 437.925 211.549 431.729 210.336C425.531 209.121 423.539 201.064 429.78 198.731C436.02 196.397 439.819 198.872 439.819 198.872C439.819 198.872 440.017 192.853 448.251 194.963C455.751 196.885 457.909 205.809 457.909 205.809C457.909 205.809 462.269 205.561 463.592 210.195C464.916 214.827 459.748 218.812 459.748 218.812C459.748 218.812 456.423 217.3 453.309 219.101Z" fill="black"/>
<path d="M443.659 220.365C443.428 220.361 443.253 220.177 443.259 219.957L443.323 217.273C443.328 217.053 443.471 216.899 443.732 216.883C443.953 216.888 444.129 217.072 444.124 217.292L444.059 219.975C444.053 220.193 443.875 220.365 443.659 220.365Z" fill="black"/>
<path d="M435.732 220.549C435.493 220.54 435.323 220.353 435.332 220.133L435.447 217.451C435.457 217.231 435.657 217.043 435.863 217.068C436.084 217.077 436.255 217.264 436.247 217.484L436.132 220.167C436.124 220.381 435.945 220.549 435.732 220.549Z" fill="black"/>
<path d="M445.601 215.033C445.472 215.033 445.344 214.971 445.268 214.853C444.468 213.631 442.743 214.171 442.669 214.193C442.463 214.261 442.233 214.145 442.165 213.936C442.097 213.727 442.212 213.501 442.42 213.432C442.519 213.401 444.801 212.675 445.936 214.416C446.057 214.6 446.007 214.848 445.82 214.969L445.601 215.033Z" fill="black"/>
<path d="M434.483 214.531L434.212 214.425C434.049 214.276 434.04 214.024 434.191 213.861C434.232 213.813 435.245 212.727 436.451 212.727C437.087 212.74 437.615 213.011 438.059 213.533C438.201 213.703 438.181 213.956 438.013 214.097C437.843 214.24 437.589 214.219 437.451 214.052C437.156 213.707 436.837 213.535 436.475 213.528C435.588 213.488 434.785 214.393 434.777 214.403L434.483 214.531Z" fill="black"/>
<path d="M364.76 373.912C363.028 380.524 316.639 383.959 314.893 384.269C313.147 384.581 299.749 383.498 295.355 381.084C292.177 379.34 294.865 368.481 297.911 365.402C300.956 362.319 310.18 361.188 310.18 361.188L338.909 345.365L367.24 347.908C367.24 347.908 365.84 369.793 364.76 373.912Z" fill="#FDA439"/>
<path d="M278.26 374.743C271.473 375.559 251.249 333.669 250.317 332.16C249.387 330.651 245.475 317.789 246.107 312.816C246.564 309.22 257.649 307.735 261.635 309.436C265.619 311.137 270.057 319.303 270.057 319.303L295.323 340.216L303.359 367.502C303.359 367.502 282.488 374.235 278.26 374.743Z" fill="#FFB451"/>
<path d="M449.857 335.511L449.724 335.493C449.451 335.42 449.285 335.139 449.359 334.864L451.012 328.633C451.084 328.36 451.361 328.195 451.64 328.267C451.916 328.34 452.08 328.621 452.007 328.896L450.353 335.128C450.292 335.359 450.084 335.511 449.857 335.511Z" fill="#534579"/>
<path d="M344.559 310.477C344.407 310.477 344.26 310.391 344.195 310.243C344.019 309.848 339.875 300.525 342.001 296.497C342.519 295.519 343.357 294.919 344.488 294.717C350.843 293.563 360.245 304.495 360.64 304.961C360.784 305.129 360.763 305.381 360.595 305.525C360.427 305.668 360.176 305.649 360.031 305.479C359.937 305.368 350.568 294.46 344.629 295.504C343.739 295.664 343.111 296.111 342.709 296.869C340.763 300.553 344.881 309.821 344.923 309.915C345.015 310.116 344.924 310.353 344.723 310.443L344.559 310.477Z" fill="#50447E"/>
<path d="M335.003 313.127C334.849 313.127 334.701 313.037 334.637 312.888C334.296 312.112 326.38 293.823 335.457 288.105C344.501 282.415 367.552 302.58 368.529 303.441C368.695 303.587 368.712 303.84 368.565 304.005C368.421 304.171 368.165 304.189 368.001 304.04C367.765 303.835 344.413 283.405 335.883 288.783C327.388 294.133 335.288 312.381 335.368 312.565C335.457 312.768 335.365 313.004 335.164 313.092L335.003 313.127Z" fill="#50447E"/>
<path d="M324.781 316.845C324.631 316.845 324.484 316.759 324.417 316.612C324.305 316.368 313.475 292.192 327.381 283.141C341.224 274.131 378.873 300.119 380.471 301.228C380.652 301.355 380.696 301.603 380.571 301.784C380.444 301.968 380.195 302.009 380.015 301.884C379.629 301.616 341.204 275.103 327.819 283.811C314.488 292.487 325.036 316.041 325.145 316.279C325.237 316.48 325.148 316.717 324.948 316.808L324.781 316.845Z" fill="#50447E"/>
<path d="M314.559 318.763C314.388 318.763 314.231 318.653 314.177 318.483C304.507 287.52 319.708 277.36 319.861 277.26C320.049 277.141 320.296 277.196 320.415 277.381C320.533 277.568 320.479 277.815 320.296 277.935C320.145 278.029 305.464 287.907 314.94 318.244C315.007 318.455 314.889 318.68 314.679 318.745L314.559 318.763Z" fill="#50447E"/>
<path d="M470.312 311.948C466.011 326.724 466.524 339.867 471.459 341.304C476.392 342.74 483.879 331.925 488.181 317.149C492.481 302.373 491.969 289.231 487.035 287.793C482.101 286.357 474.613 297.172 470.312 311.948Z" fill="#FFA131"/>
<path d="M400.996 319.867C400.697 319.861 400.473 319.624 400.481 319.34L400.655 312.703C400.661 312.419 400.927 312.176 401.183 312.201C401.468 312.208 401.692 312.445 401.685 312.729L401.511 319.365C401.504 319.645 401.275 319.867 400.996 319.867Z" fill="#534579"/>
<path d="M406.473 323.995C406.191 323.995 405.959 323.763 405.96 323.479L405.975 316.444C405.975 316.16 406.207 315.931 406.489 315.931C406.775 315.931 407.007 316.163 407.004 316.447L406.988 323.481C406.988 323.765 406.757 323.995 406.473 323.995Z" fill="#534579"/>
<path d="M464.537 334.165C464.537 334.165 401.171 294.657 371.532 300.669C347.628 305.519 284.259 326.612 284.259 326.612L304.669 373.416C304.669 373.416 376.58 353.885 382.683 354.567C389.739 355.353 428.417 370.135 442.545 365.593C456.675 361.053 464.537 334.165 464.537 334.165Z" fill="#9F81DA"/>
<path d="M293.924 347.14C293.753 347.14 293.595 347.031 293.541 346.86C293.476 346.647 293.595 346.424 293.805 346.359C296.552 345.512 359.891 326.017 375.419 326.017C375.756 326.017 376.071 326.027 376.361 326.044C381.624 326.384 388.472 327.528 395.724 328.739C407.432 330.692 419.537 332.715 425.943 331.487C436.143 329.533 443.3 322.164 443.369 322.091C443.521 321.931 443.775 321.925 443.936 322.079C444.095 322.232 444.101 322.484 443.948 322.644C443.875 322.72 436.541 330.272 426.093 332.273C419.556 333.525 407.373 331.493 395.592 329.528C388.361 328.32 381.531 327.18 376.309 326.844C362.744 325.965 294.727 346.912 294.043 347.124L293.924 347.14Z" fill="#50447E"/>
<path d="M289.215 338.376C289.045 338.376 288.889 338.269 288.835 338.1C288.765 337.891 288.881 337.664 289.091 337.596C289.748 337.383 354.917 316.243 374.457 316.813C384.924 317.092 392.985 317.859 400.097 318.533C406.145 319.108 411.373 319.592 416.148 319.564C426.169 319.477 433.245 316.865 433.315 316.839C433.527 316.763 433.752 316.867 433.831 317.073C433.908 317.28 433.804 317.511 433.596 317.588C433.525 317.615 426.327 320.276 416.156 320.363C411.347 320.396 406.093 319.907 400.024 319.329C392.921 318.656 384.875 317.892 374.436 317.613C374.2 317.607 373.957 317.604 373.707 317.604C353.444 317.604 289.985 338.147 289.34 338.357L289.215 338.376Z" fill="#50447E"/>
<path d="M286.232 331.537C286.069 331.537 285.916 331.437 285.857 331.276C285.78 331.069 285.887 330.839 286.093 330.763C286.716 330.533 348.639 307.883 373.917 306.584C399.208 305.292 420.236 310.889 420.445 310.947C420.659 311.005 420.785 311.225 420.729 311.437C420.668 311.649 420.457 311.779 420.237 311.72C420.028 311.663 399.101 306.088 373.959 307.384C348.8 308.676 286.991 331.285 286.369 331.513L286.232 331.537Z" fill="#50447E"/>
<path d="M376.536 342.959L376.244 342.971C375.153 343.055 374.979 343.517 374.921 343.668C374.181 345.621 378.596 350.968 381.021 353.591C381.053 351.405 380.897 346.027 378.707 343.861C378.093 343.255 377.381 342.959 376.536 342.959ZM381.389 354.964L381.101 354.843C380.273 353.985 373.033 346.391 374.173 343.384C374.447 342.661 375.124 342.253 376.181 342.173C377.411 342.084 378.424 342.457 379.268 343.293C382.296 346.285 381.812 354.252 381.791 354.589C381.779 354.748 381.676 354.884 381.528 354.939L381.389 354.964Z" fill="#50447E"/>
<path d="M459.451 242.535C459.451 242.535 511.277 268.019 499.497 308.733C490.008 341.529 432.879 312.716 432.879 312.716L436 281.841L465.447 284.985L459.451 242.535Z" fill="#ADA4F7"/>
<path d="M482.04 284.26C465.693 281.592 447.453 283.455 447.269 283.473C447.031 283.504 446.855 283.336 446.829 283.117C446.807 282.897 446.967 282.7 447.187 282.677C447.368 282.659 465.713 280.781 482.107 283.467C482.323 283.501 482.472 283.707 482.435 283.925C482.404 284.121 482.233 284.26 482.04 284.26Z" fill="white"/>
<path d="M476.296 277.596C473.653 277.596 469.76 280.263 467.957 281.616C472.088 281.371 477.729 280.58 478.365 279.177C478.435 279.029 478.483 278.787 478.143 278.368C477.781 277.923 477.291 277.676 476.64 277.613L476.296 277.596ZM466.717 282.473C466.552 282.473 466.403 282.372 466.344 282.216C466.284 282.057 466.331 281.876 466.463 281.767C466.723 281.549 472.921 276.455 476.719 276.816C477.579 276.9 478.268 277.252 478.763 277.863C479.336 278.567 479.259 279.145 479.093 279.508C477.955 282.017 467.876 282.435 466.732 282.473H466.717Z" fill="white"/>
<path d="M393.123 243.249L369.971 250.155C369.457 250.307 369.133 250.807 369.212 251.337C369.519 253.38 370.252 258.251 370.537 259.74C370.903 261.641 397.175 253.261 396.845 252.139L394.463 243.979C394.295 243.407 393.695 243.08 393.123 243.249Z" fill="#7C4FD3"/>
<path d="M402.624 265.905C401.864 267.447 400.951 269.771 401.416 270.891C401.54 271.191 401.755 271.371 402.095 271.46C402.248 271.504 402.323 271.468 402.388 271.408C402.997 270.848 402.912 268.165 402.624 265.905ZM402.216 272.299L401.887 272.253C401.305 272.101 400.879 271.739 400.657 271.205C399.797 269.132 402.212 264.885 402.489 264.408C402.576 264.26 402.74 264.184 402.917 264.211C403.085 264.241 403.219 264.375 403.248 264.544C403.427 265.58 404.256 270.804 402.943 272.011C402.736 272.2 402.488 272.299 402.216 272.299Z" fill="white"/>
<path d="M441.137 228.231L440.809 228.269C440.243 228.409 439.934 228.805 439.77 229.149L442.206 228.649C441.937 228.436 441.566 228.231 441.137 228.231ZM439.195 230.076L438.924 229.971C438.831 229.884 438.784 229.756 438.799 229.629C438.805 229.559 439.02 227.885 440.62 227.493C442.212 227.096 443.285 228.604 443.329 228.667C443.407 228.777 443.422 228.919 443.373 229.044C443.322 229.169 443.213 229.26 443.083 229.288L439.276 230.068L439.195 230.076Z" fill="black"/>
<path d="M439.652 244.647C439.652 244.647 435.249 265.839 435.249 266.945C435.249 268.052 449.856 267.803 449.856 267.803L449.067 244.647H439.652Z" fill="#DB2A65"/>
<path d="M453.96 232.007C453.96 232.007 456.131 232.517 457.428 234.416C459.633 237.639 459.036 241.164 458.684 242.14C458.331 243.119 448.312 247.545 440.984 246.169C432.879 244.647 430.788 240.751 430.788 240.751C429.679 237.869 432 233.629 433.584 230.979C433.584 230.979 435.732 242.124 453.96 232.007Z" fill="#EA366E"/>
<path d="M456.22 241.793C456.22 241.793 464.384 271.053 462.635 272.68C460.883 274.305 448.129 274.929 446.503 274.305C444.877 273.68 445.848 243.204 445.848 243.204L456.22 241.793Z" fill="#EA366E"/>
<path d="M444.936 243.897C444.285 243.897 443.603 243.872 442.887 243.816C442.668 243.8 442.503 243.607 442.52 243.387C442.535 243.167 442.731 243.001 442.951 243.02C450.696 243.611 454.493 240.479 454.531 240.448C454.699 240.305 454.951 240.325 455.095 240.491C455.239 240.659 455.22 240.912 455.052 241.055C454.905 241.181 451.66 243.897 444.936 243.897Z" fill="#FFAF45"/>
<path d="M402.069 304.811L401.987 304.804C401.771 304.757 401.633 304.545 401.677 304.329L407.113 278.215C407.157 278 407.352 277.863 407.587 277.905C407.804 277.951 407.941 278.163 407.897 278.379L402.463 304.493C402.421 304.683 402.255 304.811 402.069 304.811Z" fill="white"/>
<path d="M423.609 293.411L412.652 296.947C411.309 297.379 409.869 296.641 409.437 295.3L400.751 268.38C400.317 267.037 401.055 265.599 402.399 265.165L413.356 261.631C414.697 261.196 416.139 261.933 416.571 263.276L425.256 290.195C425.691 291.537 424.953 292.976 423.609 293.411Z" fill="white"/>
<path d="M421.453 294.107L410.495 297.641C409.152 298.076 407.713 297.339 407.28 295.995L398.593 269.077C398.161 267.735 398.899 266.295 400.241 265.861L411.197 262.325C412.54 261.892 413.98 262.631 414.415 263.972L423.099 290.891C423.532 292.233 422.796 293.673 421.453 294.107Z" fill="#50447E"/>
<path d="M437.115 287.056C437.115 287.056 431.924 279.872 429.337 278.444C426.337 276.789 420.741 276.199 420.741 276.199L422.432 281.443C422.432 281.443 403.668 283.339 403.308 286.672C402.949 290.005 408.423 289.952 408.423 289.952C408.423 289.952 412.171 304.296 416.671 304.889C421.171 305.481 432.955 305.945 436.608 300.047C440.263 294.148 437.115 287.056 437.115 287.056Z" fill="#FC8165"/>
<path d="M435.892 282.917L433.461 306.955C433.408 307.487 433.747 307.976 434.267 308.105C436.272 308.6 441.055 309.775 442.54 310.079C444.437 310.467 446.693 282.981 445.528 282.859L437.076 281.956C436.483 281.892 435.952 282.323 435.892 282.917Z" fill="#7C4FD3"/>
<path d="M411.948 291.109L411.863 291.1L408.337 290.343C408.124 290.297 407.984 290.084 408.031 289.867C408.079 289.652 408.284 289.509 408.507 289.561L412.032 290.319C412.248 290.364 412.385 290.579 412.34 290.795C412.299 290.981 412.133 291.109 411.948 291.109Z" fill="black"/>
<path d="M422.432 281.843C422.229 281.843 422.053 281.687 422.033 281.479C422.015 281.259 422.176 281.065 422.396 281.044L425.412 280.768C425.648 280.739 425.825 280.912 425.847 281.131C425.865 281.351 425.704 281.544 425.484 281.565L422.469 281.841L422.432 281.843Z" fill="black"/>
<path d="M446.503 279.688C446.243 279.664 446.083 279.468 446.104 279.248L446.659 273.737C446.681 273.519 446.869 273.359 447.097 273.379C447.317 273.401 447.479 273.597 447.457 273.817L446.901 279.328C446.88 279.533 446.707 279.688 446.503 279.688Z" fill="#EA366E"/>
<path d="M450.683 279.688C450.463 279.688 450.284 279.509 450.284 279.288V274.305C450.284 274.084 450.463 273.905 450.683 273.905C450.904 273.905 451.083 274.084 451.083 274.305V279.288C451.083 279.509 450.904 279.688 450.683 279.688Z" fill="#EA366E"/>
<path d="M455.817 279.289C455.629 279.289 455.463 279.155 455.424 278.964L454.399 273.508C454.359 273.291 454.501 273.081 454.717 273.04C454.945 272.995 455.145 273.144 455.185 273.36L456.212 278.815C456.251 279.032 456.109 279.243 455.892 279.283L455.817 279.289Z" fill="#EA366E"/>
<path d="M460.633 278.696C460.463 278.696 460.304 278.587 460.25 278.416L458.648 273.229C458.584 273.019 458.701 272.795 458.913 272.728C459.129 272.663 459.348 272.781 459.414 272.992L461.016 278.179C461.081 278.389 460.962 278.613 460.75 278.68L460.633 278.696Z" fill="#EA366E"/>
<path d="M464.635 276.599C464.495 276.599 464.36 276.527 464.285 276.396L461.171 270.863C461.063 270.671 461.131 270.427 461.323 270.317C461.519 270.209 461.759 270.277 461.868 270.471L464.983 276.003C465.091 276.195 465.024 276.439 464.831 276.548L464.635 276.599Z" fill="#EA366E"/>
<path d="M434.781 271.881L434.692 271.871C434.475 271.821 434.341 271.607 434.392 271.392L435.541 266.428C435.591 266.213 435.808 266.072 436.021 266.129C436.237 266.179 436.371 266.393 436.32 266.608L435.171 271.572C435.129 271.756 434.964 271.881 434.781 271.881Z" fill="#DB2A65"/>
<path d="M439.65 273.215C439.429 273.215 439.25 273.036 439.25 272.815V267.113C439.25 266.892 439.429 266.713 439.65 266.713C439.873 266.713 440.05 266.892 440.05 267.113V272.815C440.05 273.036 439.873 273.215 439.65 273.215Z" fill="#DB2A65"/>
<path d="M444.764 272.696C444.571 272.696 444.4 272.556 444.368 272.359L443.564 267.175C443.529 266.956 443.68 266.751 443.899 266.717C444.125 266.685 444.321 266.833 444.357 267.052L445.16 272.236C445.195 272.455 445.045 272.659 444.825 272.693L444.764 272.696Z" fill="#DB2A65"/>
<path d="M447.507 271.788C447.293 271.788 447.117 271.621 447.107 271.408L446.551 260.039C446.54 259.819 446.712 259.631 446.931 259.62C447.149 259.615 447.34 259.78 447.352 260L447.905 271.368C447.916 271.588 447.745 271.777 447.525 271.788H447.507Z" fill="#FFAF45"/>
<path d="M374.873 259.907C374.685 259.907 374.519 259.773 374.48 259.583L372.609 249.861C372.568 249.643 372.709 249.433 372.927 249.392C373.153 249.36 373.353 249.493 373.396 249.709L375.268 259.431C375.308 259.648 375.168 259.859 374.951 259.9L374.873 259.907Z" fill="#50447E"/>
<path d="M382.935 257.777C382.755 257.777 382.593 257.659 382.547 257.479L379.857 247.192C379.8 246.977 379.927 246.759 380.14 246.703C380.352 246.643 380.573 246.775 380.629 246.988L383.32 257.276C383.376 257.489 383.249 257.708 383.035 257.764L382.935 257.777Z" fill="#50447E"/>
<path d="M389.936 255.539C389.759 255.539 389.597 255.421 389.549 255.243L386.836 245.112C386.779 244.9 386.907 244.68 387.12 244.623C387.335 244.568 387.552 244.693 387.609 244.907L390.323 255.036C390.38 255.249 390.252 255.469 390.04 255.527L389.936 255.539Z" fill="#50447E"/>
<path d="M445.56 288.844L445.492 288.839L435.664 287.144C435.447 287.107 435.3 286.9 435.337 286.683C435.375 286.465 435.587 286.316 435.8 286.356L445.629 288.049C445.845 288.087 445.992 288.295 445.955 288.512C445.92 288.707 445.751 288.844 445.56 288.844Z" fill="#50447E"/>
<path d="M444.9 297.804L444.812 297.795L434.693 295.501C434.479 295.452 434.343 295.239 434.391 295.023C434.44 294.805 434.645 294.672 434.869 294.72L444.988 297.013C445.203 297.063 445.34 297.276 445.291 297.492C445.248 297.679 445.084 297.804 444.9 297.804Z" fill="#50447E"/>
<path d="M444.108 305.62L444.019 305.609L434.024 303.279C433.808 303.229 433.675 303.013 433.725 302.799C433.775 302.584 433.981 302.443 434.207 302.5L444.199 304.831C444.415 304.88 444.548 305.096 444.497 305.311C444.455 305.496 444.291 305.62 444.108 305.62Z" fill="#50447E"/>
<path d="M466.717 323.88C453.723 321.805 443.479 311.719 443.376 311.617C443.22 311.461 443.22 311.207 443.375 311.051C443.529 310.895 443.784 310.896 443.941 311.049C444.041 311.149 454.109 321.056 466.781 323.085C466.999 323.12 467.147 323.325 467.112 323.544C467.081 323.741 466.912 323.88 466.717 323.88Z" fill="white"/>
<path d="M455.188 342.143L455.088 342.132C448.42 340.419 447.159 330.876 447.108 330.472C447.081 330.252 447.237 330.052 447.457 330.025C447.688 330.007 447.873 330.155 447.903 330.372C447.915 330.467 449.148 339.78 455.287 341.356C455.501 341.412 455.631 341.629 455.576 341.843C455.528 342.024 455.365 342.143 455.188 342.143Z" fill="#50447E"/>
<path d="M301.256 365.993C301.079 365.993 300.916 365.873 300.868 365.693C300.813 365.477 300.944 365.26 301.157 365.205L375.213 346.353C375.436 346.305 375.645 346.428 375.7 346.641C375.755 346.857 375.625 347.075 375.412 347.129L301.357 365.981L301.256 365.993Z" fill="#50447E"/>
<path d="M435.141 357.305C424.885 357.305 382.029 346.409 380.143 345.928C379.929 345.873 379.8 345.655 379.855 345.441C379.909 345.227 380.12 345.098 380.341 345.152C380.819 345.275 428.251 357.327 436.075 356.463C443.761 355.608 451.625 340.049 451.703 339.893C451.801 339.695 452.043 339.615 452.24 339.713C452.437 339.812 452.519 340.053 452.419 340.251C452.091 340.908 444.281 356.356 436.163 357.256C435.873 357.29 435.529 357.305 435.141 357.305Z" fill="#50447E"/>
<path d="M297.451 357.259C297.277 357.259 297.117 357.147 297.068 356.973C297.003 356.761 297.124 356.539 297.335 356.476C300.153 355.636 365.069 336.305 375.748 336.305C375.985 336.305 376.195 336.313 376.379 336.335C379.493 336.668 385.657 337.745 392.796 338.991C405.497 341.209 421.307 343.971 428.115 343.971C436.581 343.971 447.095 331.745 447.2 331.621C447.345 331.451 447.597 331.435 447.764 331.576C447.932 331.719 447.953 331.972 447.809 332.139C447.371 332.655 436.951 344.769 428.115 344.769C421.239 344.769 405.391 342.003 392.656 339.779C385.533 338.535 379.383 337.461 376.293 337.129C368.027 336.239 298.268 357.032 297.564 357.243L297.451 357.259Z" fill="#50447E"/>
<path d="M463.572 185.28C463.856 183.279 465.616 181.916 467.803 182.227C469.943 182.531 471.256 184.332 470.972 186.333C470.688 188.333 468.917 189.744 466.776 189.44C464.589 189.128 463.287 187.28 463.572 185.28ZM474.979 166.153C475.351 163.548 473.369 161.461 469.785 160.951C466.341 160.461 463.643 161.407 461.689 163.456L457.593 159.881C460.703 156.715 465.195 155.172 471.012 156C477.856 156.972 481.972 160.739 481.209 166.091C480.131 173.677 472.073 173.243 471.292 178.735L465.38 177.893C466.361 171.004 474.317 170.807 474.979 166.153Z" fill="#80BAFF"/>
<path d="M211.709 31.12C211.709 48.0493 231.601 61.772 256.14 61.772C280.68 61.772 300.573 48.0493 300.573 31.12C300.573 14.1907 280.68 0.466676 256.14 0.466676C231.601 0.466676 211.709 14.1907 211.709 31.12Z" fill="#80BAFF"/>
<path d="M256.14 55.348L224.103 71.6147L234.813 51.2333L256.14 55.348Z" fill="#80BAFF"/>
<path d="M74.116 239.24H226.66C229.828 239.24 232.397 236.672 232.397 233.504V97.364C232.397 94.196 229.828 91.628 226.66 91.628H74.116C70.9467 91.628 68.3787 94.196 68.3787 97.364V233.504C68.3787 236.672 70.9467 239.24 74.116 239.24Z" fill="#66666B"/>
<path d="M82.1421 229H218.858C221.697 229 224 226.895 224 224.298V112.702C224 110.105 221.697 108 218.858 108H82.1421C79.3016 108 77 110.105 77 112.702V224.298C77 226.895 79.3016 229 82.1421 229Z" fill="white"/>
<mask id="mask0_66_1245" style="mask-type:alpha" maskUnits="userSpaceOnUse" x="72" y="108" width="157" height="121">
<path d="M72.032 111.636V225.317C72.032 227.155 73.5266 228.637 75.3626 228.637H225.396C227.233 228.637 228.727 227.155 228.727 225.317V111.636C228.727 111.073 228.588 110.545 228.348 110.085C227.785 109.028 226.671 108.317 225.396 108.317H75.3626C73.5266 108.317 72.032 109.799 72.032 111.636Z" fill="white"/>
<path d="M72.032 111.636V225.317C72.032 227.155 73.5266 228.637 75.3626 228.637H225.396C227.233 228.637 228.727 227.155 228.727 225.317V111.636C228.727 111.073 228.588 110.545 228.348 110.085C227.785 109.028 226.671 108.317 225.396 108.317H75.3626C73.5266 108.317 72.032 109.799 72.032 111.636Z" stroke="black"/>
</mask>
<g mask="url(#mask0_66_1245)">
<path d="M122.282 255.504C124.77 255.895 127.259 258.241 132.891 257.98C138.523 257.719 145.727 257.198 151.882 256.677C158.038 256.155 166.29 257.068 169.695 254.2C170.35 250.942 169.826 242.08 169.957 236.215C170.088 230.351 170.612 220.837 170.35 213.538C170.088 206.24 170.022 202.982 169.302 200.571C168.582 198.16 168.647 196.009 168.647 196.009C173.886 195.032 178.536 193.468 179.977 189.493C181.417 185.518 181.155 180.044 180.304 176.33C179.453 172.616 178.47 172.942 176.375 168.185C174.279 163.428 172.838 161.343 169.761 157.954C166.683 154.566 159.152 147.007 155.615 146.029C152.996 143.944 145.596 142.51 138.719 146.681C131.843 150.851 125.884 155.347 123.068 159.648C120.252 163.949 119.793 166.295 116.912 171.573C114.031 176.851 110.822 184.476 115.013 190.666C119.204 196.857 125.163 196.14 125.163 196.14C124.509 205.197 124.443 207.283 124.64 215.298C124.836 223.313 121.758 254.005 122.282 255.504Z" fill="white"/>
<path d="M122.697 255.031C123.488 255.182 124.266 255.509 125.158 255.883C126.998 256.656 129.324 257.627 132.992 257.461C137.997 257.229 144.861 256.756 151.824 256.165C153.516 256.021 155.4 255.985 157.222 255.951C161.971 255.862 166.879 255.77 169.282 253.818C169.675 251.724 169.609 247.33 169.546 243.079C169.51 240.652 169.473 238.143 169.519 236.049C169.555 234.454 169.619 232.588 169.69 230.571C169.871 225.31 170.098 218.763 169.909 213.491L169.855 211.971C169.635 205.702 169.534 202.841 168.88 200.647C168.162 198.234 168.218 196.113 168.22 196.024C168.224 195.902 168.312 195.8 168.432 195.777C173.078 194.907 178.024 193.476 179.476 189.458C180.863 185.62 180.633 180.184 179.792 176.5C179.329 174.473 178.845 173.711 178.113 172.558C177.542 171.659 176.832 170.539 175.908 168.438C173.799 163.632 172.367 161.61 169.391 158.324C166.723 155.376 159.021 147.511 155.481 146.529C155.446 146.52 155.415 146.504 155.388 146.482C154.254 145.577 151.69 144.519 148.195 144.519C145.937 144.519 142.495 144.975 138.922 147.149C131.136 151.888 125.939 156.204 123.476 159.978C121.878 162.426 121.049 164.236 120.09 166.331C119.39 167.86 118.596 169.593 117.379 171.831C114.593 176.952 111.365 184.466 115.482 190.568C118.746 195.405 123.059 195.928 124.761 195.928C125.101 195.928 125.298 195.905 125.306 195.904C125.38 195.896 125.461 195.92 125.516 195.974C125.573 196.027 125.602 196.103 125.596 196.18C124.944 205.239 124.885 207.375 125.077 215.226C125.181 219.467 124.375 229.988 123.665 239.27C123.118 246.412 122.554 253.784 122.697 255.031ZM132.151 258C128.859 257.999 126.695 257.091 124.957 256.362C124.029 255.973 123.228 255.636 122.438 255.512C122.344 255.497 122.264 255.431 122.233 255.34C121.983 254.624 122.417 248.753 123.147 239.231C123.856 229.961 124.661 219.454 124.557 215.239C124.367 207.453 124.423 205.271 125.056 196.441C124.973 196.444 124.874 196.447 124.761 196.447C122.976 196.447 118.454 195.902 115.05 190.858C110.776 184.522 114.071 176.823 116.922 171.583C118.131 169.361 118.921 167.637 119.618 166.115C120.586 164.001 121.421 162.175 123.041 159.695C125.546 155.855 130.798 151.485 138.652 146.706C142.327 144.47 145.87 144 148.195 144C151.781 144 154.398 145.049 155.671 146.044C159.219 147.078 166.44 154.29 169.777 157.976C172.794 161.308 174.246 163.358 176.385 168.23C177.292 170.295 177.99 171.396 178.552 172.28C179.286 173.436 179.816 174.27 180.299 176.385C181.094 179.868 181.484 185.428 179.965 189.634C178.447 193.836 173.467 195.346 168.739 196.247C168.744 196.835 168.811 198.593 169.379 200.499C170.051 202.756 170.152 205.638 170.375 211.952L170.429 213.472C170.618 218.763 170.391 225.32 170.209 230.589C170.139 232.604 170.075 234.468 170.039 236.061C169.993 238.145 170.03 240.649 170.066 243.071C170.133 247.611 170.197 251.899 169.774 254.009C169.762 254.066 169.732 254.118 169.688 254.156C167.169 256.283 162.117 256.378 157.232 256.47C155.419 256.504 153.543 256.539 151.868 256.681C144.899 257.274 138.028 257.747 133.016 257.979C132.719 257.993 132.431 258 132.151 258Z" fill="#100F0D"/>
<path d="M134.512 178.257C136.476 176.501 136.135 173.204 137.5 171.729C139.428 169.648 140.211 168.497 142.836 169.213C145.462 169.929 147.055 171.302 146.999 172.206C146.977 172.553 146.294 173.03 145.824 173.117C145.739 174.202 144.715 175.069 144.203 176.153C143.69 177.238 143.221 179.146 142.026 180.708C140.83 182.27 138.141 185.089 134 186C134.171 180.968 134.512 178.257 134.512 178.257Z" fill="#FBC6B1"/>
<path d="M148.814 117C145.452 117 139.369 119.673 138.799 124.431C138.228 129.19 138.799 132.123 138.799 132.123C137.024 131.08 135.883 132.319 136.01 134.6C136.136 136.881 138.038 137.012 139.115 136.751C139.559 140.271 141.778 142.553 142.221 143.009C142.221 146.399 141.904 149.201 141.904 149.201L149.13 161C150.652 156.763 154.075 153.113 154.962 148.941C154.011 148.615 153.948 143.987 153.948 143.987C156.42 141.64 156.42 139.228 156.547 136.686C159.145 136.816 160.16 131.276 157.18 131.797C157.497 127.756 157.561 124.17 156.483 122.215C155.406 120.259 152.934 117 148.814 117Z" fill="#FBC6B1"/>
<path d="M148.811 130.078C147.91 130.848 148.03 131.686 148.167 132.684C148.252 133.307 148.325 133.879 148.574 134.478C148.904 135.271 150.001 136.033 148.219 136.496C147.834 136.596 147.999 137.087 148.385 136.986C149.126 136.794 150.217 136.175 149.962 135.424C149.746 134.789 149.136 134.333 148.937 133.66C148.66 132.718 148.373 131.191 149.255 130.438C149.533 130.2 149.09 129.84 148.811 130.078Z" fill="#100F0D"/>
<path d="M144.552 131.74C144.639 131.031 145.221 130.791 145.817 130.548C146.141 130.416 145.999 129.888 145.671 130.022C145.27 130.185 144.872 130.342 144.534 130.618C144.191 130.898 144.054 131.318 144.002 131.74C143.96 132.089 144.51 132.085 144.552 131.74Z" fill="#100F0D"/>
<path d="M142.371 129.934C142.833 129.479 143.252 129.057 143.801 128.814C144.389 128.554 145.086 128.711 145.678 128.848C146.002 128.923 146.14 128.24 145.814 128.165C145.165 128.015 144.535 127.936 143.88 128.065C143.203 128.197 142.65 128.791 142.113 129.322C141.846 129.586 142.102 130.201 142.371 129.934Z" fill="#100F0D"/>
<path d="M152.276 131.74C152.32 131.031 152.611 130.791 152.909 130.548C153.07 130.416 153 129.888 152.836 130.022C152.635 130.185 152.436 130.342 152.267 130.618C152.095 130.898 152.027 131.318 152.001 131.74C151.98 132.089 152.255 132.085 152.276 131.74Z" fill="#100F0D"/>
<path d="M154.887 129.332C154.322 128.782 153.808 128.302 153.12 128.092C152.489 127.899 151.813 128.048 151.186 128.191C150.86 128.265 150.998 128.938 151.322 128.864C151.954 128.72 152.568 128.639 153.199 128.831C153.743 128.997 154.187 129.506 154.629 129.935C154.898 130.198 155.154 129.592 154.887 129.332Z" fill="#100F0D"/>
<path d="M146.101 140.348C147.213 140.998 148.325 141.057 149.712 140.967C150.094 140.942 150.098 140.524 149.712 140.549C148.508 140.627 147.508 140.626 146.525 140.052C146.23 139.88 145.804 140.174 146.101 140.348Z" fill="#100F0D"/>
<path d="M149.843 137.116C147.906 136.807 145.65 137.116 144.742 138.056C143.834 138.997 143.791 139.381 144.44 139.681C145.088 139.981 145.649 139.98 147.725 139.767C149.8 139.553 152.091 140.109 152.782 139.981C153.474 139.852 152.523 137.544 149.843 137.116Z" fill="#9FA4C4"/>
<path d="M138.434 125.011C137.1 125.207 135.598 126.651 136.099 129.043C136.599 131.436 138.1 132.1 138.267 133.075C138.434 134.05 138.35 135.955 139.018 135.999C139.685 136.043 139.059 134.272 139.56 132.632C140.06 130.992 140.018 130.638 139.977 128.733C139.935 126.828 139.644 124.833 138.434 125.011Z" fill="#9FA4C4"/>
<path d="M157.496 126C158.772 126.353 159.249 129.258 158.877 130.79C158.506 132.321 157.177 133.106 157.018 132.988C156.859 132.871 157.815 129.18 157.496 126Z" fill="#9FA4C4"/>
<path d="M146.499 118.849C146.907 117.908 147.439 117.182 148.452 116.691C150.029 115.927 152.265 117.001 152.498 118.566C152.54 118.848 153.04 118.851 152.997 118.566C152.768 117.024 151.326 116.145 149.678 116.01C147.829 115.86 146.602 117.382 146.018 118.731C145.901 119 146.384 119.115 146.499 118.849Z" fill="#9FA4C4"/>
<path d="M143.599 119.675C143.014 117.928 144.407 116.219 145.722 115.688C147.043 115.154 149.007 115.724 149.537 117.389C149.639 117.713 150.088 117.573 149.984 117.246C149.336 115.208 147.234 114.685 145.598 115.167C144.015 115.634 142.51 117.904 143.152 119.818C143.259 120.139 143.708 120 143.599 119.675Z" fill="#9FA4C4"/>
<path d="M137.404 176.314C138.533 175.83 139.957 174.975 141.053 175.928C141.379 176.209 141.629 176.598 141.89 176.924C141.988 177.047 142.08 177.175 142.165 177.304C142.231 177.421 142.297 177.538 142.362 177.655C142.598 178.082 142.284 178.355 141.422 178.471C140.75 178.205 140.44 177.471 139.744 177.253C138.892 176.986 138.19 177.399 137.399 177.638C137.078 177.735 137.216 178.167 137.541 178.069C138.555 177.762 139.269 177.343 140.188 178.161C140.516 178.452 140.934 178.849 141.418 178.959C142.21 179.141 143.126 178.703 142.986 177.935C142.815 177.008 141.896 175.903 141.044 175.31C139.887 174.504 138.202 175.471 137.135 175.928C136.828 176.06 137.098 176.445 137.404 176.314Z" fill="#100F0D"/>
<path d="M138.345 173.7C139.494 172.802 140.847 171.978 142.028 173.278C142.405 173.694 142.733 174.176 143.046 174.648C143.6 175.485 143.34 176.504 142.294 176.488C141.986 176.483 141.986 176.995 142.294 177C142.946 177.01 143.563 176.76 143.898 176.14C144.289 175.42 143.456 174.368 143.102 173.868C142.571 173.119 142.015 172.311 141.131 172.059C140.088 171.762 138.881 172.649 138.104 173.257C137.857 173.45 138.095 173.895 138.345 173.7Z" fill="#100F0D"/>
<path d="M139.442 172.031C140.105 171.157 141.093 170.137 142.216 170.808C142.711 171.103 143.123 171.607 143.613 171.929C143.812 172.048 144.013 172.166 144.214 172.281C144.574 172.49 146.482 173.667 144.887 174.407C144.216 174.718 142.784 173.537 142.109 173.237C141.791 173.095 141.655 173.668 141.969 173.808C143.121 174.321 144.379 175.64 145.595 174.628C146.34 174.01 145.927 172.989 145.395 172.42C144.979 171.977 144.381 171.715 143.881 171.417C143.297 171.071 142.791 170.318 142.143 170.101C140.912 169.689 139.83 170.607 139.067 171.612C138.847 171.901 139.221 172.322 139.442 172.031Z" fill="#100F0D"/>
<path d="M146.502 173.99C147.124 173.82 148.169 173.219 147.977 172.305C147.679 170.892 146.025 170.579 145.019 169.996C143.809 169.294 142.903 168.771 141.501 169.101C140.145 169.421 139.04 170.739 138.079 171.743C137.838 171.995 138.202 172.396 138.443 172.144C139.728 170.802 141.096 169.266 143.033 169.588C143.881 169.729 144.627 170.445 145.398 170.828C145.742 171 146.095 171.151 146.44 171.324C147.349 171.778 147.364 173.169 146.366 173.443C146.044 173.532 146.18 174.079 146.502 173.99Z" fill="#100F0D"/>
<path d="M161.526 175.808C161.812 174.083 161.943 172.352 162.061 170.61C162.129 169.618 162.132 168.655 162.37 167.68C162.695 166.356 163.553 165.832 164.807 165.521C165.145 165.437 165.002 164.925 164.664 165.009C162.768 165.48 162.006 166.455 161.674 168.38C161.261 170.774 161.404 173.255 161.004 175.667C160.948 176.001 161.47 176.145 161.526 175.808Z" fill="#100F0D"/>
<path d="M159.508 178.051C158.848 177.835 158.56 176.582 160.375 175.07C162.19 173.557 164.873 173.86 166.111 174.681C167.348 175.502 168.545 180.6 169.453 183.279C170.361 185.958 172.012 189.068 170.155 193C166.977 192.698 166.523 190.623 163.841 183.797C162.355 183.495 161.737 182.674 162.149 181.896C160.209 181.766 159.549 180.773 160.581 179.865C159.26 179.865 158.972 178.743 159.508 178.051Z" fill="#FBC6B1"/>
<path d="M159.384 178.902C160.45 177.284 162.141 176.617 163.776 176.578C164.074 176.571 164.075 175.993 163.776 176C162.029 176.042 160.197 176.763 159.057 178.494C158.868 178.779 159.194 179.19 159.384 178.902Z" fill="#100F0D"/>
<path d="M160.366 179.957C161.609 179.1 163.388 178.822 164.82 178.519C165.135 178.453 165.002 177.94 164.689 178.006C163.202 178.32 161.409 178.606 160.116 179.497C159.847 179.682 160.095 180.143 160.366 179.957Z" fill="#100F0D"/>
<path d="M161.252 182C162.671 181.999 164.731 182.043 165.911 181.324C166.172 181.164 165.801 180.89 165.542 181.047C164.497 181.684 162.49 181.608 161.252 181.609C160.916 181.609 160.916 182 161.252 182Z" fill="#100F0D"/>
<path d="M170.452 181.97C172.15 181.157 173.978 180.953 175.786 180.637C176.161 180.571 176.002 179.94 175.63 180.005C173.762 180.331 171.906 180.565 170.155 181.403C169.807 181.571 170.107 182.135 170.452 181.97Z" fill="#100F0D"/>
<path d="M169.387 181.952C171.032 180.835 172.903 180.137 174.816 179.489C175.14 179.379 175 178.906 174.673 179.017C172.719 179.679 170.795 180.388 169.115 181.53C168.84 181.717 169.109 182.142 169.387 181.952Z" fill="#100F0D"/>
<path d="M167.008 168.335C167.433 170.088 167.825 171.843 168.082 173.621C168.329 175.328 168.17 177.046 168.382 178.744C168.425 179.083 169.041 179.087 168.998 178.744C168.786 177.048 168.917 175.327 168.698 173.621C168.463 171.795 168.037 169.989 167.602 168.193C167.52 167.855 166.926 167.998 167.008 168.335Z" fill="#100F0D"/>
<path d="M127.238 167.194C126.773 169.136 127.113 171.331 127.226 173.299C127.369 175.782 127.278 178.259 127.226 180.741C127.219 181.087 127.924 181.086 127.931 180.741C127.975 178.607 128.035 176.481 127.974 174.345C127.941 173.181 127.892 172.021 127.884 170.856C127.875 169.669 127.635 168.519 127.919 167.336C127.999 166.999 127.32 166.854 127.238 167.194Z" fill="#100F0D"/>
<path d="M124.363 181.959C125.831 181.018 127.886 180.659 129.546 180.078C131.274 179.474 133.031 178.877 134.822 178.452C135.134 178.378 135.002 177.935 134.69 178.008C132.754 178.467 130.864 179.127 128.997 179.78C127.418 180.332 125.514 180.662 124.112 181.561C123.849 181.73 124.098 182.129 124.363 181.959Z" fill="#100F0D"/>
<path d="M120.389 181.964C122.255 180.746 124.692 180.44 126.681 181.013C127.002 181.106 127.138 180.393 126.816 180.3C124.676 179.682 122.134 180.018 120.133 181.324C119.834 181.52 120.092 182.157 120.389 181.964Z" fill="#100F0D"/>
<path d="M134.848 178.174C134.245 179.746 134.297 181.5 134.115 183.147C133.907 185.024 134.014 186.828 134.178 188.697C134.31 190.191 134.913 191.346 135.674 192.659C136.154 193.484 136.767 194.203 137.812 193.948C138.141 193.867 138.002 193.372 137.672 193.452C136.383 193.767 135.504 191.265 135.125 190.476C134.565 189.307 134.565 187.762 134.487 186.475C134.412 185.252 134.545 183.928 134.703 182.717C134.897 181.236 134.813 179.732 135.358 178.311C135.476 178 134.967 177.867 134.848 178.174Z" fill="#100F0D"/>
<path d="M162.051 182.194C161.721 183.416 163.062 183.786 163.92 183.925C165.264 184.143 166.905 183.913 167.921 182.876C168.161 182.63 167.799 182.241 167.559 182.486C166.787 183.273 165.688 183.419 164.667 183.438C164.16 183.448 162.282 183.317 162.545 182.341C162.638 181.998 162.143 181.854 162.051 182.194Z" fill="#100F0D"/>
<path d="M150.093 137.554C150.763 138.221 151.029 138.954 151.208 139.772C151.296 140.171 152.08 140.002 151.993 139.605C151.786 138.664 151.432 137.87 150.668 137.11C150.346 136.79 149.775 137.238 150.093 137.554Z" fill="#100F0D"/>
<path d="M149.028 138.368C149.262 138.807 149.451 139.282 149.42 139.768C149.401 140.078 149.977 140.077 149.996 139.768C150.032 139.196 149.8 138.642 149.525 138.126C149.374 137.843 148.878 138.088 149.028 138.368Z" fill="#100F0D"/>
<path d="M146.697 137.086C146.277 137.772 145.842 138.813 146.057 139.806C146.131 140.148 146.476 140.001 146.401 139.656C146.229 138.864 146.618 138.026 146.949 137.485C147.109 137.223 146.857 136.823 146.697 137.086Z" fill="#100F0D"/>
<path d="M147.34 137.251C147.092 137.99 147.16 138.776 147.009 139.537C146.917 140.002 147.554 140.2 147.647 139.734C147.797 138.976 147.73 138.183 147.977 137.448C148.127 137 147.489 136.808 147.34 137.251Z" fill="#100F0D"/>
<path d="M139.465 148.249C139.318 149.399 139.321 150.549 139.303 151.708C139.293 152.393 139.275 153.093 139.082 153.752C139.008 154.002 138.966 154.278 139.035 154.537C139.379 155.842 141.799 155.849 142.725 155.842C142.683 155.68 142.641 155.517 142.599 155.354C141.519 156.184 140.988 157.46 141.332 158.84C141.784 160.657 144.287 160.998 145.694 161.463C146.932 161.872 148.062 162.654 148.827 163.756C149.593 164.861 149.664 166.319 149.762 167.625C149.965 170.325 149.967 173.158 150.51 175.811C150.577 176.142 151.061 176.002 150.994 175.672C150.497 173.245 150.452 170.603 150.297 168.127C150.188 166.402 150.087 164.684 149.086 163.242C148.222 161.995 146.823 161.286 145.456 160.835C144.292 160.451 142.831 160.245 142.038 159.172C141.231 158.08 141.933 156.513 142.852 155.807C143.041 155.66 142.995 155.316 142.725 155.318C141.839 155.325 141.051 155.312 140.226 154.907C139.436 154.52 139.655 153.895 139.715 153.224C139.865 151.567 139.755 149.901 139.966 148.249C140.009 147.915 139.507 147.919 139.465 148.249Z" fill="#100F0D"/>
<path d="M150.38 160.956C151.997 159.893 154.022 159.719 155.623 158.723C156.849 157.961 155.361 156.85 154.911 156.197C154.837 156.322 154.761 156.446 154.686 156.571C155.47 156.53 156.542 156.629 157.207 156.134C158.034 155.517 158.037 154.555 157.978 153.63C157.805 150.953 157.805 148.443 156.216 146.115C156.034 145.847 155.582 146.096 155.766 146.366C157.027 148.214 157.293 150.153 157.351 152.307C157.375 153.191 157.565 154.055 157.418 154.939C157.212 156.172 155.649 156.022 154.686 156.073C154.5 156.083 154.345 156.281 154.461 156.448C154.684 156.771 154.929 157.033 155.211 157.314C156.264 158.364 154.303 158.732 153.796 158.905C152.503 159.346 151.257 159.776 150.117 160.526C149.842 160.707 150.102 161.139 150.38 160.956Z" fill="#100F0D"/>
<path d="M140.003 147.33C140.406 150.146 142.466 152.277 144.03 154.549C145.929 157.306 148.13 159.803 149.51 162.863C149.65 163.171 150.113 162.905 149.975 162.598C148.702 159.778 146.719 157.572 144.997 155.026C143.339 152.575 140.953 150.206 140.522 147.19C140.474 146.857 139.956 146.999 140.003 147.33Z" fill="#100F0D"/>
<path d="M154.537 147.232C154.403 148.39 154.347 149.553 154.131 150.698C153.93 151.758 153.386 152.711 152.841 153.609C152.354 154.41 151.81 155.172 151.315 155.968C150.808 156.785 150.643 157.822 150.056 158.573C149.869 158.813 150.193 159.16 150.382 158.918C150.868 158.295 151.062 157.55 151.371 156.823C151.821 155.763 152.63 154.816 153.238 153.854C154.568 151.754 154.715 149.672 154.998 147.232C155.034 146.921 154.573 146.925 154.537 147.232Z" fill="#100F0D"/>
<path d="M138.674 148.085C137.343 150.172 136.669 152.962 136.324 155.547C136.118 157.086 136.027 158.647 136.001 160.205C135.983 161.228 136.388 162.673 136.025 163.624C135.916 163.909 136.257 164.16 136.366 163.873C136.625 163.193 136.517 162.391 136.459 161.668C136.358 160.411 136.409 159.163 136.488 157.905C136.691 154.679 137.296 151.033 138.954 148.434C139.11 148.188 138.833 147.836 138.674 148.085Z" fill="#100F0D"/>
<path d="M156.067 147.456C156.606 148.089 157.252 148.587 157.823 149.182C158.864 150.269 158.521 152.102 158.397 153.517C158.293 154.694 158.255 155.87 158.172 157.048C158.106 157.979 157.955 158.899 158.191 159.813C158.276 160.141 158.737 160.001 158.652 159.673C158.381 158.629 158.646 157.522 158.679 156.459C158.73 154.821 158.945 153.199 158.997 151.561C159.072 149.214 157.717 148.624 156.404 147.082C156.193 146.833 155.856 147.208 156.067 147.456Z" fill="#100F0D"/>
<path d="M158.047 149.371C158.974 150.643 159.969 151.821 161.109 152.935C161.758 153.57 162.348 154.229 162.818 154.989C163.333 155.821 163.236 156.899 163.461 157.818C163.539 158.137 164.07 158.002 163.992 157.683C163.785 156.838 163.785 155.981 163.51 155.15C163.299 154.513 162.761 153.935 162.317 153.421C161.057 151.961 159.661 150.676 158.523 149.115C158.327 148.845 157.849 149.099 158.047 149.371Z" fill="#100F0D"/>
<path d="M158.185 171.862C159.929 172.31 161.441 171.63 162.607 170.363C164.173 168.663 163.965 166.678 163.701 164.582C163.41 162.279 164.837 160.067 164.066 157.802C163.555 156.301 161.783 155.668 160.325 156.169C158.833 156.681 158.368 158.602 158.635 159.939C159.05 162.01 160.336 163.799 160.585 165.911C160.907 168.652 160.986 172.099 164.749 171.871C165.082 171.851 165.085 171.348 164.749 171.368C161.466 171.567 161.352 168.548 161.129 166.15C160.893 163.613 159.036 161.439 159.086 158.885C159.141 156.135 162.8 155.688 163.671 158.248C164.207 159.822 163.303 161.679 163.141 163.267C162.944 165.205 163.837 166.952 162.992 168.853C162.207 170.617 160.321 171.89 158.322 171.377C157.998 171.295 157.861 171.779 158.185 171.862Z" fill="#100F0D"/>
<path d="M157.494 172.207C157.451 172.141 157.423 172.003 157.502 171.954C157.428 172 157.499 171.848 157.435 172.038C157.398 172.147 157.34 172.237 157.285 172.324C157.412 172.375 157.539 172.427 157.666 172.478C157.634 172.339 157.634 172.198 157.652 172.054C157.657 172.005 157.666 171.952 157.679 171.908C157.471 171.79 157.397 171.81 157.454 171.965C157.458 172.001 157.459 172.038 157.456 172.074C157.455 172.122 157.442 172.182 157.429 172.227C157.377 172.411 157.633 172.463 157.608 172.328C157.577 172.163 157.622 171.994 157.677 171.855C157.696 171.805 157.467 171.638 157.484 171.872C157.49 171.956 157.489 172.054 157.465 172.132C157.445 172.195 157.508 172.186 157.526 172.253C157.517 172.221 157.53 172.183 157.535 172.153C157.562 171.998 157.498 172.195 157.442 172.114C157.495 172.191 157.489 172.263 157.452 172.302C157.459 172.295 157.515 172.387 157.484 172.298C157.459 172.224 157.46 172.112 157.459 172.031C157.459 171.941 157.464 171.834 157.487 171.75C157.518 171.64 157.496 171.69 157.514 171.702C157.592 171.755 157.518 171.987 157.485 172.081C157.463 172.147 157.419 172.241 157.39 172.274C157.355 172.312 157.416 172.272 157.461 172.307C157.522 172.353 157.492 172.362 157.476 172.244C157.415 171.804 156.976 171.991 157.036 172.43C157.112 172.98 157.439 173.118 157.709 172.771C157.926 172.492 158.065 171.921 157.969 171.504C157.858 171.016 157.412 170.812 157.175 171.213C156.966 171.568 156.958 172.191 157.079 172.609C157.226 173.12 157.66 173.121 157.855 172.666C158.056 172.195 157.846 171.465 157.474 171.419C157.086 171.372 156.945 172.398 157.207 172.726C157.543 173.144 157.92 172.588 157.939 172.045C157.95 171.738 157.915 171.287 157.682 171.189C157.478 171.103 157.323 171.373 157.24 171.621C157.133 171.942 157.108 172.336 157.204 172.669C157.283 172.943 157.491 173.06 157.657 172.884C157.945 172.579 158.062 171.476 157.634 171.296C157.191 171.109 157.133 172.263 157.226 172.664C157.283 172.902 157.481 173.018 157.608 172.818C157.761 172.573 157.987 172.168 157.91 171.794C157.846 171.486 157.701 171.236 157.475 171.256C156.994 171.298 156.873 172.236 157.171 172.701C157.378 173.023 157.7 172.529 157.494 172.207Z" fill="#100F0D"/>
<path d="M164.879 172.416C164.791 172.257 164.775 172.083 164.781 171.912C164.784 171.84 164.807 171.763 164.844 171.697C164.899 171.597 164.669 171.462 164.73 171.632C164.773 171.75 164.773 171.898 164.753 172.019C164.742 172.074 164.727 172.128 164.709 172.181C164.647 172.298 164.759 172.307 165.045 172.209C165.019 172.192 164.995 172.139 164.983 172.11C164.938 172.006 164.925 171.897 164.961 171.792C164.965 171.775 164.864 171.848 164.842 171.826C164.984 171.978 165.025 172.288 164.766 172.376C164.924 172.449 165.082 172.522 165.24 172.595C165.141 172.403 165.231 172.138 165.348 171.963C165.413 171.865 165.244 171.925 165.247 171.983C165.249 172.04 165.22 172.096 165.2 172.149C165.133 172.322 165.076 172.165 165.318 172.25C164.867 172.092 164.474 172.634 164.931 172.793C165.896 173.13 166.425 171.745 165.571 171.372C164.7 170.992 164.256 172.29 164.496 172.762C164.568 172.904 164.759 173.053 164.97 172.982C165.826 172.694 165.999 171.729 165.222 171.277C164.817 171.04 164.366 171.312 164.218 171.624C164.073 171.925 164.205 172.391 164.468 172.626C164.803 172.926 165.281 172.762 165.426 172.411C165.577 172.047 165.59 171.583 165.361 171.239C165.062 170.792 164.42 171.05 164.178 171.38C163.887 171.777 163.992 172.335 164.214 172.733C164.418 173.102 165.083 172.782 164.879 172.416Z" fill="#100F0D"/>
<path d="M134.813 164.074C132.967 163.576 132.164 165.752 134.182 165.983C136.191 166.214 136.754 164.006 134.749 164.152C134.278 164.186 134.272 164.617 134.749 164.582C135.693 164.513 135.249 165.544 134.457 165.568C133.23 165.605 133.768 164.265 134.436 164.445C134.871 164.562 135.249 164.192 134.813 164.074Z" fill="#100F0D"/>
<path d="M135.4 164.837C135.97 164.529 136.858 164.291 137.163 164.976C137.343 165.38 137.345 165.903 137.255 166.319C137.128 166.905 136.483 167.456 135.708 167.487C134.709 167.529 134.749 166.503 134.673 166.014C134.622 165.681 133.951 165.677 134.003 166.014C134.113 166.734 134.113 167.65 135.199 167.93C136.285 168.21 137.275 167.614 137.733 166.864C138.15 166.179 138.05 165.174 137.632 164.503C137.139 163.712 135.772 163.998 135.063 164.382C134.708 164.573 135.043 165.03 135.4 164.837Z" fill="#100F0D"/>
<path d="M131.258 169.935C132.815 169.789 134.377 169.597 135.941 169.685C136.845 169.737 137.838 170.065 138.741 169.988C139.085 169.959 139.087 169.313 138.741 169.343C137.847 169.418 136.832 169.117 135.941 169.04C134.384 168.905 132.808 169.144 131.258 169.289C130.915 169.321 130.913 169.967 131.258 169.935Z" fill="#100F0D"/>
<path d="M131 169.3C131.01 170.129 131.063 170.941 131.193 171.757C131.216 171.896 131.344 171.978 131.458 171.984C132.595 172.048 133.717 171.902 134.851 171.829C135.417 171.793 135.981 171.862 136.546 171.881C136.946 171.896 137.329 171.718 137.738 171.778C138.089 171.829 138.085 171.209 137.738 171.158C136.686 171.005 135.442 171.172 134.374 171.24C133.722 171.282 133.073 171.355 132.42 171.388C131.389 171.441 131.561 170.149 131.55 169.3C131.546 168.9 130.996 168.9 131 169.3Z" fill="#100F0D"/>
<path d="M138.325 184.267C138.41 186.308 138.35 188.347 138.429 190.386C138.513 192.569 138.458 194.81 136.162 195.6C134.494 196.174 132.475 195.942 130.741 196.073C128.566 196.238 126.444 196.507 124.255 196.434C123.914 196.423 123.915 196.976 124.255 196.987C126.778 197.072 129.242 196.72 131.753 196.555C133.401 196.447 135.44 196.692 136.971 195.872C138.389 195.112 138.841 193.827 138.968 192.23C139.068 190.995 138.897 189.745 138.938 188.507C138.984 187.095 138.912 185.678 138.854 184.267C138.84 183.912 138.311 183.91 138.325 184.267Z" fill="#100F0D"/>
<path d="M163.427 186.18C162.637 188.779 162.898 191.413 164.593 193.608C165.27 194.485 166.267 195.402 167.363 195.767C168.813 196.25 170.349 195.874 171.807 195.604C172.144 195.541 172.002 195.047 171.666 195.109C170.412 195.341 169.098 195.672 167.828 195.38C166.579 195.093 165.555 193.999 164.822 193.051C163.322 191.108 163.256 188.568 163.941 186.317C164.038 185.999 163.524 185.864 163.427 186.18Z" fill="#100F0D"/>
<path d="M169.655 185.296C170.179 186.723 170.52 188.153 170.492 189.681C170.464 191.226 169.792 193.894 168.166 194.512C167.873 194.624 168 195.095 168.297 194.983C169.771 194.422 170.349 192.749 170.743 191.344C171.319 189.292 170.844 187.115 170.129 185.166C170.022 184.873 169.546 185 169.655 185.296Z" fill="#100F0D"/>
<path d="M151 180.25C151.017 186.567 151.746 192.819 151.932 199.122C152.118 205.45 151.617 211.776 151.598 218.105C151.589 221.205 151.587 224.311 151.633 227.411C151.679 230.472 152.021 233.517 152.254 236.561C152.488 239.624 152.539 242.724 152.584 245.799C152.629 248.839 151.765 251.73 151.831 254.75C151.838 255.083 152.254 255.084 152.246 254.75C152.181 251.741 153.016 248.833 153 245.799C152.984 242.727 152.892 239.621 152.67 236.561C152.448 233.51 152.123 230.476 152.048 227.411C151.973 224.315 152.009 221.202 152.014 218.105C152.022 211.773 152.499 205.455 152.347 199.122C152.196 192.818 151.433 186.568 151.415 180.25C151.415 179.917 151 179.916 151 180.25Z" fill="#100F0D"/>
<path d="M148.58 166.43C148.528 166.475 148.482 166.507 148.485 166.537C148.486 166.562 148.457 166.608 148.431 166.615C148.429 166.615 148.486 166.645 148.456 166.607C148.409 166.548 148.495 166.462 148.434 166.517C148.414 166.535 148.387 166.547 148.364 166.56C148.485 166.495 148.587 166.619 148.599 166.71C148.592 166.655 148.594 166.708 148.602 166.67C148.621 166.585 148.678 166.482 148.717 166.441C148.751 166.406 148.701 166.447 148.685 166.452C148.62 166.428 148.554 166.405 148.489 166.381C148.502 166.401 148.504 166.404 148.494 166.391C148.504 166.421 148.506 166.446 148.509 166.477C148.52 166.508 148.545 166.508 148.587 166.476C148.562 166.463 148.546 166.444 148.536 166.419C148.377 166.166 147.957 166.395 148.117 166.649C148.298 166.936 148.763 167.058 148.944 166.697C149.053 166.479 148.994 166.09 148.713 166.011C148.33 165.903 147.965 166.611 148.166 166.877C148.497 167.314 149.374 166.469 148.601 166.187C148.341 166.091 148.025 166.238 148.002 166.508C147.985 166.694 148.087 166.832 148.245 166.932C148.475 167.077 148.758 166.894 148.923 166.752C149.155 166.554 148.811 166.232 148.58 166.43Z" fill="#100F0D"/>
<path d="M150.821 163.15C149.362 162.696 148.317 163.294 147.679 164.646C147.297 165.455 147.207 166.4 147.003 167.262C146.731 168.414 146.306 169.534 146.009 170.682C145.927 171.002 146.42 171.137 146.503 170.818C146.831 169.549 147.281 168.311 147.582 167.036C147.972 165.383 148.324 162.908 150.685 163.643C151.001 163.742 151.135 163.248 150.821 163.15Z" fill="#100F0D"/>
<path d="M146.098 174.179C145.584 176.123 147.195 177.379 148.563 178.193C149.52 178.762 151.502 179.758 151.948 178.034C152.369 176.405 150.13 175.451 149.116 175.063C148.292 174.748 146.436 173.762 146.098 175.196C146.023 175.514 146.472 175.649 146.547 175.331C146.738 174.519 148.02 175.248 148.454 175.382C149.451 175.692 150.735 176.128 151.339 177.127C151.639 177.647 151.538 178.097 151.038 178.477C150.73 178.516 150.434 178.483 150.147 178.376C149.574 178.208 149.036 177.895 148.517 177.587C147.419 176.933 146.138 175.862 146.547 174.314C146.631 173.999 146.181 173.865 146.098 174.179Z" fill="#100F0D"/>
<path d="M152.2 178C152.358 178 152.52 178 152.641 178C152.839 178 153.133 178 152.934 178C152.728 178 152.472 178 152.2 178C151.934 178 151.933 178 152.2 178Z" fill="#100F0D"/>
<path d="M158.677 177.894C158.466 177.635 158.183 177.53 157.846 177.49C157.117 177.402 156.41 177.317 155.689 177.164C154.962 177.01 153.218 176.69 153.025 177.8C152.828 178.929 153.838 179.56 154.855 179.746C156.088 179.972 157.71 180.215 158.873 179.667C159.16 179.532 158.91 179.12 158.626 179.253C157.765 179.659 156.958 179.426 156.06 179.361C155.777 179.34 155.492 179.331 155.208 179.309C154.706 179.272 152.478 178.537 153.787 177.592C154.4 177.151 155.783 177.678 156.453 177.813C156.988 177.922 157.967 177.787 158.329 178.233C158.525 178.475 158.872 178.134 158.677 177.894Z" fill="#100F0D"/>
<path d="M145.117 144.639C147.301 146.42 149.711 146.487 151.884 144.639C152.151 144.413 151.908 143.824 151.641 144.051C149.611 145.777 147.4 145.715 145.361 144.051C145.091 143.831 144.848 144.419 145.117 144.639Z" fill="#100F0D"/>
</g>
<path d="M105.991 100.336C105.991 102.284 107.571 103.863 109.52 103.863C111.468 103.863 113.047 102.284 113.047 100.336C113.047 98.388 111.468 96.808 109.52 96.808C107.571 96.808 105.991 98.388 105.991 100.336Z" fill="white"/>
<path d="M97.9973 233.997C97.9973 246.699 87.7014 256.996 74.9987 256.996C62.2974 256.996 52 246.699 52 233.997C52 221.296 62.2974 211 74.9987 211C87.7014 211 97.9973 221.296 97.9973 233.997Z" fill="#FFB451"/>
<path d="M80.1814 241.451H63.8893C62.6173 241.451 61.5867 240.419 61.5867 239.147V228.849C61.5867 227.576 62.6173 226.545 63.8893 226.545H80.1814C81.4547 226.545 82.4854 227.576 82.4854 228.849V239.147C82.4854 240.419 81.4547 241.451 80.1814 241.451Z" fill="white"/>
<path d="M80.3026 233.997L84.3573 231.025L88.412 228.055V239.941L84.3573 236.969L80.3026 233.997Z" fill="white"/>
<path d="M82.3506 100.336C82.3506 102.284 83.9293 103.863 85.8773 103.863C87.8266 103.863 89.4066 102.284 89.4066 100.336C89.4066 98.388 87.8266 96.808 85.8773 96.808C83.9293 96.808 82.3506 98.388 82.3506 100.336Z" fill="white"/>
<path d="M94.1707 100.336C94.1707 102.284 95.7507 103.863 97.6973 103.863C99.6467 103.863 101.227 102.284 101.227 100.336C101.227 98.388 99.6467 96.808 97.6973 96.808C95.7507 96.808 94.1707 98.388 94.1707 100.336Z" fill="white"/>
<path d="M203.631 101.9H224.003C224.865 101.9 225.568 101.199 225.568 100.335C225.568 99.472 224.865 98.7707 224.003 98.7707H203.631C202.767 98.7707 202.067 99.472 202.067 100.335C202.067 101.199 202.767 101.9 203.631 101.9Z" fill="white"/>
<path d="M426.019 164.232C426.019 176.099 412.076 185.717 394.876 185.717C377.677 185.717 363.735 176.099 363.735 164.232C363.735 152.367 377.677 142.748 394.876 142.748C412.076 142.748 426.019 152.367 426.019 164.232Z" fill="#80BAFF"/>
<path d="M394.876 181.215L420.341 198.341L409.824 178.331L394.876 181.215Z" fill="#80BAFF"/>
<path d="M390.411 161.137C390.411 167.059 395.211 171.859 401.132 171.859C407.053 171.859 411.853 167.059 411.853 161.137C411.853 155.216 407.053 150.416 401.132 150.416C395.211 150.416 390.411 155.216 390.411 161.137Z" fill="white"/>
<path d="M392.844 168.604C392.651 168.604 392.459 168.52 392.325 168.357C392.093 168.071 392.139 167.651 392.423 167.419L408.2 154.613C408.485 154.381 408.905 154.423 409.139 154.712C409.371 154.997 409.327 155.417 409.041 155.649L393.264 168.455C393.14 168.555 392.992 168.604 392.844 168.604Z" fill="#D2D2DB"/>
<path d="M389.811 177.924C394.249 177.147 397.215 172.917 396.436 168.481C395.657 164.044 391.429 161.077 386.992 161.856C382.555 162.635 379.588 166.863 380.367 171.3C381.145 175.737 385.373 178.703 389.811 177.924Z" fill="#EFEFF4"/>
<path d="M394.072 175.427C393.917 175.427 393.76 175.372 393.635 175.263L382.496 165.587C382.219 165.345 382.191 164.924 382.429 164.645C382.673 164.368 383.093 164.339 383.371 164.58L394.509 174.256C394.787 174.499 394.817 174.919 394.576 175.197C394.443 175.349 394.257 175.427 394.072 175.427Z" fill="white"/>
<path d="M39.2692 141.105C39.2692 153.805 49.5653 164.103 62.2666 164.103C74.968 164.103 85.2653 153.805 85.2653 141.105C85.2653 128.403 74.968 118.107 62.2666 118.107C49.5653 118.107 39.2692 128.403 39.2692 141.105Z" fill="#047857"/>
<path d="M51.8013 129.694C52.052 129.589 52.3062 129.544 52.555 129.537C52.743 129.331 52.9502 129.14 53.1905 128.977C54.858 127.845 57.1311 128.28 58.2639 129.951L60.0843 132.64C61.2147 134.309 60.7804 136.58 59.11 137.711C58.842 137.892 58.5604 138.034 58.2681 138.136L58.0065 138.205C60.1511 141.985 62.329 144.466 64.2789 146.092C64.3511 145.673 64.4853 145.257 64.7125 144.868C65.7284 143.128 67.967 142.539 69.7077 143.553L72.5109 145.189C74.2538 146.206 74.8423 148.441 73.826 150.183C73.722 150.364 73.5988 150.529 73.4698 150.683C73.515 150.823 73.547 150.968 73.5631 151.12C73.6765 152.152 73.0507 153.094 72.1105 153.423C71.956 153.478 71.7908 153.517 71.6206 153.535C71.1115 153.589 59.0294 154.637 50.5412 132.525C50.1084 131.395 50.671 130.127 51.8013 129.694Z" fill="white"/>
<path d="M153.273 289.875C153.273 290.5 157.769 291.005 163.316 291.005C168.863 291.005 173.36 290.5 173.36 289.875C173.36 289.251 168.863 288.745 163.316 288.745C157.769 288.745 153.273 289.251 153.273 289.875Z" fill="white"/>
<circle cx="144.5" cy="131.5" r="0.5" fill="#100F0D"/>
<circle cx="152.5" cy="131.5" r="0.5" fill="#100F0D"/>
</svg>
